G75*
%MOIN*%
%OFA0B0*%
%FSLAX24Y24*%
%IPPOS*%
%LPD*%
%AMOC8*
5,1,8,0,0,1.08239X$1,22.5*
%
%ADD10C,0.0160*%
%ADD11C,0.0000*%
%ADD12C,0.0070*%
%ADD13C,0.0520*%
%ADD14C,0.0760*%
%ADD15R,0.0760X0.0760*%
%ADD16R,0.0512X0.0630*%
%ADD17R,0.0630X0.0512*%
%ADD18R,0.0591X0.0512*%
%ADD19C,0.0600*%
%ADD20C,0.0594*%
%ADD21C,0.0787*%
%ADD22OC8,0.0600*%
%ADD23R,0.0790X0.0590*%
%ADD24R,0.0790X0.1500*%
%ADD25C,0.0520*%
%ADD26OC8,0.0560*%
D10*
X001100Y000180D02*
X001100Y020910D01*
X033472Y020910D01*
X033452Y000180D01*
X001100Y000180D01*
X003119Y001731D02*
X003600Y001250D01*
X004260Y001250D01*
X004300Y001290D01*
X003119Y001731D02*
X003119Y003180D01*
X003049Y003250D01*
X002600Y003250D01*
X002150Y003700D01*
X002150Y009450D01*
X002600Y009900D01*
X003370Y009900D01*
X003370Y010900D02*
X003140Y010900D01*
X002010Y012030D01*
X002010Y015710D01*
X003610Y017310D01*
X003610Y018810D01*
X004280Y019480D01*
X005530Y019480D01*
X006080Y019480D01*
X006090Y019490D01*
X006680Y018900D01*
X006680Y017840D01*
X005680Y017840D02*
X005680Y015945D01*
X005650Y015915D01*
X005655Y015250D02*
X005650Y015245D01*
X005710Y015185D01*
X005710Y013120D01*
X007600Y011230D01*
X007600Y009250D01*
X013600Y009250D02*
X013706Y009144D01*
X013706Y007550D01*
X014494Y007550D02*
X014494Y008750D01*
X014600Y008856D01*
X014600Y009250D01*
X014600Y011000D01*
X013600Y012000D01*
X013600Y013250D01*
X013600Y016750D01*
X015540Y018690D01*
X016560Y018690D01*
X014050Y020140D02*
X013270Y019360D01*
X013270Y018400D01*
X014050Y020140D02*
X026960Y020140D01*
X027600Y019500D01*
X027600Y016250D01*
X029850Y014000D01*
X030350Y014000D01*
X030670Y013680D01*
X030670Y013130D01*
X030690Y013150D01*
X029670Y013130D02*
X029420Y013130D01*
X025970Y016580D01*
X025970Y018780D01*
X025200Y019550D01*
X022620Y019550D01*
X021920Y018850D01*
X021920Y014980D01*
X021180Y014240D01*
X019130Y014240D01*
X018600Y013710D01*
X018600Y013250D01*
X017450Y011960D02*
X022640Y011960D01*
X024360Y013680D01*
X026700Y013680D01*
X027680Y012700D01*
X027680Y010600D01*
X028130Y010150D01*
X029650Y010150D01*
X029670Y010130D01*
X024910Y011670D02*
X024520Y011670D01*
X023070Y010220D01*
X023070Y006314D01*
X027566Y006314D01*
X027810Y006070D01*
X027810Y005260D01*
X027830Y004490D01*
X026850Y004510D02*
X026850Y005250D01*
X026574Y005526D01*
X023070Y005526D01*
X023070Y005000D01*
X022830Y004760D01*
X022830Y002520D01*
X022390Y002080D01*
X021510Y002080D01*
X021050Y002980D02*
X019860Y001790D01*
X019090Y001790D01*
X017270Y002860D02*
X015530Y002860D01*
X015390Y003000D01*
X015390Y003010D01*
X015400Y003020D01*
X014990Y003430D01*
X014990Y003750D01*
X016890Y003750D02*
X016890Y003910D01*
X017640Y004660D01*
X019660Y004660D01*
X020170Y004150D01*
X019990Y003994D01*
X019990Y003206D02*
X020306Y003206D01*
X020980Y003880D01*
X021510Y003880D01*
X021510Y005360D01*
X022464Y006314D01*
X023070Y006314D01*
X026830Y004490D02*
X026850Y004510D01*
X021510Y002980D02*
X021050Y002980D01*
X019990Y003206D02*
X019980Y003196D01*
X018780Y003196D01*
X018780Y003984D02*
X018394Y003984D01*
X017270Y002860D01*
X014494Y008750D02*
X014494Y008894D01*
X014600Y009000D01*
X017450Y011960D02*
X016600Y012810D01*
X016600Y013250D01*
X007850Y017460D02*
X006590Y016200D01*
X006590Y016010D01*
X006600Y016000D01*
X006600Y015750D01*
X006100Y015250D01*
X005655Y015250D01*
X005650Y015245D02*
X003845Y015245D01*
X003350Y014750D01*
X003350Y013920D01*
X003370Y013900D01*
X007850Y017460D02*
X007850Y019000D01*
X009100Y020250D01*
X009600Y020250D01*
X005570Y019520D02*
X005530Y019480D01*
D11*
X001530Y019800D02*
X001532Y019850D01*
X001538Y019900D01*
X001548Y019949D01*
X001562Y019997D01*
X001579Y020044D01*
X001600Y020089D01*
X001625Y020133D01*
X001653Y020174D01*
X001685Y020213D01*
X001719Y020250D01*
X001756Y020284D01*
X001796Y020314D01*
X001838Y020341D01*
X001882Y020365D01*
X001928Y020386D01*
X001975Y020402D01*
X002023Y020415D01*
X002073Y020424D01*
X002122Y020429D01*
X002173Y020430D01*
X002223Y020427D01*
X002272Y020420D01*
X002321Y020409D01*
X002369Y020394D01*
X002415Y020376D01*
X002460Y020354D01*
X002503Y020328D01*
X002544Y020299D01*
X002583Y020267D01*
X002619Y020232D01*
X002651Y020194D01*
X002681Y020154D01*
X002708Y020111D01*
X002731Y020067D01*
X002750Y020021D01*
X002766Y019973D01*
X002778Y019924D01*
X002786Y019875D01*
X002790Y019825D01*
X002790Y019775D01*
X002786Y019725D01*
X002778Y019676D01*
X002766Y019627D01*
X002750Y019579D01*
X002731Y019533D01*
X002708Y019489D01*
X002681Y019446D01*
X002651Y019406D01*
X002619Y019368D01*
X002583Y019333D01*
X002544Y019301D01*
X002503Y019272D01*
X002460Y019246D01*
X002415Y019224D01*
X002369Y019206D01*
X002321Y019191D01*
X002272Y019180D01*
X002223Y019173D01*
X002173Y019170D01*
X002122Y019171D01*
X002073Y019176D01*
X002023Y019185D01*
X001975Y019198D01*
X001928Y019214D01*
X001882Y019235D01*
X001838Y019259D01*
X001796Y019286D01*
X001756Y019316D01*
X001719Y019350D01*
X001685Y019387D01*
X001653Y019426D01*
X001625Y019467D01*
X001600Y019511D01*
X001579Y019556D01*
X001562Y019603D01*
X001548Y019651D01*
X001538Y019700D01*
X001532Y019750D01*
X001530Y019800D01*
X002930Y006060D02*
X002932Y006110D01*
X002938Y006160D01*
X002948Y006209D01*
X002962Y006257D01*
X002979Y006304D01*
X003000Y006349D01*
X003025Y006393D01*
X003053Y006434D01*
X003085Y006473D01*
X003119Y006510D01*
X003156Y006544D01*
X003196Y006574D01*
X003238Y006601D01*
X003282Y006625D01*
X003328Y006646D01*
X003375Y006662D01*
X003423Y006675D01*
X003473Y006684D01*
X003522Y006689D01*
X003573Y006690D01*
X003623Y006687D01*
X003672Y006680D01*
X003721Y006669D01*
X003769Y006654D01*
X003815Y006636D01*
X003860Y006614D01*
X003903Y006588D01*
X003944Y006559D01*
X003983Y006527D01*
X004019Y006492D01*
X004051Y006454D01*
X004081Y006414D01*
X004108Y006371D01*
X004131Y006327D01*
X004150Y006281D01*
X004166Y006233D01*
X004178Y006184D01*
X004186Y006135D01*
X004190Y006085D01*
X004190Y006035D01*
X004186Y005985D01*
X004178Y005936D01*
X004166Y005887D01*
X004150Y005839D01*
X004131Y005793D01*
X004108Y005749D01*
X004081Y005706D01*
X004051Y005666D01*
X004019Y005628D01*
X003983Y005593D01*
X003944Y005561D01*
X003903Y005532D01*
X003860Y005506D01*
X003815Y005484D01*
X003769Y005466D01*
X003721Y005451D01*
X003672Y005440D01*
X003623Y005433D01*
X003573Y005430D01*
X003522Y005431D01*
X003473Y005436D01*
X003423Y005445D01*
X003375Y005458D01*
X003328Y005474D01*
X003282Y005495D01*
X003238Y005519D01*
X003196Y005546D01*
X003156Y005576D01*
X003119Y005610D01*
X003085Y005647D01*
X003053Y005686D01*
X003025Y005727D01*
X003000Y005771D01*
X002979Y005816D01*
X002962Y005863D01*
X002948Y005911D01*
X002938Y005960D01*
X002932Y006010D01*
X002930Y006060D01*
X031720Y001230D02*
X031722Y001280D01*
X031728Y001330D01*
X031738Y001379D01*
X031752Y001427D01*
X031769Y001474D01*
X031790Y001519D01*
X031815Y001563D01*
X031843Y001604D01*
X031875Y001643D01*
X031909Y001680D01*
X031946Y001714D01*
X031986Y001744D01*
X032028Y001771D01*
X032072Y001795D01*
X032118Y001816D01*
X032165Y001832D01*
X032213Y001845D01*
X032263Y001854D01*
X032312Y001859D01*
X032363Y001860D01*
X032413Y001857D01*
X032462Y001850D01*
X032511Y001839D01*
X032559Y001824D01*
X032605Y001806D01*
X032650Y001784D01*
X032693Y001758D01*
X032734Y001729D01*
X032773Y001697D01*
X032809Y001662D01*
X032841Y001624D01*
X032871Y001584D01*
X032898Y001541D01*
X032921Y001497D01*
X032940Y001451D01*
X032956Y001403D01*
X032968Y001354D01*
X032976Y001305D01*
X032980Y001255D01*
X032980Y001205D01*
X032976Y001155D01*
X032968Y001106D01*
X032956Y001057D01*
X032940Y001009D01*
X032921Y000963D01*
X032898Y000919D01*
X032871Y000876D01*
X032841Y000836D01*
X032809Y000798D01*
X032773Y000763D01*
X032734Y000731D01*
X032693Y000702D01*
X032650Y000676D01*
X032605Y000654D01*
X032559Y000636D01*
X032511Y000621D01*
X032462Y000610D01*
X032413Y000603D01*
X032363Y000600D01*
X032312Y000601D01*
X032263Y000606D01*
X032213Y000615D01*
X032165Y000628D01*
X032118Y000644D01*
X032072Y000665D01*
X032028Y000689D01*
X031986Y000716D01*
X031946Y000746D01*
X031909Y000780D01*
X031875Y000817D01*
X031843Y000856D01*
X031815Y000897D01*
X031790Y000941D01*
X031769Y000986D01*
X031752Y001033D01*
X031738Y001081D01*
X031728Y001130D01*
X031722Y001180D01*
X031720Y001230D01*
X031880Y019800D02*
X031882Y019850D01*
X031888Y019900D01*
X031898Y019949D01*
X031912Y019997D01*
X031929Y020044D01*
X031950Y020089D01*
X031975Y020133D01*
X032003Y020174D01*
X032035Y020213D01*
X032069Y020250D01*
X032106Y020284D01*
X032146Y020314D01*
X032188Y020341D01*
X032232Y020365D01*
X032278Y020386D01*
X032325Y020402D01*
X032373Y020415D01*
X032423Y020424D01*
X032472Y020429D01*
X032523Y020430D01*
X032573Y020427D01*
X032622Y020420D01*
X032671Y020409D01*
X032719Y020394D01*
X032765Y020376D01*
X032810Y020354D01*
X032853Y020328D01*
X032894Y020299D01*
X032933Y020267D01*
X032969Y020232D01*
X033001Y020194D01*
X033031Y020154D01*
X033058Y020111D01*
X033081Y020067D01*
X033100Y020021D01*
X033116Y019973D01*
X033128Y019924D01*
X033136Y019875D01*
X033140Y019825D01*
X033140Y019775D01*
X033136Y019725D01*
X033128Y019676D01*
X033116Y019627D01*
X033100Y019579D01*
X033081Y019533D01*
X033058Y019489D01*
X033031Y019446D01*
X033001Y019406D01*
X032969Y019368D01*
X032933Y019333D01*
X032894Y019301D01*
X032853Y019272D01*
X032810Y019246D01*
X032765Y019224D01*
X032719Y019206D01*
X032671Y019191D01*
X032622Y019180D01*
X032573Y019173D01*
X032523Y019170D01*
X032472Y019171D01*
X032423Y019176D01*
X032373Y019185D01*
X032325Y019198D01*
X032278Y019214D01*
X032232Y019235D01*
X032188Y019259D01*
X032146Y019286D01*
X032106Y019316D01*
X032069Y019350D01*
X032035Y019387D01*
X032003Y019426D01*
X031975Y019467D01*
X031950Y019511D01*
X031929Y019556D01*
X031912Y019603D01*
X031898Y019651D01*
X031888Y019700D01*
X031882Y019750D01*
X031880Y019800D01*
D12*
X030243Y018694D02*
X030243Y018530D01*
X030161Y018448D01*
X029916Y018448D01*
X029916Y018285D02*
X029916Y018775D01*
X030161Y018775D01*
X030243Y018694D01*
X029728Y018694D02*
X029728Y018367D01*
X029646Y018285D01*
X029482Y018285D01*
X029401Y018367D01*
X029401Y018694D01*
X029482Y018775D01*
X029646Y018775D01*
X029728Y018694D01*
X029212Y018775D02*
X028885Y018775D01*
X029048Y018775D02*
X029048Y018285D01*
D13*
X020600Y013510D02*
X020600Y012990D01*
X019600Y012990D02*
X019600Y013510D01*
X018600Y013510D02*
X018600Y012990D01*
X017600Y012990D02*
X017600Y013510D01*
X016600Y013510D02*
X016600Y012990D01*
X015600Y012990D02*
X015600Y013510D01*
X014600Y013510D02*
X014600Y012990D01*
X013600Y012990D02*
X013600Y013510D01*
X012600Y013510D02*
X012600Y012990D01*
X011600Y012990D02*
X011600Y013510D01*
X010600Y013510D02*
X010600Y012990D01*
X009600Y012990D02*
X009600Y013510D01*
X008600Y013510D02*
X008600Y012990D01*
X007600Y012990D02*
X007600Y013510D01*
X007600Y009510D02*
X007600Y008990D01*
X008600Y008990D02*
X008600Y009510D01*
X009600Y009510D02*
X009600Y008990D01*
X010600Y008990D02*
X010600Y009510D01*
X011600Y009510D02*
X011600Y008990D01*
X012600Y008990D02*
X012600Y009510D01*
X013600Y009510D02*
X013600Y008990D01*
X014600Y008990D02*
X014600Y009510D01*
X015600Y009510D02*
X015600Y008990D01*
X016600Y008990D02*
X016600Y009510D01*
X017600Y009510D02*
X017600Y008990D01*
X018600Y008990D02*
X018600Y009510D01*
X019600Y009510D02*
X019600Y008990D01*
X020600Y008990D02*
X020600Y009510D01*
D14*
X024910Y011670D03*
D15*
X024910Y009670D03*
D16*
X014494Y007550D03*
X013706Y007550D03*
D17*
X018780Y003984D03*
X018780Y003196D03*
X019990Y003206D03*
X019990Y003994D03*
X023070Y005526D03*
X023070Y006314D03*
D18*
X005650Y015245D03*
X005650Y015915D03*
D19*
X007600Y016160D02*
X007600Y015560D01*
X008600Y015560D02*
X008600Y016160D01*
X009600Y016160D02*
X009600Y015560D01*
X010600Y015560D02*
X010600Y016160D01*
X011600Y016160D02*
X011600Y015560D01*
X012600Y015560D02*
X012600Y016160D01*
X012270Y018100D02*
X012270Y018700D01*
X011270Y018700D02*
X011270Y018100D01*
X010270Y018100D02*
X010270Y018700D01*
X009270Y018700D02*
X009270Y018100D01*
X006680Y018140D02*
X006680Y017540D01*
X005680Y017540D02*
X005680Y018140D01*
X004680Y018140D02*
X004680Y017540D01*
X003670Y013900D02*
X003070Y013900D01*
X003070Y012900D02*
X003670Y012900D01*
X003670Y011900D02*
X003070Y011900D01*
X003070Y010900D02*
X003670Y010900D01*
X003670Y009900D02*
X003070Y009900D01*
X003070Y008900D02*
X003670Y008900D01*
X008600Y006770D02*
X008600Y006170D01*
X009600Y006170D02*
X009600Y006770D01*
X010600Y006770D02*
X010600Y006170D01*
X011600Y006170D02*
X011600Y006770D01*
X012600Y006770D02*
X012600Y006170D01*
X015600Y006170D02*
X015600Y006770D01*
X016600Y006770D02*
X016600Y006170D01*
X017600Y006170D02*
X017600Y006770D01*
X018600Y006770D02*
X018600Y006170D01*
X019600Y006170D02*
X019600Y006770D01*
X020600Y006770D02*
X020600Y006170D01*
X026830Y004790D02*
X026830Y004190D01*
X027830Y004190D02*
X027830Y004790D01*
X028830Y004790D02*
X028830Y004190D01*
X019090Y002090D02*
X019090Y001490D01*
X018090Y001490D02*
X018090Y002090D01*
X017090Y002090D02*
X017090Y001490D01*
X016090Y001490D02*
X016090Y002090D01*
X015090Y002090D02*
X015090Y001490D01*
X013020Y001460D02*
X013020Y002060D01*
X012020Y002060D02*
X012020Y001460D01*
X011020Y001460D02*
X011020Y002060D01*
X010020Y002060D02*
X010020Y001460D01*
X009020Y001460D02*
X009020Y002060D01*
X022780Y014690D02*
X022780Y015290D01*
X024560Y015290D02*
X024560Y014690D01*
X020600Y015420D02*
X020600Y016020D01*
X019600Y016020D02*
X019600Y015420D01*
X018600Y015420D02*
X018600Y016020D01*
X017600Y016020D02*
X017600Y015420D01*
X016600Y015420D02*
X016600Y016020D01*
X013270Y018100D02*
X013270Y018700D01*
X016560Y018990D02*
X016560Y018390D01*
X017560Y018390D02*
X017560Y018990D01*
X018560Y018990D02*
X018560Y018390D01*
X019560Y018390D02*
X019560Y018990D01*
X020560Y018990D02*
X020560Y018390D01*
X022780Y017850D02*
X022780Y017250D01*
X024560Y017250D02*
X024560Y017850D01*
D20*
X029670Y013130D03*
X030670Y013130D03*
X030670Y012130D03*
X029670Y012130D03*
X029670Y011130D03*
X030670Y011130D03*
X030670Y010130D03*
X029670Y010130D03*
X029670Y009130D03*
X030670Y009130D03*
D21*
X005520Y003574D02*
X005520Y002786D01*
X004694Y001290D02*
X003906Y001290D01*
X003119Y002786D02*
X003119Y003574D01*
D22*
X014600Y015450D03*
D23*
X021510Y003880D03*
X021510Y002980D03*
X021510Y002080D03*
D24*
X023990Y002990D03*
D25*
X016890Y003750D03*
X014990Y003750D03*
D26*
X009600Y020250D03*
M02*
