G75*
%MOIN*%
%OFA0B0*%
%FSLAX24Y24*%
%IPPOS*%
%LPD*%
%AMOC8*
5,1,8,0,0,1.08239X$1,22.5*
%
%ADD10C,0.0110*%
%ADD11C,0.0070*%
%ADD12C,0.0060*%
%ADD13C,0.0520*%
%ADD14C,0.0760*%
%ADD15R,0.0760X0.0760*%
%ADD16C,0.0600*%
%ADD17C,0.0594*%
%ADD18C,0.0787*%
%ADD19OC8,0.0600*%
%ADD20C,0.0520*%
%ADD21C,0.0160*%
%ADD22OC8,0.0560*%
D10*
X032355Y003628D02*
X032480Y003503D01*
X032855Y003503D01*
X032480Y003754D02*
X032355Y003879D01*
X032480Y004004D01*
X032855Y004004D01*
X032480Y003754D02*
X032355Y003628D01*
X032480Y004295D02*
X032355Y004420D01*
X032480Y004545D01*
X032355Y004670D01*
X032480Y004796D01*
X032855Y004796D01*
X032855Y005087D02*
X032480Y005087D01*
X032355Y005212D01*
X032480Y005337D01*
X032355Y005462D01*
X032480Y005587D01*
X032855Y005587D01*
X032480Y005879D02*
X032480Y006004D01*
X032355Y006004D01*
X032355Y005879D01*
X032480Y005879D01*
X032480Y006275D02*
X032730Y006275D01*
X032855Y006400D01*
X032855Y006650D01*
X032730Y006775D01*
X032605Y006775D01*
X032605Y006275D01*
X032480Y006275D02*
X032355Y006400D01*
X032355Y006650D01*
X032355Y007067D02*
X032355Y007317D01*
X032355Y007192D02*
X033106Y007192D01*
X033106Y007067D01*
X032730Y007595D02*
X032480Y007595D01*
X032355Y007720D01*
X032355Y007970D01*
X032605Y008095D02*
X032605Y007595D01*
X032730Y007595D02*
X032855Y007720D01*
X032855Y007970D01*
X032730Y008095D01*
X032605Y008095D01*
X032355Y008387D02*
X032855Y008387D01*
X032855Y008512D01*
X032730Y008637D01*
X032855Y008762D01*
X032730Y008887D01*
X032355Y008887D01*
X032480Y009178D02*
X032730Y009178D01*
X032855Y009304D01*
X032855Y009554D01*
X032730Y009679D01*
X032605Y009679D01*
X032605Y009178D01*
X032480Y009178D02*
X032355Y009304D01*
X032355Y009554D01*
X032480Y010095D02*
X032355Y010221D01*
X032480Y010095D02*
X032981Y010095D01*
X032855Y009970D02*
X032855Y010221D01*
X032855Y010498D02*
X032855Y010999D01*
X032355Y010498D01*
X032355Y010999D01*
X032480Y011290D02*
X032355Y011415D01*
X032355Y011665D01*
X032480Y011791D01*
X032730Y011791D01*
X032855Y011665D01*
X032855Y011415D01*
X032730Y011290D01*
X032480Y011290D01*
X032355Y012082D02*
X032855Y012082D01*
X032855Y012457D01*
X032730Y012582D01*
X032355Y012582D01*
X032355Y012874D02*
X032355Y013124D01*
X032355Y012999D02*
X033106Y012999D01*
X033106Y012874D01*
X032855Y013402D02*
X032855Y013527D01*
X032355Y013527D01*
X032355Y013402D02*
X032355Y013652D01*
X032355Y013930D02*
X032855Y013930D01*
X032855Y014305D01*
X032730Y014430D01*
X032355Y014430D01*
X032480Y014722D02*
X032730Y014722D01*
X032855Y014847D01*
X032855Y015097D01*
X032730Y015222D01*
X032605Y015222D01*
X032605Y014722D01*
X032480Y014722D02*
X032355Y014847D01*
X032355Y015097D01*
X032355Y015513D02*
X032355Y015639D01*
X032480Y015639D01*
X032480Y015513D01*
X032355Y015513D01*
X032480Y015909D02*
X032355Y016034D01*
X032355Y016410D01*
X032855Y016410D02*
X032855Y016034D01*
X032730Y015909D01*
X032480Y015909D01*
X032480Y016701D02*
X032355Y016826D01*
X032355Y017077D01*
X032480Y017202D01*
X032730Y017202D01*
X032855Y017077D01*
X032855Y016826D01*
X032730Y016701D01*
X032480Y016701D01*
X032355Y017493D02*
X032855Y017493D01*
X032855Y017618D01*
X032730Y017743D01*
X032855Y017868D01*
X032730Y017994D01*
X032355Y017994D01*
X032355Y017743D02*
X032730Y017743D01*
X033106Y013527D02*
X033231Y013527D01*
X032730Y008637D02*
X032355Y008637D01*
X032480Y004295D02*
X032855Y004295D01*
D11*
X031565Y018285D02*
X031320Y018285D01*
X031238Y018367D01*
X031238Y018448D01*
X031320Y018530D01*
X031565Y018530D01*
X031565Y018285D02*
X031565Y018775D01*
X031320Y018775D01*
X031238Y018694D01*
X031238Y018612D01*
X031320Y018530D01*
X031049Y018367D02*
X030968Y018285D01*
X030804Y018285D01*
X030722Y018367D01*
X030722Y018694D01*
X030804Y018775D01*
X030968Y018775D01*
X031049Y018694D01*
X031049Y018367D01*
X030534Y018775D02*
X030207Y018775D01*
X030370Y018775D02*
X030370Y018285D01*
X029855Y018285D02*
X029855Y018775D01*
X030018Y018775D02*
X029691Y018775D01*
X029502Y018694D02*
X029502Y018367D01*
X029421Y018285D01*
X029257Y018285D01*
X029175Y018367D01*
X029175Y018694D01*
X029257Y018775D01*
X029421Y018775D01*
X029502Y018694D01*
X028987Y018775D02*
X028823Y018612D01*
X028660Y018775D01*
X028660Y018285D01*
X028987Y018285D02*
X028987Y018775D01*
D12*
X029638Y016671D02*
X029532Y016564D01*
X029959Y016137D01*
X029852Y016030D01*
X029638Y016030D01*
X029532Y016137D01*
X029532Y016564D01*
X029638Y016671D02*
X029852Y016671D01*
X029959Y016564D01*
X029959Y016137D01*
X030174Y016137D02*
X030174Y016030D01*
X030281Y016030D01*
X030281Y016137D01*
X030174Y016137D01*
X030498Y016030D02*
X030925Y016030D01*
X030712Y016030D02*
X030712Y016671D01*
X030925Y016457D01*
X031143Y016244D02*
X031143Y016671D01*
X031570Y016671D02*
X031570Y016244D01*
X031356Y016030D01*
X031143Y016244D01*
D13*
X020600Y013510D02*
X020600Y012990D01*
X019600Y012990D02*
X019600Y013510D01*
X018600Y013510D02*
X018600Y012990D01*
X017600Y012990D02*
X017600Y013510D01*
X016600Y013510D02*
X016600Y012990D01*
X015600Y012990D02*
X015600Y013510D01*
X014600Y013510D02*
X014600Y012990D01*
X013600Y012990D02*
X013600Y013510D01*
X012600Y013510D02*
X012600Y012990D01*
X011600Y012990D02*
X011600Y013510D01*
X010600Y013510D02*
X010600Y012990D01*
X009600Y012990D02*
X009600Y013510D01*
X008600Y013510D02*
X008600Y012990D01*
X007600Y012990D02*
X007600Y013510D01*
X007600Y009510D02*
X007600Y008990D01*
X008600Y008990D02*
X008600Y009510D01*
X009600Y009510D02*
X009600Y008990D01*
X010600Y008990D02*
X010600Y009510D01*
X011600Y009510D02*
X011600Y008990D01*
X012600Y008990D02*
X012600Y009510D01*
X013600Y009510D02*
X013600Y008990D01*
X014600Y008990D02*
X014600Y009510D01*
X015600Y009510D02*
X015600Y008990D01*
X016600Y008990D02*
X016600Y009510D01*
X017600Y009510D02*
X017600Y008990D01*
X018600Y008990D02*
X018600Y009510D01*
X019600Y009510D02*
X019600Y008990D01*
X020600Y008990D02*
X020600Y009510D01*
D14*
X024910Y011670D03*
D15*
X024910Y009670D03*
D16*
X020600Y006770D02*
X020600Y006170D01*
X019600Y006170D02*
X019600Y006770D01*
X018600Y006770D02*
X018600Y006170D01*
X017600Y006170D02*
X017600Y006770D01*
X016600Y006770D02*
X016600Y006170D01*
X015600Y006170D02*
X015600Y006770D01*
X012600Y006770D02*
X012600Y006170D01*
X011600Y006170D02*
X011600Y006770D01*
X010600Y006770D02*
X010600Y006170D01*
X009600Y006170D02*
X009600Y006770D01*
X008600Y006770D02*
X008600Y006170D01*
X003670Y008900D02*
X003070Y008900D01*
X003070Y009900D02*
X003670Y009900D01*
X003670Y010900D02*
X003070Y010900D01*
X003070Y011900D02*
X003670Y011900D01*
X003670Y012900D02*
X003070Y012900D01*
X003070Y013900D02*
X003670Y013900D01*
X007600Y015560D02*
X007600Y016160D01*
X008600Y016160D02*
X008600Y015560D01*
X009600Y015560D02*
X009600Y016160D01*
X010600Y016160D02*
X010600Y015560D01*
X011600Y015560D02*
X011600Y016160D01*
X012600Y016160D02*
X012600Y015560D01*
X012270Y018100D02*
X012270Y018700D01*
X011270Y018700D02*
X011270Y018100D01*
X010270Y018100D02*
X010270Y018700D01*
X009270Y018700D02*
X009270Y018100D01*
X006680Y018140D02*
X006680Y017540D01*
X005680Y017540D02*
X005680Y018140D01*
X004680Y018140D02*
X004680Y017540D01*
X013270Y018100D02*
X013270Y018700D01*
X016560Y018990D02*
X016560Y018390D01*
X017560Y018390D02*
X017560Y018990D01*
X018560Y018990D02*
X018560Y018390D01*
X019560Y018390D02*
X019560Y018990D01*
X020560Y018990D02*
X020560Y018390D01*
X022780Y017850D02*
X022780Y017250D01*
X024560Y017250D02*
X024560Y017850D01*
X020600Y016020D02*
X020600Y015420D01*
X019600Y015420D02*
X019600Y016020D01*
X018600Y016020D02*
X018600Y015420D01*
X017600Y015420D02*
X017600Y016020D01*
X016600Y016020D02*
X016600Y015420D01*
X022780Y015290D02*
X022780Y014690D01*
X024560Y014690D02*
X024560Y015290D01*
X026830Y004790D02*
X026830Y004190D01*
X027830Y004190D02*
X027830Y004790D01*
X028830Y004790D02*
X028830Y004190D01*
X019090Y002090D02*
X019090Y001490D01*
X018090Y001490D02*
X018090Y002090D01*
X017090Y002090D02*
X017090Y001490D01*
X016090Y001490D02*
X016090Y002090D01*
X015090Y002090D02*
X015090Y001490D01*
X013020Y001460D02*
X013020Y002060D01*
X012020Y002060D02*
X012020Y001460D01*
X011020Y001460D02*
X011020Y002060D01*
X010020Y002060D02*
X010020Y001460D01*
X009020Y001460D02*
X009020Y002060D01*
D17*
X029670Y009130D03*
X030670Y009130D03*
X030670Y010130D03*
X029670Y010130D03*
X029670Y011130D03*
X030670Y011130D03*
X030670Y012130D03*
X029670Y012130D03*
X029670Y013130D03*
X030670Y013130D03*
D18*
X004694Y001290D02*
X003906Y001290D01*
X003119Y002786D02*
X003119Y003574D01*
X005520Y003574D02*
X005520Y002786D01*
D19*
X014600Y015450D03*
D20*
X014990Y003750D03*
X016890Y003750D03*
D21*
X016890Y003960D01*
X016600Y004250D01*
X016600Y006470D01*
X016600Y009250D01*
X015600Y009250D02*
X015600Y006470D01*
X015600Y004500D01*
X014990Y003890D01*
X014990Y003750D01*
X013280Y003070D02*
X008670Y003070D01*
X005920Y005820D01*
X005920Y007060D01*
X004080Y008900D01*
X003370Y008900D01*
X002700Y008900D01*
X002170Y009430D01*
X002170Y014510D01*
X004680Y017020D01*
X004680Y017840D01*
X005680Y017840D02*
X005680Y018580D01*
X006600Y019500D01*
X014100Y019500D01*
X015600Y018000D01*
X015600Y013250D01*
X015600Y012250D01*
X013600Y010250D01*
X013600Y009250D01*
X012600Y009250D02*
X012600Y006470D01*
X011600Y006470D02*
X011600Y009250D01*
X010600Y009250D02*
X010600Y006470D01*
X009600Y006470D02*
X009600Y009250D01*
X009600Y010650D01*
X008610Y011640D01*
X007520Y011640D01*
X006260Y012900D01*
X003370Y012900D01*
X003370Y011900D02*
X005620Y011900D01*
X006685Y010835D01*
X006760Y010760D01*
X006820Y010700D01*
X008020Y010700D01*
X008600Y010120D01*
X008600Y009250D01*
X008600Y006470D01*
X007160Y006830D02*
X007160Y006020D01*
X008630Y004550D01*
X012760Y004550D01*
X014670Y006460D01*
X014670Y009180D01*
X014600Y009250D01*
X017600Y009250D02*
X017600Y006470D01*
X018600Y006470D02*
X018600Y009250D01*
X019600Y009250D02*
X019600Y006470D01*
X020600Y006470D02*
X020600Y009250D01*
X022300Y010740D02*
X021390Y011650D01*
X018450Y011650D01*
X017600Y012500D01*
X017600Y013250D01*
X017600Y015720D01*
X016600Y015720D02*
X016600Y013250D01*
X014600Y013250D02*
X014600Y015450D01*
X012600Y015860D02*
X012600Y013250D01*
X011600Y013250D02*
X011600Y015860D01*
X010600Y015860D02*
X010600Y013250D01*
X009600Y013250D02*
X009600Y015860D01*
X008600Y015860D02*
X008600Y013250D01*
X007600Y013250D02*
X007600Y015860D01*
X007440Y017840D02*
X006680Y017840D01*
X007440Y017840D02*
X008000Y018400D01*
X009270Y018400D01*
X010270Y018400D01*
X011270Y018400D01*
X012270Y018400D01*
X013270Y018400D01*
X016560Y018690D02*
X017560Y018690D01*
X018560Y018690D01*
X019560Y018690D01*
X020560Y018690D01*
X021410Y018690D01*
X022550Y017550D01*
X022780Y017550D01*
X022780Y014990D01*
X022780Y013800D01*
X024910Y011670D01*
X026000Y010740D02*
X022300Y010740D01*
X024910Y009670D02*
X025140Y009440D01*
X025140Y002260D01*
X023740Y000860D01*
X014340Y000860D01*
X013440Y001760D01*
X013020Y001760D01*
X012020Y001760D01*
X011020Y001760D01*
X010020Y001760D01*
X009020Y001760D01*
X009010Y001750D01*
X007850Y001750D01*
X006520Y003080D01*
X005520Y003180D01*
X007160Y006830D02*
X004090Y009900D01*
X003370Y009900D01*
X013280Y003070D02*
X014560Y001790D01*
X015090Y001790D01*
X016090Y001790D01*
X017090Y001790D01*
X018090Y001790D01*
X019090Y001790D01*
X026850Y002750D02*
X026850Y004470D01*
X026830Y004490D01*
X027830Y004490D02*
X027830Y003810D01*
X028480Y003160D01*
X030420Y003160D01*
X030890Y003630D01*
X030890Y008910D01*
X030670Y009130D01*
X030670Y010130D01*
X030670Y011130D01*
X030670Y012130D01*
X031150Y013130D02*
X031740Y012540D01*
X031740Y003430D01*
X030690Y002380D01*
X027220Y002380D01*
X026850Y002750D01*
X028830Y004490D02*
X028810Y005260D01*
X028810Y006440D01*
X025580Y009670D01*
X024910Y009670D01*
X026000Y010740D02*
X027610Y009130D01*
X029670Y009130D01*
X029670Y011130D02*
X026970Y011130D01*
X024560Y013540D01*
X024560Y014990D01*
X024560Y017540D01*
X021850Y020250D01*
X009600Y020250D01*
X018600Y015720D02*
X018600Y013250D01*
X019600Y013250D02*
X019600Y015720D01*
X020600Y015720D02*
X020600Y013250D01*
X024560Y014990D02*
X024560Y017550D01*
X030670Y013130D02*
X031150Y013130D01*
D22*
X009600Y020250D03*
M02*
