G75*
%MOIN*%
%OFA0B0*%
%FSLAX24Y24*%
%IPPOS*%
%LPD*%
%AMOC8*
5,1,8,0,0,1.08239X$1,22.5*
%
%ADD10C,0.0100*%
%ADD11C,0.0070*%
%ADD12C,0.0090*%
%ADD13C,0.0060*%
%ADD14C,0.0080*%
%ADD15C,0.0050*%
%ADD16R,0.4200X0.0300*%
%ADD17R,0.0750X0.0200*%
%ADD18R,0.0300X0.0200*%
%ADD19C,0.0020*%
%ADD20C,0.0160*%
D10*
X004353Y009687D02*
X004430Y009610D01*
X004583Y009610D01*
X004660Y009687D01*
X004660Y009840D01*
X004507Y009840D01*
X004660Y009994D02*
X004583Y010070D01*
X004430Y010070D01*
X004353Y009994D01*
X004353Y009687D01*
X004869Y009610D02*
X004869Y010070D01*
X005176Y009610D01*
X005176Y010070D01*
X005384Y010070D02*
X005615Y010070D01*
X005691Y009994D01*
X005691Y009687D01*
X005615Y009610D01*
X005384Y009610D01*
X005384Y010070D01*
X005375Y010600D02*
X005529Y010600D01*
X005606Y010677D01*
X005606Y011060D01*
X005814Y010984D02*
X005814Y010907D01*
X005891Y010830D01*
X006045Y010830D01*
X006121Y010753D01*
X006121Y010677D01*
X006045Y010600D01*
X005891Y010600D01*
X005814Y010677D01*
X005814Y010984D02*
X005891Y011060D01*
X006045Y011060D01*
X006121Y010984D01*
X005299Y011060D02*
X005299Y010677D01*
X005375Y010600D01*
X005090Y010677D02*
X005013Y010600D01*
X004783Y010600D01*
X004783Y011060D01*
X005013Y011060D01*
X005090Y010984D01*
X005090Y010907D01*
X005013Y010830D01*
X004783Y010830D01*
X004574Y010753D02*
X004574Y011060D01*
X004267Y011060D02*
X004267Y010753D01*
X004421Y010600D01*
X004574Y010753D01*
X005013Y010830D02*
X005090Y010753D01*
X005090Y010677D01*
X005106Y011760D02*
X004799Y012220D01*
X004590Y012220D02*
X004283Y012220D01*
X004437Y012220D02*
X004437Y011760D01*
X004799Y011760D02*
X005106Y012220D01*
X005314Y012220D02*
X005545Y012220D01*
X005621Y012144D01*
X005621Y011837D01*
X005545Y011760D01*
X005314Y011760D01*
X005314Y012220D01*
X005314Y012720D02*
X005545Y012720D01*
X005621Y012797D01*
X005621Y013104D01*
X005545Y013180D01*
X005314Y013180D01*
X005314Y012720D01*
X005106Y012720D02*
X004799Y013180D01*
X004590Y013104D02*
X004590Y012950D01*
X004513Y012873D01*
X004283Y012873D01*
X004283Y012720D02*
X004283Y013180D01*
X004513Y013180D01*
X004590Y013104D01*
X004437Y012873D02*
X004590Y012720D01*
X004799Y012720D02*
X005106Y013180D01*
X005084Y013660D02*
X004777Y013660D01*
X004777Y014120D01*
X005084Y014120D01*
X005293Y014044D02*
X005293Y013967D01*
X005370Y013890D01*
X005523Y013890D01*
X005600Y013813D01*
X005600Y013737D01*
X005523Y013660D01*
X005370Y013660D01*
X005293Y013737D01*
X005293Y014044D02*
X005370Y014120D01*
X005523Y014120D01*
X005600Y014044D01*
X005809Y014120D02*
X005809Y013660D01*
X006116Y013660D01*
X005962Y013890D02*
X005809Y013890D01*
X005809Y014120D02*
X006116Y014120D01*
X006324Y014120D02*
X006631Y014120D01*
X006478Y014120D02*
X006478Y013660D01*
X004931Y013890D02*
X004777Y013890D01*
X004569Y013890D02*
X004569Y014044D01*
X004492Y014120D01*
X004262Y014120D01*
X004262Y013660D01*
X004262Y013813D02*
X004492Y013813D01*
X004569Y013890D01*
X004415Y013813D02*
X004569Y013660D01*
X004753Y015080D02*
X004600Y015233D01*
X005060Y015233D01*
X005060Y015080D02*
X005060Y015387D01*
X004983Y015596D02*
X004676Y015903D01*
X004983Y015903D01*
X005060Y015826D01*
X005060Y015672D01*
X004983Y015596D01*
X004676Y015596D01*
X004600Y015672D01*
X004600Y015826D01*
X004676Y015903D01*
X004600Y016111D02*
X005060Y016111D01*
X004907Y016111D02*
X004600Y016418D01*
X004830Y016188D02*
X005060Y016418D01*
X009130Y019080D02*
X009130Y019741D01*
X009363Y019410D02*
X009804Y019410D01*
X010063Y019410D02*
X010503Y019410D01*
X010763Y019410D02*
X010983Y019520D01*
X011093Y019520D01*
X011203Y019410D01*
X011203Y019190D01*
X011093Y019080D01*
X010873Y019080D01*
X010763Y019190D01*
X010763Y019410D02*
X010763Y019741D01*
X011203Y019741D01*
X011463Y019741D02*
X011463Y019300D01*
X011683Y019080D01*
X011903Y019300D01*
X011903Y019741D01*
X012162Y019410D02*
X012603Y019410D01*
X012862Y019410D02*
X013303Y019410D01*
X013562Y019080D02*
X013562Y019741D01*
X016050Y020011D02*
X016050Y019350D01*
X016283Y019680D02*
X016724Y019680D01*
X016983Y019680D02*
X017423Y019680D01*
X017683Y019460D02*
X017793Y019350D01*
X018013Y019350D01*
X018123Y019460D01*
X018123Y019680D01*
X017903Y019680D01*
X017683Y019900D02*
X017683Y019460D01*
X017683Y019900D02*
X017793Y020011D01*
X018013Y020011D01*
X018123Y019900D01*
X018383Y020011D02*
X018823Y019350D01*
X018823Y020011D01*
X019082Y020011D02*
X019413Y020011D01*
X019523Y019900D01*
X019523Y019460D01*
X019413Y019350D01*
X019082Y019350D01*
X019082Y020011D01*
X018383Y020011D02*
X018383Y019350D01*
X019782Y019680D02*
X020223Y019680D01*
X020482Y019680D02*
X020922Y019680D01*
X021182Y020011D02*
X021182Y019350D01*
X025349Y017890D02*
X025349Y017449D01*
X025349Y017669D02*
X026010Y017669D01*
X026010Y017190D02*
X026010Y016749D01*
X025349Y016749D01*
X025349Y017190D01*
X025680Y016970D02*
X025680Y016749D01*
X025790Y016490D02*
X025900Y016490D01*
X026010Y016380D01*
X026010Y016160D01*
X025900Y016050D01*
X025680Y016160D02*
X025680Y016380D01*
X025790Y016490D01*
X025460Y016490D02*
X025349Y016380D01*
X025349Y016160D01*
X025460Y016050D01*
X025570Y016050D01*
X025680Y016160D01*
X026010Y015790D02*
X026010Y015350D01*
X025349Y015350D01*
X025349Y015790D01*
X025680Y015570D02*
X025680Y015350D01*
X025680Y015090D02*
X025460Y015090D01*
X025349Y014980D01*
X025349Y014650D01*
X026010Y014650D01*
X025790Y014650D02*
X025790Y014980D01*
X025680Y015090D01*
X025790Y014870D02*
X026010Y015090D01*
X023560Y012135D02*
X023560Y011828D01*
X024020Y011828D01*
X024020Y011619D02*
X023713Y011619D01*
X023790Y011828D02*
X023790Y011982D01*
X024020Y011619D02*
X024020Y011389D01*
X023943Y011313D01*
X023713Y011313D01*
X023636Y011104D02*
X023943Y010797D01*
X024020Y010874D01*
X024020Y011027D01*
X023943Y011104D01*
X023636Y011104D01*
X023560Y011027D01*
X023560Y010874D01*
X023636Y010797D01*
X023943Y010797D01*
X023943Y010588D02*
X023636Y010588D01*
X023943Y010281D01*
X024020Y010358D01*
X024020Y010511D01*
X023943Y010588D01*
X023636Y010588D02*
X023560Y010511D01*
X023560Y010358D01*
X023636Y010281D01*
X023943Y010281D01*
X023943Y010073D02*
X023636Y010073D01*
X023943Y009766D01*
X024020Y009842D01*
X024020Y009996D01*
X023943Y010073D01*
X023636Y010073D02*
X023560Y009996D01*
X023560Y009842D01*
X023636Y009766D01*
X023943Y009766D01*
X024020Y009557D02*
X024020Y009250D01*
X024020Y009403D02*
X023560Y009403D01*
X023713Y009250D01*
X023660Y007154D02*
X023660Y006847D01*
X024120Y006847D01*
X024120Y006638D02*
X023813Y006638D01*
X023890Y006847D02*
X023890Y007000D01*
X024120Y006638D02*
X024120Y006408D01*
X024043Y006331D01*
X023813Y006331D01*
X023736Y006123D02*
X024043Y005816D01*
X024120Y005892D01*
X024120Y006046D01*
X024043Y006123D01*
X023736Y006123D01*
X023660Y006046D01*
X023660Y005892D01*
X023736Y005816D01*
X024043Y005816D01*
X024120Y005607D02*
X024120Y005300D01*
X024120Y005453D02*
X023660Y005453D01*
X023813Y005300D01*
X026580Y003631D02*
X027020Y003631D01*
X027020Y003520D01*
X026580Y003080D01*
X026580Y002970D01*
X027280Y003080D02*
X027280Y003190D01*
X027390Y003300D01*
X027610Y003300D01*
X027720Y003190D01*
X027720Y003080D01*
X027610Y002970D01*
X027390Y002970D01*
X027280Y003080D01*
X027390Y003300D02*
X027280Y003410D01*
X027280Y003520D01*
X027390Y003631D01*
X027610Y003631D01*
X027720Y003520D01*
X027720Y003410D01*
X027610Y003300D01*
X027980Y003080D02*
X028420Y003520D01*
X028420Y003080D01*
X028310Y002970D01*
X028090Y002970D01*
X027980Y003080D01*
X027980Y003520D01*
X028090Y003631D01*
X028310Y003631D01*
X028420Y003520D01*
X028679Y003631D02*
X028679Y003300D01*
X028900Y003410D01*
X029010Y003410D01*
X029120Y003300D01*
X029120Y003080D01*
X029010Y002970D01*
X028789Y002970D01*
X028679Y003080D01*
X028679Y003631D02*
X029120Y003631D01*
X024551Y001381D02*
X024551Y001270D01*
X024110Y000830D01*
X024110Y000720D01*
X023851Y000720D02*
X023410Y000720D01*
X023631Y000720D02*
X023631Y001381D01*
X023410Y001160D01*
X022931Y001381D02*
X022931Y000720D01*
X022711Y000720D02*
X023151Y000720D01*
X022711Y001160D02*
X022931Y001381D01*
X022231Y001381D02*
X022231Y000720D01*
X022011Y000720D02*
X022451Y000720D01*
X022011Y001160D02*
X022231Y001381D01*
X021751Y001381D02*
X021751Y000720D01*
X021311Y000720D02*
X021311Y001381D01*
X021531Y001160D01*
X021751Y001381D01*
X021052Y000720D02*
X020611Y000720D01*
X020611Y001381D01*
X024110Y001381D02*
X024551Y001381D01*
D11*
X020950Y002785D02*
X020730Y002785D01*
X020730Y002455D01*
X020582Y002510D02*
X020527Y002455D01*
X020362Y002455D01*
X020362Y002345D02*
X020362Y002675D01*
X020527Y002675D01*
X020582Y002620D01*
X020582Y002510D01*
X020730Y002620D02*
X020840Y002620D01*
X020214Y002675D02*
X020214Y002730D01*
X020158Y002785D01*
X020048Y002785D01*
X019993Y002730D01*
X019845Y002730D02*
X019790Y002785D01*
X019680Y002785D01*
X019625Y002730D01*
X019440Y002805D02*
X019220Y002805D01*
X019220Y002475D01*
X019072Y002530D02*
X019072Y002640D01*
X019017Y002695D01*
X018852Y002695D01*
X018852Y002365D01*
X018852Y002475D02*
X019017Y002475D01*
X019072Y002530D01*
X019220Y002640D02*
X019330Y002640D01*
X019625Y002455D02*
X019845Y002675D01*
X019845Y002730D01*
X019845Y002455D02*
X019625Y002455D01*
X019993Y002455D02*
X020214Y002675D01*
X020214Y002455D02*
X019993Y002455D01*
X018704Y002475D02*
X018483Y002475D01*
X018704Y002695D01*
X018704Y002750D01*
X018648Y002805D01*
X018538Y002805D01*
X018483Y002750D01*
X018335Y002750D02*
X018280Y002805D01*
X018170Y002805D01*
X018115Y002750D01*
X018335Y002750D02*
X018335Y002695D01*
X018115Y002475D01*
X018335Y002475D01*
X016857Y004775D02*
X016637Y004775D01*
X016637Y005105D01*
X016489Y004995D02*
X016489Y004775D01*
X016489Y004940D02*
X016268Y004940D01*
X016268Y004995D02*
X016378Y005105D01*
X016489Y004995D01*
X016268Y004995D02*
X016268Y004775D01*
X016010Y004775D02*
X016010Y005105D01*
X015900Y005105D02*
X016120Y005105D01*
X015752Y005050D02*
X015697Y005105D01*
X015587Y005105D01*
X015532Y005050D01*
X015532Y004995D01*
X015587Y004940D01*
X015697Y004940D01*
X015752Y004885D01*
X015752Y004830D01*
X015697Y004775D01*
X015587Y004775D01*
X015532Y004830D01*
X015274Y004775D02*
X015274Y004940D01*
X015384Y005050D01*
X015384Y005105D01*
X015274Y004940D02*
X015163Y005050D01*
X015163Y005105D01*
X015015Y005050D02*
X015015Y004940D01*
X014960Y004885D01*
X014795Y004885D01*
X014795Y004775D02*
X014795Y005105D01*
X014960Y005105D01*
X015015Y005050D01*
X014905Y004885D02*
X015015Y004775D01*
X014647Y004830D02*
X014592Y004775D01*
X014482Y004775D01*
X014427Y004830D01*
X014427Y005050D01*
X014482Y005105D01*
X014592Y005105D01*
X014647Y005050D01*
X014694Y008085D02*
X014694Y008372D01*
X014909Y008372D01*
X014981Y008300D01*
X014981Y008085D01*
X015155Y008085D02*
X015155Y008515D01*
X015442Y008515D01*
X015298Y008300D02*
X015155Y008300D01*
X014521Y008157D02*
X014449Y008085D01*
X014306Y008085D01*
X014234Y008157D01*
X014521Y008444D01*
X014521Y008157D01*
X014234Y008157D02*
X014234Y008444D01*
X014306Y008515D01*
X014449Y008515D01*
X014521Y008444D01*
X014060Y008444D02*
X014060Y008157D01*
X013989Y008085D01*
X013845Y008085D01*
X013773Y008157D01*
X014060Y008444D01*
X013989Y008515D01*
X013845Y008515D01*
X013773Y008444D01*
X013773Y008157D01*
X013600Y008085D02*
X013313Y008085D01*
X013456Y008085D02*
X013456Y008515D01*
X013313Y008372D01*
D12*
X017325Y005728D02*
X017325Y005347D01*
X017610Y005347D01*
X017515Y005537D01*
X017515Y005633D01*
X017610Y005728D01*
X017800Y005728D01*
X017895Y005633D01*
X017895Y005442D01*
X017800Y005347D01*
X017800Y005120D02*
X017420Y005120D01*
X017325Y005025D01*
X017325Y004740D01*
X017895Y004740D01*
X017895Y005025D01*
X017800Y005120D01*
X018355Y005010D02*
X018355Y004725D01*
X018925Y004725D01*
X018925Y005010D01*
X018830Y005105D01*
X018450Y005105D01*
X018355Y005010D01*
X018640Y005333D02*
X018640Y005618D01*
X018735Y005713D01*
X018830Y005713D01*
X018925Y005618D01*
X018925Y005428D01*
X018830Y005333D01*
X018640Y005333D01*
X018450Y005523D01*
X018355Y005713D01*
X019525Y005683D02*
X019525Y005303D01*
X019620Y005075D02*
X019525Y004980D01*
X019525Y004695D01*
X020095Y004695D01*
X020095Y004980D01*
X020000Y005075D01*
X019620Y005075D01*
X020000Y005303D02*
X020095Y005303D01*
X020000Y005303D02*
X019620Y005683D01*
X019525Y005683D01*
X020455Y005588D02*
X020455Y005398D01*
X020550Y005303D01*
X020645Y005303D01*
X020740Y005398D01*
X020740Y005588D01*
X020835Y005683D01*
X020930Y005683D01*
X021025Y005588D01*
X021025Y005398D01*
X020930Y005303D01*
X020835Y005303D01*
X020740Y005398D01*
X020740Y005588D02*
X020645Y005683D01*
X020550Y005683D01*
X020455Y005588D01*
X020550Y005075D02*
X020455Y004980D01*
X020455Y004695D01*
X021025Y004695D01*
X021025Y004980D01*
X020930Y005075D01*
X020550Y005075D01*
X021798Y008835D02*
X021594Y009039D01*
X021798Y009242D01*
X022205Y009242D01*
X021900Y009242D02*
X021900Y008835D01*
X021798Y008835D02*
X022205Y008835D01*
X022001Y009480D02*
X021594Y009480D01*
X022001Y009480D02*
X022205Y009683D01*
X022001Y009887D01*
X021594Y009887D01*
X021594Y010124D02*
X021594Y010429D01*
X021696Y010531D01*
X021900Y010531D01*
X022001Y010429D01*
X022001Y010124D01*
X022001Y010328D02*
X022205Y010531D01*
X022205Y010124D02*
X021594Y010124D01*
X021696Y011413D02*
X021594Y011515D01*
X021594Y011718D01*
X021696Y011820D01*
X021798Y011820D01*
X022205Y011413D01*
X022205Y011820D01*
X022103Y012058D02*
X022001Y012058D01*
X021900Y012160D01*
X021900Y012363D01*
X022001Y012465D01*
X022103Y012465D01*
X022205Y012363D01*
X022205Y012160D01*
X022103Y012058D01*
X021900Y012160D02*
X021798Y012058D01*
X021696Y012058D01*
X021594Y012160D01*
X021594Y012363D01*
X021696Y012465D01*
X021798Y012465D01*
X021900Y012363D01*
X022001Y012702D02*
X022001Y013008D01*
X021900Y013109D01*
X021696Y013109D01*
X021594Y013008D01*
X021594Y012702D01*
X022205Y012702D01*
X022205Y013347D02*
X022205Y013550D01*
X022205Y013449D02*
X021594Y013449D01*
X021594Y013550D02*
X021594Y013347D01*
X021594Y013777D02*
X022205Y014184D01*
X021594Y014184D01*
X021594Y013777D02*
X022205Y013777D01*
X019835Y016425D02*
X019265Y016425D01*
X019265Y016710D01*
X019360Y016805D01*
X019740Y016805D01*
X019835Y016710D01*
X019835Y016425D01*
X020284Y016565D02*
X020284Y016870D01*
X020386Y016972D01*
X020793Y016972D01*
X020895Y016870D01*
X020895Y016565D01*
X020284Y016565D01*
X019835Y017033D02*
X019835Y017413D01*
X019835Y017223D02*
X019265Y017223D01*
X019455Y017033D01*
X018875Y017093D02*
X018875Y017473D01*
X018875Y017283D02*
X018305Y017283D01*
X018495Y017093D01*
X017865Y017023D02*
X017865Y017403D01*
X017865Y017213D02*
X017295Y017213D01*
X017485Y017023D01*
X017390Y016795D02*
X017295Y016700D01*
X017295Y016415D01*
X017865Y016415D01*
X017865Y016700D01*
X017770Y016795D01*
X017390Y016795D01*
X016855Y016700D02*
X016760Y016795D01*
X016380Y016795D01*
X016285Y016700D01*
X016285Y016415D01*
X016855Y016415D01*
X016855Y016700D01*
X016855Y017023D02*
X016855Y017403D01*
X016855Y017213D02*
X016285Y017213D01*
X016475Y017023D01*
X016380Y017630D02*
X016285Y017726D01*
X016285Y017916D01*
X016380Y018011D01*
X016475Y018011D01*
X016570Y017916D01*
X016665Y018011D01*
X016760Y018011D01*
X016855Y017916D01*
X016855Y017726D01*
X016760Y017630D01*
X016570Y017821D02*
X016570Y017916D01*
X017295Y017916D02*
X017295Y017726D01*
X017390Y017630D01*
X017295Y017916D02*
X017390Y018011D01*
X017485Y018011D01*
X017865Y017630D01*
X017865Y018011D01*
X018305Y017891D02*
X018875Y017891D01*
X018875Y018081D02*
X018875Y017700D01*
X019265Y017736D02*
X019265Y017926D01*
X019360Y018021D01*
X019740Y017640D01*
X019835Y017736D01*
X019835Y017926D01*
X019740Y018021D01*
X019360Y018021D01*
X019265Y017736D02*
X019360Y017640D01*
X019740Y017640D01*
X020284Y017515D02*
X020284Y017311D01*
X020386Y017210D01*
X020488Y017210D01*
X020590Y017311D01*
X020590Y017617D01*
X020793Y017617D02*
X020386Y017617D01*
X020284Y017515D01*
X020793Y017617D02*
X020895Y017515D01*
X020895Y017311D01*
X020793Y017210D01*
X018875Y016770D02*
X018875Y016485D01*
X018305Y016485D01*
X018305Y016770D01*
X018400Y016865D01*
X018780Y016865D01*
X018875Y016770D01*
X018495Y017700D02*
X018305Y017891D01*
X014925Y017991D02*
X014925Y017584D01*
X014314Y017584D01*
X014314Y017991D01*
X014314Y018229D02*
X014314Y018636D01*
X014620Y018432D02*
X014620Y018229D01*
X014925Y018229D02*
X014314Y018229D01*
X014620Y017788D02*
X014620Y017584D01*
X014620Y017347D02*
X014416Y017347D01*
X014314Y017245D01*
X014314Y016940D01*
X014925Y016940D01*
X014721Y016940D02*
X014721Y017245D01*
X014620Y017347D01*
X014721Y017143D02*
X014925Y017347D01*
X014925Y016702D02*
X014518Y016702D01*
X014314Y016499D01*
X014518Y016295D01*
X014925Y016295D01*
X014620Y016295D02*
X014620Y016702D01*
X012825Y016655D02*
X012418Y016655D01*
X012214Y016859D01*
X012418Y017062D01*
X012825Y017062D01*
X012520Y017062D02*
X012520Y016655D01*
X011815Y016685D02*
X011408Y016685D01*
X011204Y016889D01*
X011408Y017092D01*
X011815Y017092D01*
X011815Y017330D02*
X011815Y017737D01*
X011815Y017533D02*
X011204Y017533D01*
X011408Y017330D01*
X011510Y017092D02*
X011510Y016685D01*
X010815Y016605D02*
X010408Y016605D01*
X010204Y016809D01*
X010408Y017012D01*
X010815Y017012D01*
X010815Y017250D02*
X010408Y017657D01*
X010306Y017657D01*
X010204Y017555D01*
X010204Y017351D01*
X010306Y017250D01*
X010510Y017012D02*
X010510Y016605D01*
X009905Y016645D02*
X009498Y016645D01*
X009294Y016849D01*
X009498Y017052D01*
X009905Y017052D01*
X009803Y017290D02*
X009905Y017391D01*
X009905Y017595D01*
X009803Y017697D01*
X009701Y017697D01*
X009600Y017595D01*
X009600Y017493D01*
X009600Y017595D02*
X009498Y017697D01*
X009396Y017697D01*
X009294Y017595D01*
X009294Y017391D01*
X009396Y017290D01*
X009600Y017052D02*
X009600Y016645D01*
X008925Y016725D02*
X008518Y016725D01*
X008314Y016929D01*
X008518Y017132D01*
X008925Y017132D01*
X008620Y017132D02*
X008620Y016725D01*
X007905Y016585D02*
X007498Y016585D01*
X007294Y016789D01*
X007498Y016992D01*
X007905Y016992D01*
X007803Y017230D02*
X007905Y017331D01*
X007905Y017535D01*
X007803Y017637D01*
X007600Y017637D01*
X007498Y017535D01*
X007498Y017433D01*
X007600Y017230D01*
X007294Y017230D01*
X007294Y017637D01*
X007600Y016992D02*
X007600Y016585D01*
X008620Y017370D02*
X008620Y017777D01*
X008925Y017675D02*
X008314Y017675D01*
X008620Y017370D01*
X008249Y018745D02*
X007842Y018745D01*
X007842Y019356D01*
X007605Y019356D02*
X007198Y019356D01*
X007198Y018745D01*
X007605Y018745D01*
X007401Y019050D02*
X007198Y019050D01*
X006960Y018949D02*
X006960Y018847D01*
X006858Y018745D01*
X006655Y018745D01*
X006553Y018847D01*
X006655Y019050D02*
X006858Y019050D01*
X006960Y018949D01*
X006655Y019050D02*
X006553Y019152D01*
X006553Y019254D01*
X006655Y019356D01*
X006858Y019356D01*
X006960Y019254D01*
X006316Y018643D02*
X005909Y018643D01*
X005671Y018847D02*
X005569Y018745D01*
X005366Y018745D01*
X005264Y018847D01*
X005264Y019254D01*
X005366Y019356D01*
X005569Y019356D01*
X005671Y019254D01*
X005027Y019254D02*
X004925Y019356D01*
X004721Y019356D01*
X004620Y019254D01*
X004620Y018847D01*
X004721Y018745D01*
X004925Y018745D01*
X005027Y018847D01*
X004382Y018949D02*
X004382Y019356D01*
X003975Y019356D02*
X003975Y018949D01*
X004179Y018745D01*
X004382Y018949D01*
X010815Y017657D02*
X010815Y017250D01*
X012214Y017401D02*
X012214Y017605D01*
X012316Y017707D01*
X012723Y017300D01*
X012825Y017401D01*
X012825Y017605D01*
X012723Y017707D01*
X012316Y017707D01*
X012214Y017401D02*
X012316Y017300D01*
X012723Y017300D01*
X006195Y009165D02*
X006195Y008785D01*
X006004Y008595D01*
X005814Y008785D01*
X005814Y009165D01*
X005587Y009070D02*
X005587Y008975D01*
X005492Y008880D01*
X005587Y008785D01*
X005587Y008690D01*
X005492Y008595D01*
X005302Y008595D01*
X005207Y008690D01*
X004998Y008690D02*
X004998Y008595D01*
X004903Y008595D01*
X004903Y008690D01*
X004998Y008690D01*
X004675Y008690D02*
X004580Y008595D01*
X004390Y008595D01*
X004295Y008690D01*
X004485Y008880D02*
X004580Y008880D01*
X004675Y008785D01*
X004675Y008690D01*
X004580Y008880D02*
X004675Y008975D01*
X004675Y009070D01*
X004580Y009165D01*
X004390Y009165D01*
X004295Y009070D01*
X005207Y009070D02*
X005302Y009165D01*
X005492Y009165D01*
X005587Y009070D01*
X005492Y008880D02*
X005397Y008880D01*
X008470Y005621D02*
X008375Y005526D01*
X008375Y005240D01*
X008945Y005240D01*
X008945Y005526D01*
X008850Y005621D01*
X008470Y005621D01*
X008375Y005013D02*
X008945Y004633D01*
X008945Y004405D02*
X008755Y004215D01*
X008755Y004310D02*
X008755Y004025D01*
X008945Y004025D02*
X008375Y004025D01*
X008375Y004310D01*
X008470Y004405D01*
X008660Y004405D01*
X008755Y004310D01*
X008375Y004633D02*
X008945Y005013D01*
X009435Y005013D02*
X010005Y004633D01*
X010345Y004585D02*
X010345Y004870D01*
X010440Y004965D01*
X010820Y004965D01*
X010915Y004870D01*
X010915Y004585D01*
X010345Y004585D01*
X010005Y004215D02*
X009435Y004215D01*
X009435Y004025D02*
X009435Y004405D01*
X009435Y004633D02*
X010005Y005013D01*
X010005Y005240D02*
X009435Y005240D01*
X009435Y005526D01*
X009530Y005621D01*
X009910Y005621D01*
X010005Y005526D01*
X010005Y005240D01*
X010345Y005288D02*
X010440Y005193D01*
X010345Y005288D02*
X010345Y005478D01*
X010440Y005573D01*
X010535Y005573D01*
X010915Y005193D01*
X010915Y005573D01*
X011375Y005448D02*
X011470Y005543D01*
X011565Y005543D01*
X011660Y005448D01*
X011755Y005543D01*
X011850Y005543D01*
X011945Y005448D01*
X011945Y005258D01*
X011850Y005163D01*
X011850Y004935D02*
X011470Y004935D01*
X011375Y004840D01*
X011375Y004555D01*
X011945Y004555D01*
X011945Y004840D01*
X011850Y004935D01*
X011470Y005163D02*
X011375Y005258D01*
X011375Y005448D01*
X011660Y005448D02*
X011660Y005353D01*
X012395Y005478D02*
X012680Y005193D01*
X012680Y005573D01*
X012965Y005478D02*
X012395Y005478D01*
X012490Y004965D02*
X012395Y004870D01*
X012395Y004585D01*
X012965Y004585D01*
X012965Y004870D01*
X012870Y004965D01*
X012490Y004965D01*
X006945Y004375D02*
X006334Y004375D01*
X006334Y003968D02*
X006945Y004375D01*
X006945Y003968D02*
X006334Y003968D01*
X006334Y003742D02*
X006334Y003539D01*
X006334Y003640D02*
X006945Y003640D01*
X006945Y003539D02*
X006945Y003742D01*
X007047Y003301D02*
X007047Y002894D01*
X006843Y002657D02*
X006945Y002555D01*
X006945Y002351D01*
X006843Y002250D01*
X006436Y002250D01*
X006334Y002351D01*
X006334Y002555D01*
X006436Y002657D01*
X006436Y002012D02*
X006334Y001910D01*
X006334Y001605D01*
X006945Y001605D01*
X006945Y001910D01*
X006843Y002012D01*
X006436Y002012D01*
X009645Y001115D02*
X009645Y000545D01*
X009930Y000545D01*
X010025Y000640D01*
X010025Y001020D01*
X009930Y001115D01*
X009645Y001115D01*
X010253Y001020D02*
X010253Y000640D01*
X010348Y000545D01*
X010538Y000545D01*
X010633Y000640D01*
X010860Y000450D02*
X011241Y000450D01*
X011468Y000545D02*
X011658Y000545D01*
X011563Y000545D02*
X011563Y001115D01*
X011468Y001115D02*
X011658Y001115D01*
X011873Y001115D02*
X012254Y000545D01*
X012254Y001115D01*
X011873Y001115D02*
X011873Y000545D01*
X010633Y001020D02*
X010538Y001115D01*
X010348Y001115D01*
X010253Y001020D01*
X014895Y001115D02*
X014895Y000545D01*
X015098Y000830D02*
X015478Y000830D01*
X015705Y000830D02*
X016086Y000830D01*
X016313Y000640D02*
X016408Y000545D01*
X016598Y000545D01*
X016693Y000640D01*
X016693Y000735D01*
X016598Y000830D01*
X016503Y000830D01*
X016598Y000830D02*
X016693Y000925D01*
X016693Y001020D01*
X016598Y001115D01*
X016408Y001115D01*
X016313Y001020D01*
X016921Y000640D02*
X016921Y000545D01*
X017016Y000545D01*
X017016Y000640D01*
X016921Y000640D01*
X017225Y000640D02*
X017320Y000545D01*
X017510Y000545D01*
X017605Y000640D01*
X017605Y000735D01*
X017510Y000830D01*
X017415Y000830D01*
X017510Y000830D02*
X017605Y000925D01*
X017605Y001020D01*
X017510Y001115D01*
X017320Y001115D01*
X017225Y001020D01*
X017832Y001115D02*
X017832Y000735D01*
X018022Y000545D01*
X018213Y000735D01*
X018213Y001115D01*
X018440Y000830D02*
X018820Y000830D01*
X019048Y000830D02*
X019428Y000830D01*
X019655Y001115D02*
X019655Y000545D01*
X032294Y008855D02*
X032294Y009059D01*
X032294Y008957D02*
X032905Y008957D01*
X032905Y008855D02*
X032905Y009059D01*
X032803Y009285D02*
X032905Y009386D01*
X032905Y009590D01*
X032803Y009692D01*
X032701Y009692D01*
X032600Y009590D01*
X032600Y009386D01*
X032498Y009285D01*
X032396Y009285D01*
X032294Y009386D01*
X032294Y009590D01*
X032396Y009692D01*
X032294Y009929D02*
X032294Y010235D01*
X032396Y010336D01*
X032600Y010336D01*
X032701Y010235D01*
X032701Y009929D01*
X032905Y009929D02*
X032294Y009929D01*
X032396Y011218D02*
X032294Y011320D01*
X032294Y011524D01*
X032396Y011625D01*
X032396Y011863D02*
X032294Y011965D01*
X032294Y012168D01*
X032396Y012270D01*
X032803Y012270D01*
X032905Y012168D01*
X032905Y011965D01*
X032803Y011863D01*
X032396Y011863D01*
X032803Y011625D02*
X032905Y011524D01*
X032905Y011320D01*
X032803Y011218D01*
X032396Y011218D01*
X032294Y012507D02*
X032905Y012914D01*
X032294Y012914D01*
X032294Y012507D02*
X032905Y012507D01*
D13*
X024870Y015420D02*
X024870Y015770D01*
X024870Y016720D01*
X024870Y017120D01*
X024070Y017470D02*
X023970Y017470D01*
X023970Y017570D01*
X023370Y017570D01*
X023370Y017470D01*
X023270Y017470D01*
X022470Y017120D02*
X022470Y016770D01*
X022470Y015770D01*
X022470Y015420D01*
X023270Y015070D02*
X023370Y015070D01*
X023370Y014970D01*
X023970Y014970D01*
X023970Y015070D01*
X024070Y015070D01*
X023570Y016270D02*
X023572Y016290D01*
X023578Y016308D01*
X023587Y016326D01*
X023599Y016341D01*
X023614Y016353D01*
X023632Y016362D01*
X023650Y016368D01*
X023670Y016370D01*
X023690Y016368D01*
X023708Y016362D01*
X023726Y016353D01*
X023741Y016341D01*
X023753Y016326D01*
X023762Y016308D01*
X023768Y016290D01*
X023770Y016270D01*
X023768Y016250D01*
X023762Y016232D01*
X023753Y016214D01*
X023741Y016199D01*
X023726Y016187D01*
X023708Y016178D01*
X023690Y016172D01*
X023670Y016170D01*
X023650Y016172D01*
X023632Y016178D01*
X023614Y016187D01*
X023599Y016199D01*
X023587Y016214D01*
X023578Y016232D01*
X023572Y016250D01*
X023570Y016270D01*
X022970Y016270D02*
X022972Y016322D01*
X022978Y016374D01*
X022988Y016426D01*
X023001Y016476D01*
X023018Y016526D01*
X023039Y016574D01*
X023064Y016620D01*
X023092Y016664D01*
X023123Y016706D01*
X023157Y016746D01*
X023194Y016783D01*
X023234Y016817D01*
X023276Y016848D01*
X023320Y016876D01*
X023366Y016901D01*
X023414Y016922D01*
X023464Y016939D01*
X023514Y016952D01*
X023566Y016962D01*
X023618Y016968D01*
X023670Y016970D01*
X023722Y016968D01*
X023774Y016962D01*
X023826Y016952D01*
X023876Y016939D01*
X023926Y016922D01*
X023974Y016901D01*
X024020Y016876D01*
X024064Y016848D01*
X024106Y016817D01*
X024146Y016783D01*
X024183Y016746D01*
X024217Y016706D01*
X024248Y016664D01*
X024276Y016620D01*
X024301Y016574D01*
X024322Y016526D01*
X024339Y016476D01*
X024352Y016426D01*
X024362Y016374D01*
X024368Y016322D01*
X024370Y016270D01*
X024368Y016218D01*
X024362Y016166D01*
X024352Y016114D01*
X024339Y016064D01*
X024322Y016014D01*
X024301Y015966D01*
X024276Y015920D01*
X024248Y015876D01*
X024217Y015834D01*
X024183Y015794D01*
X024146Y015757D01*
X024106Y015723D01*
X024064Y015692D01*
X024020Y015664D01*
X023974Y015639D01*
X023926Y015618D01*
X023876Y015601D01*
X023826Y015588D01*
X023774Y015578D01*
X023722Y015572D01*
X023670Y015570D01*
X023618Y015572D01*
X023566Y015578D01*
X023514Y015588D01*
X023464Y015601D01*
X023414Y015618D01*
X023366Y015639D01*
X023320Y015664D01*
X023276Y015692D01*
X023234Y015723D01*
X023194Y015757D01*
X023157Y015794D01*
X023123Y015834D01*
X023092Y015876D01*
X023064Y015920D01*
X023039Y015966D01*
X023018Y016014D01*
X023001Y016064D01*
X022988Y016114D01*
X022978Y016166D01*
X022972Y016218D01*
X022970Y016270D01*
X021100Y015970D02*
X021100Y015470D01*
X020850Y015220D01*
X020350Y015220D01*
X020100Y015470D01*
X019850Y015220D01*
X019350Y015220D01*
X019100Y015470D01*
X018850Y015220D01*
X018350Y015220D01*
X018100Y015470D01*
X017850Y015220D01*
X017350Y015220D01*
X017100Y015470D01*
X016850Y015220D01*
X016350Y015220D01*
X016100Y015470D01*
X016100Y015970D01*
X016350Y016220D01*
X016850Y016220D01*
X017100Y015970D01*
X017350Y016220D01*
X017850Y016220D01*
X018100Y015970D01*
X018100Y015470D01*
X018423Y015145D02*
X018506Y015145D01*
X018590Y015061D01*
X018673Y015145D01*
X018757Y015145D01*
X018840Y015061D01*
X018840Y014895D01*
X018757Y014811D01*
X018757Y014629D02*
X018840Y014546D01*
X018840Y014296D01*
X018340Y014296D01*
X018340Y014546D01*
X018423Y014629D01*
X018506Y014629D01*
X018590Y014546D01*
X018590Y014296D01*
X018590Y014114D02*
X018423Y014114D01*
X018340Y014030D01*
X018340Y013780D01*
X018840Y013780D01*
X018673Y013780D02*
X018673Y014030D01*
X018590Y014114D01*
X018590Y014546D02*
X018673Y014629D01*
X018757Y014629D01*
X018423Y014811D02*
X018340Y014895D01*
X018340Y015061D01*
X018423Y015145D01*
X018590Y015061D02*
X018590Y014978D01*
X017890Y015021D02*
X017390Y015021D01*
X017640Y014771D01*
X017640Y015105D01*
X017723Y014589D02*
X017807Y014589D01*
X017890Y014506D01*
X017890Y014256D01*
X017390Y014256D01*
X017390Y014506D01*
X017473Y014589D01*
X017556Y014589D01*
X017640Y014506D01*
X017640Y014256D01*
X017640Y014074D02*
X017473Y014074D01*
X017390Y013990D01*
X017390Y013740D01*
X017890Y013740D01*
X017723Y013740D02*
X017723Y013990D01*
X017640Y014074D01*
X017640Y014506D02*
X017723Y014589D01*
X016840Y014576D02*
X016840Y014326D01*
X016340Y014326D01*
X016340Y014576D01*
X016423Y014659D01*
X016506Y014659D01*
X016590Y014576D01*
X016590Y014326D01*
X016590Y014144D02*
X016673Y014060D01*
X016673Y013810D01*
X016840Y013810D02*
X016340Y013810D01*
X016340Y014060D01*
X016423Y014144D01*
X016590Y014144D01*
X016590Y014576D02*
X016673Y014659D01*
X016757Y014659D01*
X016840Y014576D01*
X016757Y014841D02*
X016840Y014925D01*
X016840Y015091D01*
X016757Y015175D01*
X016590Y015175D01*
X016506Y015091D01*
X016506Y015008D01*
X016590Y014841D01*
X016340Y014841D01*
X016340Y015175D01*
X017100Y015470D02*
X017100Y015970D01*
X018100Y015970D02*
X018350Y016220D01*
X018850Y016220D01*
X019100Y015970D01*
X019350Y016220D01*
X019850Y016220D01*
X020100Y015970D01*
X020350Y016220D01*
X020850Y016220D01*
X021100Y015970D01*
X020100Y015970D02*
X020100Y015470D01*
X019800Y015075D02*
X019800Y014741D01*
X019466Y015075D01*
X019383Y015075D01*
X019300Y014991D01*
X019300Y014825D01*
X019383Y014741D01*
X019383Y014559D02*
X019466Y014559D01*
X019550Y014476D01*
X019550Y014226D01*
X019550Y014044D02*
X019383Y014044D01*
X019300Y013960D01*
X019300Y013710D01*
X019800Y013710D01*
X019633Y013710D02*
X019633Y013960D01*
X019550Y014044D01*
X019800Y014226D02*
X019300Y014226D01*
X019300Y014476D01*
X019383Y014559D01*
X019550Y014476D02*
X019633Y014559D01*
X019717Y014559D01*
X019800Y014476D01*
X019800Y014226D01*
X020320Y014326D02*
X020320Y014576D01*
X020403Y014659D01*
X020486Y014659D01*
X020570Y014576D01*
X020570Y014326D01*
X020570Y014144D02*
X020653Y014060D01*
X020653Y013810D01*
X020820Y013810D02*
X020320Y013810D01*
X020320Y014060D01*
X020403Y014144D01*
X020570Y014144D01*
X020820Y014326D02*
X020820Y014576D01*
X020737Y014659D01*
X020653Y014659D01*
X020570Y014576D01*
X020486Y014841D02*
X020320Y015008D01*
X020820Y015008D01*
X020820Y014841D02*
X020820Y015175D01*
X020820Y014326D02*
X020320Y014326D01*
X021100Y012900D02*
X021100Y009600D01*
X007100Y009600D01*
X007100Y010850D01*
X007139Y010852D01*
X007178Y010858D01*
X007216Y010867D01*
X007253Y010880D01*
X007289Y010897D01*
X007322Y010917D01*
X007354Y010941D01*
X007383Y010967D01*
X007409Y010996D01*
X007433Y011028D01*
X007453Y011061D01*
X007470Y011097D01*
X007483Y011134D01*
X007492Y011172D01*
X007498Y011211D01*
X007500Y011250D01*
X007498Y011289D01*
X007492Y011328D01*
X007483Y011366D01*
X007470Y011403D01*
X007453Y011439D01*
X007433Y011472D01*
X007409Y011504D01*
X007383Y011533D01*
X007354Y011559D01*
X007322Y011583D01*
X007289Y011603D01*
X007253Y011620D01*
X007216Y011633D01*
X007178Y011642D01*
X007139Y011648D01*
X007100Y011650D01*
X007100Y012900D01*
X021100Y012900D01*
X019100Y015470D02*
X019100Y015970D01*
X019310Y018190D02*
X019810Y018190D01*
X020060Y018440D01*
X020310Y018190D01*
X020810Y018190D01*
X021060Y018440D01*
X021060Y018940D01*
X020810Y019190D01*
X020310Y019190D01*
X020060Y018940D01*
X020060Y018440D01*
X020060Y018940D02*
X019810Y019190D01*
X019310Y019190D01*
X019060Y018940D01*
X019060Y018440D01*
X019310Y018190D01*
X019060Y018440D02*
X018810Y018190D01*
X018310Y018190D01*
X018060Y018440D01*
X017810Y018190D01*
X017310Y018190D01*
X017060Y018440D01*
X016810Y018190D01*
X016310Y018190D01*
X016060Y018440D01*
X016060Y018940D01*
X016310Y019190D01*
X016810Y019190D01*
X017060Y018940D01*
X017310Y019190D01*
X017810Y019190D01*
X018060Y018940D01*
X018060Y018440D01*
X018060Y018940D02*
X018310Y019190D01*
X018810Y019190D01*
X019060Y018940D01*
X017060Y018940D02*
X017060Y018440D01*
X013770Y018650D02*
X013770Y018150D01*
X013520Y017900D01*
X013020Y017900D01*
X012770Y018150D01*
X012520Y017900D01*
X012020Y017900D01*
X011770Y018150D01*
X011520Y017900D01*
X011020Y017900D01*
X010770Y018150D01*
X010520Y017900D01*
X010020Y017900D01*
X009770Y018150D01*
X009520Y017900D01*
X009020Y017900D01*
X008770Y018150D01*
X008770Y018650D01*
X009020Y018900D01*
X009520Y018900D01*
X009770Y018650D01*
X010020Y018900D01*
X010520Y018900D01*
X010770Y018650D01*
X010770Y018150D01*
X010770Y018650D02*
X011020Y018900D01*
X011520Y018900D01*
X011770Y018650D01*
X012020Y018900D01*
X012520Y018900D01*
X012770Y018650D01*
X013020Y018900D01*
X013520Y018900D01*
X013770Y018650D01*
X012770Y018650D02*
X012770Y018150D01*
X011770Y018150D02*
X011770Y018650D01*
X009770Y018650D02*
X009770Y018150D01*
X007180Y018090D02*
X007180Y017590D01*
X006930Y017340D01*
X006430Y017340D01*
X006180Y017590D01*
X005930Y017340D01*
X005430Y017340D01*
X005180Y017590D01*
X004930Y017340D01*
X004430Y017340D01*
X004180Y017590D01*
X004180Y018090D01*
X004430Y018340D01*
X004930Y018340D01*
X005180Y018090D01*
X005430Y018340D01*
X005930Y018340D01*
X006180Y018090D01*
X006430Y018340D01*
X006930Y018340D01*
X007180Y018090D01*
X006180Y018090D02*
X006180Y017590D01*
X005180Y017590D02*
X005180Y018090D01*
X007100Y016110D02*
X007350Y016360D01*
X007850Y016360D01*
X008100Y016110D01*
X008350Y016360D01*
X008850Y016360D01*
X009100Y016110D01*
X009100Y015610D01*
X008850Y015360D01*
X008350Y015360D01*
X008100Y015610D01*
X007850Y015360D01*
X007350Y015360D01*
X007100Y015610D01*
X007100Y016110D01*
X008100Y016110D02*
X008100Y015610D01*
X007777Y015245D02*
X007610Y015245D01*
X007526Y015161D01*
X007526Y015078D01*
X007610Y014911D01*
X007360Y014911D01*
X007360Y015245D01*
X007777Y015245D02*
X007860Y015161D01*
X007860Y014995D01*
X007777Y014911D01*
X007777Y014729D02*
X007860Y014646D01*
X007860Y014479D01*
X007777Y014396D01*
X007443Y014396D01*
X007360Y014479D01*
X007360Y014646D01*
X007443Y014729D01*
X007443Y014214D02*
X007610Y014214D01*
X007693Y014130D01*
X007693Y013880D01*
X007860Y013880D02*
X007360Y013880D01*
X007360Y014130D01*
X007443Y014214D01*
X008350Y014100D02*
X008350Y013850D01*
X008850Y013850D01*
X008683Y013850D02*
X008683Y014100D01*
X008600Y014184D01*
X008433Y014184D01*
X008350Y014100D01*
X008433Y014366D02*
X008350Y014449D01*
X008350Y014616D01*
X008433Y014699D01*
X008600Y014881D02*
X008600Y015215D01*
X008850Y015131D02*
X008350Y015131D01*
X008600Y014881D01*
X008767Y014699D02*
X008850Y014616D01*
X008850Y014449D01*
X008767Y014366D01*
X008433Y014366D01*
X009330Y014409D02*
X009413Y014326D01*
X009747Y014326D01*
X009830Y014409D01*
X009830Y014576D01*
X009747Y014659D01*
X009747Y014841D02*
X009830Y014925D01*
X009830Y015091D01*
X009747Y015175D01*
X009663Y015175D01*
X009580Y015091D01*
X009580Y015008D01*
X009580Y015091D02*
X009496Y015175D01*
X009413Y015175D01*
X009330Y015091D01*
X009330Y014925D01*
X009413Y014841D01*
X009413Y014659D02*
X009330Y014576D01*
X009330Y014409D01*
X009413Y014144D02*
X009580Y014144D01*
X009663Y014060D01*
X009663Y013810D01*
X009830Y013810D02*
X009330Y013810D01*
X009330Y014060D01*
X009413Y014144D01*
X010350Y014060D02*
X010350Y013810D01*
X010850Y013810D01*
X010683Y013810D02*
X010683Y014060D01*
X010600Y014144D01*
X010433Y014144D01*
X010350Y014060D01*
X010433Y014326D02*
X010767Y014326D01*
X010850Y014409D01*
X010850Y014576D01*
X010767Y014659D01*
X010850Y014841D02*
X010516Y015175D01*
X010433Y015175D01*
X010350Y015091D01*
X010350Y014925D01*
X010433Y014841D01*
X010433Y014659D02*
X010350Y014576D01*
X010350Y014409D01*
X010433Y014326D01*
X011310Y014409D02*
X011310Y014576D01*
X011393Y014659D01*
X011476Y014841D02*
X011310Y015008D01*
X011810Y015008D01*
X011810Y014841D02*
X011810Y015175D01*
X011850Y015360D02*
X011350Y015360D01*
X011100Y015610D01*
X010850Y015360D01*
X010350Y015360D01*
X010100Y015610D01*
X009850Y015360D01*
X009350Y015360D01*
X009100Y015610D01*
X009100Y016110D02*
X009350Y016360D01*
X009850Y016360D01*
X010100Y016110D01*
X010350Y016360D01*
X010850Y016360D01*
X011100Y016110D01*
X011350Y016360D01*
X011850Y016360D01*
X012100Y016110D01*
X012350Y016360D01*
X012850Y016360D01*
X013100Y016110D01*
X013100Y015610D01*
X012850Y015360D01*
X012350Y015360D01*
X012100Y015610D01*
X011850Y015360D01*
X012330Y015091D02*
X012413Y015175D01*
X012747Y014841D01*
X012830Y014925D01*
X012830Y015091D01*
X012747Y015175D01*
X012413Y015175D01*
X012330Y015091D02*
X012330Y014925D01*
X012413Y014841D01*
X012747Y014841D01*
X012747Y014659D02*
X012830Y014576D01*
X012830Y014409D01*
X012747Y014326D01*
X012413Y014326D01*
X012330Y014409D01*
X012330Y014576D01*
X012413Y014659D01*
X011810Y014576D02*
X011810Y014409D01*
X011727Y014326D01*
X011393Y014326D01*
X011310Y014409D01*
X011393Y014144D02*
X011560Y014144D01*
X011643Y014060D01*
X011643Y013810D01*
X011810Y013810D02*
X011310Y013810D01*
X011310Y014060D01*
X011393Y014144D01*
X011810Y014576D02*
X011727Y014659D01*
X012330Y014060D02*
X012413Y014144D01*
X012580Y014144D01*
X012663Y014060D01*
X012663Y013810D01*
X012830Y013810D02*
X012330Y013810D01*
X012330Y014060D01*
X010850Y014841D02*
X010850Y015175D01*
X011100Y015610D02*
X011100Y016110D01*
X010100Y016110D02*
X010100Y015610D01*
X012100Y015610D02*
X012100Y016110D01*
X014100Y015700D02*
X014100Y015200D01*
X014350Y014950D01*
X014850Y014950D01*
X015100Y015200D01*
X015100Y015700D01*
X014850Y015950D01*
X014350Y015950D01*
X014100Y015700D01*
X003870Y014150D02*
X003870Y013650D01*
X003620Y013400D01*
X003870Y013150D01*
X003870Y012650D01*
X003620Y012400D01*
X003120Y012400D01*
X002870Y012650D01*
X002870Y013150D01*
X003120Y013400D01*
X002870Y013650D01*
X002870Y014150D01*
X003120Y014400D01*
X003620Y014400D01*
X003870Y014150D01*
X003620Y013400D02*
X003120Y013400D01*
X003120Y012400D02*
X002870Y012150D01*
X002870Y011650D01*
X003120Y011400D01*
X002870Y011150D01*
X002870Y010650D01*
X003120Y010400D01*
X002870Y010150D01*
X002870Y009650D01*
X003120Y009400D01*
X002870Y009150D01*
X002870Y008650D01*
X003120Y008400D01*
X003620Y008400D01*
X003870Y008650D01*
X003870Y009150D01*
X003620Y009400D01*
X003120Y009400D01*
X003620Y009400D02*
X003870Y009650D01*
X003870Y010150D01*
X003620Y010400D01*
X003120Y010400D01*
X003620Y010400D02*
X003870Y010650D01*
X003870Y011150D01*
X003620Y011400D01*
X003120Y011400D01*
X003620Y011400D02*
X003870Y011650D01*
X003870Y012150D01*
X003620Y012400D01*
X008380Y008501D02*
X008463Y008585D01*
X008797Y008251D01*
X008880Y008335D01*
X008880Y008501D01*
X008797Y008585D01*
X008463Y008585D01*
X008380Y008501D02*
X008380Y008335D01*
X008463Y008251D01*
X008797Y008251D01*
X008797Y008069D02*
X008463Y008069D01*
X008380Y007986D01*
X008380Y007736D01*
X008880Y007736D01*
X008880Y007986D01*
X008797Y008069D01*
X009270Y008026D02*
X009270Y007776D01*
X009770Y007776D01*
X009770Y008026D01*
X009687Y008109D01*
X009353Y008109D01*
X009270Y008026D01*
X009436Y008291D02*
X009270Y008458D01*
X009770Y008458D01*
X009770Y008291D02*
X009770Y008625D01*
X010290Y008541D02*
X010290Y008375D01*
X010373Y008291D01*
X010373Y008109D02*
X010290Y008026D01*
X010290Y007776D01*
X010790Y007776D01*
X010790Y008026D01*
X010707Y008109D01*
X010373Y008109D01*
X010290Y008541D02*
X010373Y008625D01*
X010456Y008625D01*
X010790Y008291D01*
X010790Y008625D01*
X011410Y008471D02*
X011410Y008305D01*
X011493Y008221D01*
X011493Y008039D02*
X011410Y007956D01*
X011410Y007706D01*
X011910Y007706D01*
X011910Y007956D01*
X011827Y008039D01*
X011493Y008039D01*
X011827Y008221D02*
X011910Y008305D01*
X011910Y008471D01*
X011827Y008555D01*
X011743Y008555D01*
X011660Y008471D01*
X011660Y008388D01*
X011660Y008471D02*
X011576Y008555D01*
X011493Y008555D01*
X011410Y008471D01*
X012340Y008531D02*
X012590Y008281D01*
X012590Y008615D01*
X012840Y008531D02*
X012340Y008531D01*
X012423Y008099D02*
X012340Y008016D01*
X012340Y007766D01*
X012840Y007766D01*
X012840Y008016D01*
X012757Y008099D01*
X012423Y008099D01*
X012423Y007584D02*
X012590Y007584D01*
X012673Y007500D01*
X012673Y007250D01*
X012840Y007250D02*
X012340Y007250D01*
X012340Y007500D01*
X012423Y007584D01*
X011910Y007190D02*
X011410Y007190D01*
X011410Y007440D01*
X011493Y007524D01*
X011660Y007524D01*
X011743Y007440D01*
X011743Y007190D01*
X011850Y006970D02*
X011350Y006970D01*
X011100Y006720D01*
X011100Y006220D01*
X011350Y005970D01*
X011850Y005970D01*
X012100Y006220D01*
X012100Y006720D01*
X011850Y006970D01*
X012100Y006720D02*
X012350Y006970D01*
X012850Y006970D01*
X013100Y006720D01*
X013100Y006220D01*
X012850Y005970D01*
X012350Y005970D01*
X012100Y006220D01*
X011100Y006220D02*
X010850Y005970D01*
X010350Y005970D01*
X010100Y006220D01*
X009850Y005970D01*
X009350Y005970D01*
X009100Y006220D01*
X008850Y005970D01*
X008350Y005970D01*
X008100Y006220D01*
X008100Y006720D01*
X008350Y006970D01*
X008850Y006970D01*
X009100Y006720D01*
X009350Y006970D01*
X009850Y006970D01*
X010100Y006720D01*
X010350Y006970D01*
X010850Y006970D01*
X011100Y006720D01*
X010100Y006720D02*
X010100Y006220D01*
X009100Y006220D02*
X009100Y006720D01*
X008880Y007220D02*
X008380Y007220D01*
X008380Y007470D01*
X008463Y007554D01*
X008630Y007554D01*
X008713Y007470D01*
X008713Y007220D01*
X009270Y007260D02*
X009270Y007510D01*
X009353Y007594D01*
X009520Y007594D01*
X009603Y007510D01*
X009603Y007260D01*
X009770Y007260D02*
X009270Y007260D01*
X010290Y007260D02*
X010290Y007510D01*
X010373Y007594D01*
X010540Y007594D01*
X010623Y007510D01*
X010623Y007260D01*
X010790Y007260D02*
X010290Y007260D01*
X015100Y006720D02*
X015100Y006220D01*
X015350Y005970D01*
X015850Y005970D01*
X016100Y006220D01*
X016100Y006720D01*
X015850Y006970D01*
X015350Y006970D01*
X015100Y006720D01*
X016100Y006720D02*
X016350Y006970D01*
X016850Y006970D01*
X017100Y006720D01*
X017350Y006970D01*
X017850Y006970D01*
X018100Y006720D01*
X018350Y006970D01*
X018850Y006970D01*
X019100Y006720D01*
X019350Y006970D01*
X019850Y006970D01*
X020100Y006720D01*
X020350Y006970D01*
X020850Y006970D01*
X021100Y006720D01*
X021100Y006220D01*
X020850Y005970D01*
X020350Y005970D01*
X020100Y006220D01*
X019850Y005970D01*
X019350Y005970D01*
X019100Y006220D01*
X019100Y006720D01*
X019100Y006220D02*
X018850Y005970D01*
X018350Y005970D01*
X018100Y006220D01*
X017850Y005970D01*
X017350Y005970D01*
X017100Y006220D01*
X016850Y005970D01*
X016350Y005970D01*
X016100Y006220D01*
X017100Y006220D02*
X017100Y006720D01*
X017360Y007210D02*
X017360Y007460D01*
X017443Y007544D01*
X017610Y007544D01*
X017693Y007460D01*
X017693Y007210D01*
X017860Y007210D02*
X017360Y007210D01*
X017360Y007726D02*
X017360Y007976D01*
X017443Y008059D01*
X017777Y008059D01*
X017860Y007976D01*
X017860Y007726D01*
X017360Y007726D01*
X017360Y008241D02*
X017610Y008241D01*
X017526Y008408D01*
X017526Y008491D01*
X017610Y008575D01*
X017777Y008575D01*
X017860Y008491D01*
X017860Y008325D01*
X017777Y008241D01*
X017360Y008241D02*
X017360Y008575D01*
X018330Y008555D02*
X018413Y008388D01*
X018580Y008221D01*
X018580Y008471D01*
X018663Y008555D01*
X018747Y008555D01*
X018830Y008471D01*
X018830Y008305D01*
X018747Y008221D01*
X018580Y008221D01*
X018747Y008039D02*
X018413Y008039D01*
X018330Y007956D01*
X018330Y007706D01*
X018830Y007706D01*
X018830Y007956D01*
X018747Y008039D01*
X019370Y007986D02*
X019370Y007736D01*
X019870Y007736D01*
X019870Y007986D01*
X019787Y008069D01*
X019453Y008069D01*
X019370Y007986D01*
X019370Y008251D02*
X019370Y008585D01*
X019453Y008585D01*
X019787Y008251D01*
X019870Y008251D01*
X020380Y008325D02*
X020380Y008491D01*
X020463Y008575D01*
X020797Y008241D01*
X020880Y008325D01*
X020880Y008491D01*
X020797Y008575D01*
X020463Y008575D01*
X020380Y008325D02*
X020463Y008241D01*
X020797Y008241D01*
X020797Y008059D02*
X020880Y007976D01*
X020880Y007726D01*
X020380Y007726D01*
X020380Y007976D01*
X020463Y008059D01*
X020546Y008059D01*
X020630Y007976D01*
X020630Y007726D01*
X020630Y007544D02*
X020463Y007544D01*
X020380Y007460D01*
X020380Y007210D01*
X020880Y007210D01*
X020713Y007210D02*
X020713Y007460D01*
X020630Y007544D01*
X020630Y007976D02*
X020713Y008059D01*
X020797Y008059D01*
X019703Y007470D02*
X019703Y007220D01*
X019870Y007220D02*
X019370Y007220D01*
X019370Y007470D01*
X019453Y007554D01*
X019620Y007554D01*
X019703Y007470D01*
X018830Y007190D02*
X018330Y007190D01*
X018330Y007440D01*
X018413Y007524D01*
X018580Y007524D01*
X018663Y007440D01*
X018663Y007190D01*
X018100Y006720D02*
X018100Y006220D01*
X020100Y006220D02*
X020100Y006720D01*
X022069Y004220D02*
X022069Y001760D01*
X023431Y001760D01*
X023431Y004220D01*
X022069Y004220D01*
X019590Y002040D02*
X019340Y002290D01*
X018840Y002290D01*
X018590Y002040D01*
X018590Y001540D01*
X018840Y001290D01*
X019340Y001290D01*
X019590Y001540D01*
X019590Y002040D01*
X018590Y002040D02*
X018340Y002290D01*
X017840Y002290D01*
X017590Y002040D01*
X017590Y001540D01*
X017840Y001290D01*
X018340Y001290D01*
X018590Y001540D01*
X017590Y001540D02*
X017340Y001290D01*
X016840Y001290D01*
X016590Y001540D01*
X016340Y001290D01*
X015840Y001290D01*
X015590Y001540D01*
X015340Y001290D01*
X014840Y001290D01*
X014590Y001540D01*
X014590Y002040D01*
X014840Y002290D01*
X015340Y002290D01*
X015590Y002040D01*
X015840Y002290D01*
X016340Y002290D01*
X016590Y002040D01*
X016590Y001540D01*
X016590Y002040D02*
X016840Y002290D01*
X017340Y002290D01*
X017590Y002040D01*
X017140Y003100D02*
X014740Y003100D01*
X014690Y003102D01*
X014641Y003108D01*
X014592Y003117D01*
X014544Y003130D01*
X014497Y003147D01*
X014452Y003167D01*
X014408Y003191D01*
X014366Y003218D01*
X014326Y003249D01*
X014289Y003282D01*
X014255Y003318D01*
X014223Y003356D01*
X014194Y003397D01*
X014169Y003439D01*
X014147Y003484D01*
X014128Y003530D01*
X014113Y003578D01*
X014102Y003626D01*
X014094Y003675D01*
X014090Y003725D01*
X014090Y003775D01*
X014094Y003825D01*
X014102Y003874D01*
X014113Y003922D01*
X014128Y003970D01*
X014147Y004016D01*
X014169Y004061D01*
X014194Y004103D01*
X014223Y004144D01*
X014255Y004182D01*
X014289Y004218D01*
X014326Y004251D01*
X014366Y004282D01*
X014408Y004309D01*
X014452Y004333D01*
X014497Y004353D01*
X014544Y004370D01*
X014592Y004383D01*
X014641Y004392D01*
X014690Y004398D01*
X014740Y004400D01*
X017140Y004400D01*
X016190Y004050D02*
X016190Y003750D01*
X016440Y003750D01*
X016190Y003750D02*
X016190Y003450D01*
X016040Y003450D02*
X015840Y003450D01*
X015840Y004050D01*
X016040Y004050D01*
X016040Y003450D01*
X015690Y003450D02*
X015690Y003750D01*
X015440Y003750D01*
X015690Y003750D02*
X015690Y004050D01*
X017140Y004400D02*
X017190Y004398D01*
X017239Y004392D01*
X017288Y004383D01*
X017336Y004370D01*
X017383Y004353D01*
X017428Y004333D01*
X017472Y004309D01*
X017514Y004282D01*
X017554Y004251D01*
X017591Y004218D01*
X017625Y004182D01*
X017657Y004144D01*
X017686Y004103D01*
X017711Y004061D01*
X017733Y004016D01*
X017752Y003970D01*
X017767Y003922D01*
X017778Y003874D01*
X017786Y003825D01*
X017790Y003775D01*
X017790Y003725D01*
X017786Y003675D01*
X017778Y003626D01*
X017767Y003578D01*
X017752Y003530D01*
X017733Y003484D01*
X017711Y003439D01*
X017686Y003397D01*
X017657Y003356D01*
X017625Y003318D01*
X017591Y003282D01*
X017554Y003249D01*
X017514Y003218D01*
X017472Y003191D01*
X017428Y003167D01*
X017383Y003147D01*
X017336Y003130D01*
X017288Y003117D01*
X017239Y003108D01*
X017190Y003102D01*
X017140Y003100D01*
X015590Y002040D02*
X015590Y001540D01*
X013520Y001510D02*
X013270Y001260D01*
X012770Y001260D01*
X012520Y001510D01*
X012270Y001260D01*
X011770Y001260D01*
X011520Y001510D01*
X011270Y001260D01*
X010770Y001260D01*
X010520Y001510D01*
X010270Y001260D01*
X009770Y001260D01*
X009520Y001510D01*
X009270Y001260D01*
X008770Y001260D01*
X008520Y001510D01*
X008520Y002010D01*
X008770Y002260D01*
X009270Y002260D01*
X009520Y002010D01*
X009770Y002260D01*
X010270Y002260D01*
X010520Y002010D01*
X010520Y001510D01*
X010520Y002010D02*
X010770Y002260D01*
X011270Y002260D01*
X011520Y002010D01*
X011770Y002260D01*
X012270Y002260D01*
X012520Y002010D01*
X012770Y002260D01*
X013270Y002260D01*
X013520Y002010D01*
X013520Y001510D01*
X012520Y001510D02*
X012520Y002010D01*
X011520Y002010D02*
X011520Y001510D01*
X009520Y001510D02*
X009520Y002010D01*
D14*
X003335Y001487D02*
X000206Y001487D01*
X000206Y004873D01*
X005835Y004873D01*
X005835Y004243D01*
X005835Y002117D02*
X005835Y001487D01*
X005206Y001487D01*
X022760Y010670D02*
X022762Y010762D01*
X022768Y010855D01*
X022778Y010947D01*
X022792Y011038D01*
X022810Y011129D01*
X022831Y011219D01*
X022857Y011308D01*
X022886Y011396D01*
X022919Y011482D01*
X022956Y011567D01*
X022996Y011650D01*
X023040Y011732D01*
X023088Y011811D01*
X023139Y011888D01*
X023193Y011963D01*
X023250Y012036D01*
X023310Y012106D01*
X023373Y012174D01*
X023440Y012239D01*
X023508Y012300D01*
X023580Y012359D01*
X023654Y012415D01*
X023730Y012467D01*
X023808Y012516D01*
X023889Y012562D01*
X023971Y012604D01*
X024055Y012643D01*
X024141Y012678D01*
X024228Y012709D01*
X024316Y012736D01*
X024406Y012760D01*
X024496Y012780D01*
X024587Y012796D01*
X024679Y012808D01*
X024771Y012816D01*
X024864Y012820D01*
X024956Y012820D01*
X025049Y012816D01*
X025141Y012808D01*
X025233Y012796D01*
X025324Y012780D01*
X025414Y012760D01*
X025504Y012736D01*
X025592Y012709D01*
X025679Y012678D01*
X025765Y012643D01*
X025849Y012604D01*
X025931Y012562D01*
X026012Y012516D01*
X026090Y012467D01*
X026166Y012415D01*
X026240Y012359D01*
X026312Y012300D01*
X026380Y012239D01*
X026447Y012174D01*
X026510Y012106D01*
X026570Y012036D01*
X026627Y011963D01*
X026681Y011888D01*
X026732Y011811D01*
X026780Y011732D01*
X026824Y011650D01*
X026864Y011567D01*
X026901Y011482D01*
X026934Y011396D01*
X026963Y011308D01*
X026989Y011219D01*
X027010Y011129D01*
X027028Y011038D01*
X027042Y010947D01*
X027052Y010855D01*
X027058Y010762D01*
X027060Y010670D01*
X027058Y010578D01*
X027052Y010485D01*
X027042Y010393D01*
X027028Y010302D01*
X027010Y010211D01*
X026989Y010121D01*
X026963Y010032D01*
X026934Y009944D01*
X026901Y009858D01*
X026864Y009773D01*
X026824Y009690D01*
X026780Y009608D01*
X026732Y009529D01*
X026681Y009452D01*
X026627Y009377D01*
X026570Y009304D01*
X026510Y009234D01*
X026447Y009166D01*
X026380Y009101D01*
X026312Y009040D01*
X026240Y008981D01*
X026166Y008925D01*
X026090Y008873D01*
X026012Y008824D01*
X025931Y008778D01*
X025849Y008736D01*
X025765Y008697D01*
X025679Y008662D01*
X025592Y008631D01*
X025504Y008604D01*
X025414Y008580D01*
X025324Y008560D01*
X025233Y008544D01*
X025141Y008532D01*
X025049Y008524D01*
X024956Y008520D01*
X024864Y008520D01*
X024771Y008524D01*
X024679Y008532D01*
X024587Y008544D01*
X024496Y008560D01*
X024406Y008580D01*
X024316Y008604D01*
X024228Y008631D01*
X024141Y008662D01*
X024055Y008697D01*
X023971Y008736D01*
X023889Y008778D01*
X023808Y008824D01*
X023730Y008873D01*
X023654Y008925D01*
X023580Y008981D01*
X023508Y009040D01*
X023440Y009101D01*
X023373Y009166D01*
X023310Y009234D01*
X023250Y009304D01*
X023193Y009377D01*
X023139Y009452D01*
X023088Y009529D01*
X023040Y009608D01*
X022996Y009690D01*
X022956Y009773D01*
X022919Y009858D01*
X022886Y009944D01*
X022857Y010032D01*
X022831Y010121D01*
X022810Y010211D01*
X022792Y010302D01*
X022778Y010393D01*
X022768Y010485D01*
X022762Y010578D01*
X022760Y010670D01*
X025410Y011420D02*
X025410Y011920D01*
X028516Y011871D02*
X028516Y010389D01*
X029127Y010389D01*
X029127Y011871D01*
X028516Y011871D01*
X028516Y015067D01*
X031824Y015067D01*
X031824Y007193D01*
X028516Y007193D01*
X028516Y008792D01*
X028635Y008792D01*
X028635Y009374D01*
X028516Y009374D01*
X028516Y010389D01*
X028881Y010389D02*
X028881Y007636D01*
X031459Y007636D01*
X031459Y014624D01*
X028881Y014624D01*
X028881Y011871D01*
D15*
X029680Y005190D02*
X025980Y005190D01*
X025880Y005090D01*
X025830Y003940D01*
X029500Y004950D02*
X029502Y004970D01*
X029508Y004988D01*
X029517Y005006D01*
X029529Y005021D01*
X029544Y005033D01*
X029562Y005042D01*
X029580Y005048D01*
X029600Y005050D01*
X029620Y005048D01*
X029638Y005042D01*
X029656Y005033D01*
X029671Y005021D01*
X029683Y005006D01*
X029692Y004988D01*
X029698Y004970D01*
X029700Y004950D01*
X029698Y004930D01*
X029692Y004912D01*
X029683Y004894D01*
X029671Y004879D01*
X029656Y004867D01*
X029638Y004858D01*
X029620Y004852D01*
X029600Y004850D01*
X029580Y004852D01*
X029562Y004858D01*
X029544Y004867D01*
X029529Y004879D01*
X029517Y004894D01*
X029508Y004912D01*
X029502Y004930D01*
X029500Y004950D01*
X029680Y005190D02*
X029780Y005090D01*
X029830Y003940D01*
D16*
X027830Y003640D03*
D17*
X026105Y003890D03*
X029555Y003890D03*
D18*
X028330Y003890D03*
X027330Y003890D03*
D19*
X024870Y015770D02*
X024770Y015770D01*
X024770Y016720D01*
X024870Y016720D01*
X022570Y016770D02*
X022570Y015770D01*
X022470Y015770D01*
X022470Y016770D02*
X022570Y016770D01*
D20*
X017140Y004600D02*
X014740Y004600D01*
X014683Y004598D01*
X014627Y004592D01*
X014571Y004583D01*
X014515Y004570D01*
X014461Y004553D01*
X014408Y004533D01*
X014357Y004509D01*
X014307Y004481D01*
X014259Y004451D01*
X014213Y004417D01*
X014170Y004380D01*
X014129Y004341D01*
X014091Y004299D01*
X014056Y004254D01*
X014024Y004207D01*
X013995Y004158D01*
X013969Y004108D01*
X013947Y004055D01*
X013928Y004002D01*
X013913Y003947D01*
X013902Y003891D01*
X013894Y003835D01*
X013890Y003778D01*
X013890Y003722D01*
X013894Y003665D01*
X013902Y003609D01*
X013913Y003553D01*
X013928Y003498D01*
X013947Y003445D01*
X013969Y003392D01*
X013995Y003342D01*
X014024Y003293D01*
X014056Y003246D01*
X014091Y003201D01*
X014129Y003159D01*
X014170Y003120D01*
X014213Y003083D01*
X014259Y003049D01*
X014307Y003019D01*
X014357Y002991D01*
X014408Y002967D01*
X014461Y002947D01*
X014515Y002930D01*
X014571Y002917D01*
X014627Y002908D01*
X014683Y002902D01*
X014740Y002900D01*
X017140Y002900D01*
X017197Y002902D01*
X017253Y002908D01*
X017309Y002917D01*
X017365Y002930D01*
X017419Y002947D01*
X017472Y002967D01*
X017523Y002991D01*
X017573Y003019D01*
X017621Y003049D01*
X017667Y003083D01*
X017710Y003120D01*
X017751Y003159D01*
X017789Y003201D01*
X017824Y003246D01*
X017856Y003293D01*
X017885Y003342D01*
X017911Y003392D01*
X017933Y003445D01*
X017952Y003498D01*
X017967Y003553D01*
X017978Y003609D01*
X017986Y003665D01*
X017990Y003722D01*
X017990Y003778D01*
X017986Y003835D01*
X017978Y003891D01*
X017967Y003947D01*
X017952Y004002D01*
X017933Y004055D01*
X017911Y004108D01*
X017885Y004158D01*
X017856Y004207D01*
X017824Y004254D01*
X017789Y004299D01*
X017751Y004341D01*
X017710Y004380D01*
X017667Y004417D01*
X017621Y004451D01*
X017573Y004481D01*
X017523Y004509D01*
X017472Y004533D01*
X017419Y004553D01*
X017365Y004570D01*
X017309Y004583D01*
X017253Y004592D01*
X017197Y004598D01*
X017140Y004600D01*
M02*
