%
M48
M72
T01C0.0276
T02C0.0320
T03C0.0354
T04C0.0394
T05C0.0400
T06C0.1260
%
T01
X9600Y20250
T02
X9600Y13250
X8600Y13250
X7600Y13250
X10600Y13250
X11600Y13250
X12600Y13250
X13600Y13250
X14600Y13250
X15600Y13250
X16600Y13250
X17600Y13250
X18600Y13250
X19600Y13250
X20600Y13250
X20600Y9250
X19600Y9250
X18600Y9250
X17600Y9250
X16600Y9250
X15600Y9250
X14600Y9250
X13600Y9250
X12600Y9250
X11600Y9250
X10600Y9250
X9600Y9250
X8600Y9250
X7600Y9250
X14990Y3750
X16890Y3750
T03
X24910Y9670
X24910Y11670
T04
X4300Y1290
X3119Y3180
X5520Y3180
X29670Y9130
X30670Y9130
X30670Y10130
X29670Y10130
X29670Y11130
X30670Y11130
X30670Y12130
X29670Y12130
X29670Y13130
X30670Y13130
T05
X24560Y14990
X22780Y14990
X20600Y15720
X19600Y15720
X18600Y15720
X17600Y15720
X16600Y15720
X14600Y15450
X12600Y15860
X11600Y15860
X10600Y15860
X9600Y15860
X8600Y15860
X7600Y15860
X6680Y17840
X5680Y17840
X4680Y17840
X9270Y18400
X10270Y18400
X11270Y18400
X12270Y18400
X13270Y18400
X16560Y18690
X17560Y18690
X18560Y18690
X19560Y18690
X20560Y18690
X22780Y17550
X24560Y17550
X20600Y6470
X19600Y6470
X18600Y6470
X17600Y6470
X16600Y6470
X15600Y6470
X12600Y6470
X11600Y6470
X10600Y6470
X9600Y6470
X8600Y6470
X3370Y8900
X3370Y9900
X3370Y10900
X3370Y11900
X3370Y12900
X3370Y13900
X9020Y1760
X10020Y1760
X11020Y1760
X12020Y1760
X13020Y1760
X15090Y1790
X16090Y1790
X17090Y1790
X18090Y1790
X19090Y1790
X26830Y4490
X27830Y4490
X28830Y4490
T06
X32350Y1230
X3560Y6060
X2160Y19800
X32510Y19800
M30
