G75*
%MOIN*%
%OFA0B0*%
%FSLAX24Y24*%
%IPPOS*%
%LPD*%
%AMOC8*
5,1,8,0,0,1.08239X$1,22.5*
%
%ADD10C,0.0000*%
%ADD11C,0.0070*%
%ADD12R,0.0472X0.0472*%
%ADD13C,0.0600*%
%ADD14C,0.0520*%
%ADD15C,0.0160*%
%ADD16C,0.0400*%
%ADD17OC8,0.0396*%
%ADD18OC8,0.0400*%
D10*
X000680Y000930D02*
X000680Y018426D01*
X022550Y018426D01*
X022550Y000930D01*
X000680Y000930D01*
X001050Y001930D02*
X001052Y001980D01*
X001058Y002030D01*
X001068Y002079D01*
X001082Y002127D01*
X001099Y002174D01*
X001120Y002219D01*
X001145Y002263D01*
X001173Y002304D01*
X001205Y002343D01*
X001239Y002380D01*
X001276Y002414D01*
X001316Y002444D01*
X001358Y002471D01*
X001402Y002495D01*
X001448Y002516D01*
X001495Y002532D01*
X001543Y002545D01*
X001593Y002554D01*
X001642Y002559D01*
X001693Y002560D01*
X001743Y002557D01*
X001792Y002550D01*
X001841Y002539D01*
X001889Y002524D01*
X001935Y002506D01*
X001980Y002484D01*
X002023Y002458D01*
X002064Y002429D01*
X002103Y002397D01*
X002139Y002362D01*
X002171Y002324D01*
X002201Y002284D01*
X002228Y002241D01*
X002251Y002197D01*
X002270Y002151D01*
X002286Y002103D01*
X002298Y002054D01*
X002306Y002005D01*
X002310Y001955D01*
X002310Y001905D01*
X002306Y001855D01*
X002298Y001806D01*
X002286Y001757D01*
X002270Y001709D01*
X002251Y001663D01*
X002228Y001619D01*
X002201Y001576D01*
X002171Y001536D01*
X002139Y001498D01*
X002103Y001463D01*
X002064Y001431D01*
X002023Y001402D01*
X001980Y001376D01*
X001935Y001354D01*
X001889Y001336D01*
X001841Y001321D01*
X001792Y001310D01*
X001743Y001303D01*
X001693Y001300D01*
X001642Y001301D01*
X001593Y001306D01*
X001543Y001315D01*
X001495Y001328D01*
X001448Y001344D01*
X001402Y001365D01*
X001358Y001389D01*
X001316Y001416D01*
X001276Y001446D01*
X001239Y001480D01*
X001205Y001517D01*
X001173Y001556D01*
X001145Y001597D01*
X001120Y001641D01*
X001099Y001686D01*
X001082Y001733D01*
X001068Y001781D01*
X001058Y001830D01*
X001052Y001880D01*
X001050Y001930D01*
X001050Y017430D02*
X001052Y017480D01*
X001058Y017530D01*
X001068Y017579D01*
X001082Y017627D01*
X001099Y017674D01*
X001120Y017719D01*
X001145Y017763D01*
X001173Y017804D01*
X001205Y017843D01*
X001239Y017880D01*
X001276Y017914D01*
X001316Y017944D01*
X001358Y017971D01*
X001402Y017995D01*
X001448Y018016D01*
X001495Y018032D01*
X001543Y018045D01*
X001593Y018054D01*
X001642Y018059D01*
X001693Y018060D01*
X001743Y018057D01*
X001792Y018050D01*
X001841Y018039D01*
X001889Y018024D01*
X001935Y018006D01*
X001980Y017984D01*
X002023Y017958D01*
X002064Y017929D01*
X002103Y017897D01*
X002139Y017862D01*
X002171Y017824D01*
X002201Y017784D01*
X002228Y017741D01*
X002251Y017697D01*
X002270Y017651D01*
X002286Y017603D01*
X002298Y017554D01*
X002306Y017505D01*
X002310Y017455D01*
X002310Y017405D01*
X002306Y017355D01*
X002298Y017306D01*
X002286Y017257D01*
X002270Y017209D01*
X002251Y017163D01*
X002228Y017119D01*
X002201Y017076D01*
X002171Y017036D01*
X002139Y016998D01*
X002103Y016963D01*
X002064Y016931D01*
X002023Y016902D01*
X001980Y016876D01*
X001935Y016854D01*
X001889Y016836D01*
X001841Y016821D01*
X001792Y016810D01*
X001743Y016803D01*
X001693Y016800D01*
X001642Y016801D01*
X001593Y016806D01*
X001543Y016815D01*
X001495Y016828D01*
X001448Y016844D01*
X001402Y016865D01*
X001358Y016889D01*
X001316Y016916D01*
X001276Y016946D01*
X001239Y016980D01*
X001205Y017017D01*
X001173Y017056D01*
X001145Y017097D01*
X001120Y017141D01*
X001099Y017186D01*
X001082Y017233D01*
X001068Y017281D01*
X001058Y017330D01*
X001052Y017380D01*
X001050Y017430D01*
X021050Y017430D02*
X021052Y017480D01*
X021058Y017530D01*
X021068Y017579D01*
X021082Y017627D01*
X021099Y017674D01*
X021120Y017719D01*
X021145Y017763D01*
X021173Y017804D01*
X021205Y017843D01*
X021239Y017880D01*
X021276Y017914D01*
X021316Y017944D01*
X021358Y017971D01*
X021402Y017995D01*
X021448Y018016D01*
X021495Y018032D01*
X021543Y018045D01*
X021593Y018054D01*
X021642Y018059D01*
X021693Y018060D01*
X021743Y018057D01*
X021792Y018050D01*
X021841Y018039D01*
X021889Y018024D01*
X021935Y018006D01*
X021980Y017984D01*
X022023Y017958D01*
X022064Y017929D01*
X022103Y017897D01*
X022139Y017862D01*
X022171Y017824D01*
X022201Y017784D01*
X022228Y017741D01*
X022251Y017697D01*
X022270Y017651D01*
X022286Y017603D01*
X022298Y017554D01*
X022306Y017505D01*
X022310Y017455D01*
X022310Y017405D01*
X022306Y017355D01*
X022298Y017306D01*
X022286Y017257D01*
X022270Y017209D01*
X022251Y017163D01*
X022228Y017119D01*
X022201Y017076D01*
X022171Y017036D01*
X022139Y016998D01*
X022103Y016963D01*
X022064Y016931D01*
X022023Y016902D01*
X021980Y016876D01*
X021935Y016854D01*
X021889Y016836D01*
X021841Y016821D01*
X021792Y016810D01*
X021743Y016803D01*
X021693Y016800D01*
X021642Y016801D01*
X021593Y016806D01*
X021543Y016815D01*
X021495Y016828D01*
X021448Y016844D01*
X021402Y016865D01*
X021358Y016889D01*
X021316Y016916D01*
X021276Y016946D01*
X021239Y016980D01*
X021205Y017017D01*
X021173Y017056D01*
X021145Y017097D01*
X021120Y017141D01*
X021099Y017186D01*
X021082Y017233D01*
X021068Y017281D01*
X021058Y017330D01*
X021052Y017380D01*
X021050Y017430D01*
X021050Y001930D02*
X021052Y001980D01*
X021058Y002030D01*
X021068Y002079D01*
X021082Y002127D01*
X021099Y002174D01*
X021120Y002219D01*
X021145Y002263D01*
X021173Y002304D01*
X021205Y002343D01*
X021239Y002380D01*
X021276Y002414D01*
X021316Y002444D01*
X021358Y002471D01*
X021402Y002495D01*
X021448Y002516D01*
X021495Y002532D01*
X021543Y002545D01*
X021593Y002554D01*
X021642Y002559D01*
X021693Y002560D01*
X021743Y002557D01*
X021792Y002550D01*
X021841Y002539D01*
X021889Y002524D01*
X021935Y002506D01*
X021980Y002484D01*
X022023Y002458D01*
X022064Y002429D01*
X022103Y002397D01*
X022139Y002362D01*
X022171Y002324D01*
X022201Y002284D01*
X022228Y002241D01*
X022251Y002197D01*
X022270Y002151D01*
X022286Y002103D01*
X022298Y002054D01*
X022306Y002005D01*
X022310Y001955D01*
X022310Y001905D01*
X022306Y001855D01*
X022298Y001806D01*
X022286Y001757D01*
X022270Y001709D01*
X022251Y001663D01*
X022228Y001619D01*
X022201Y001576D01*
X022171Y001536D01*
X022139Y001498D01*
X022103Y001463D01*
X022064Y001431D01*
X022023Y001402D01*
X021980Y001376D01*
X021935Y001354D01*
X021889Y001336D01*
X021841Y001321D01*
X021792Y001310D01*
X021743Y001303D01*
X021693Y001300D01*
X021642Y001301D01*
X021593Y001306D01*
X021543Y001315D01*
X021495Y001328D01*
X021448Y001344D01*
X021402Y001365D01*
X021358Y001389D01*
X021316Y001416D01*
X021276Y001446D01*
X021239Y001480D01*
X021205Y001517D01*
X021173Y001556D01*
X021145Y001597D01*
X021120Y001641D01*
X021099Y001686D01*
X021082Y001733D01*
X021068Y001781D01*
X021058Y001830D01*
X021052Y001880D01*
X021050Y001930D01*
D11*
X002395Y014358D02*
X001965Y014358D01*
X001965Y014215D02*
X001965Y014502D01*
X002036Y014675D02*
X002323Y014675D01*
X002395Y014747D01*
X002395Y014891D01*
X002323Y014962D01*
X002036Y014962D01*
X001965Y014891D01*
X001965Y014747D01*
X002036Y014675D01*
X001965Y015136D02*
X001965Y015351D01*
X002036Y015423D01*
X002180Y015423D01*
X002252Y015351D01*
X002252Y015136D01*
X002395Y015136D02*
X001965Y015136D01*
D12*
X004180Y003343D03*
X004180Y002517D03*
X005680Y002517D03*
X005680Y003343D03*
D13*
X002980Y006930D02*
X002380Y006930D01*
X002380Y007930D02*
X002980Y007930D01*
X002980Y008930D02*
X002380Y008930D01*
X005680Y016130D02*
X005680Y016730D01*
X006680Y016730D02*
X006680Y016130D01*
X007680Y016130D02*
X007680Y016730D01*
X008680Y016730D02*
X008680Y016130D01*
X009680Y016130D02*
X009680Y016730D01*
X012680Y016730D02*
X012680Y016130D01*
X013680Y016130D02*
X013680Y016730D01*
X014680Y016730D02*
X014680Y016130D01*
X020380Y008430D02*
X020980Y008430D01*
X020980Y007430D02*
X020380Y007430D01*
X019680Y002730D02*
X019680Y002130D01*
X018680Y002130D02*
X018680Y002730D01*
X014680Y002730D02*
X014680Y002130D01*
X013680Y002130D02*
X013680Y002730D01*
D14*
X013680Y004670D02*
X013680Y005190D01*
X012680Y005190D02*
X012680Y004670D01*
X011680Y004670D02*
X011680Y005190D01*
X010680Y005190D02*
X010680Y004670D01*
X009680Y004670D02*
X009680Y005190D01*
X008680Y005190D02*
X008680Y004670D01*
X007680Y004670D02*
X007680Y005190D01*
X006680Y005190D02*
X006680Y004670D01*
X005680Y004670D02*
X005680Y005190D01*
X005680Y010670D02*
X005680Y011190D01*
X006680Y011190D02*
X006680Y010670D01*
X007680Y010670D02*
X007680Y011190D01*
X008680Y011190D02*
X008680Y010670D01*
X009680Y010670D02*
X009680Y011190D01*
X010680Y011190D02*
X010680Y010670D01*
X011680Y010670D02*
X011680Y011190D01*
X012680Y011190D02*
X012680Y010670D01*
X013680Y010670D02*
X013680Y011190D01*
X014680Y011190D02*
X014680Y010670D01*
X015680Y010670D02*
X015680Y011190D01*
X016680Y011190D02*
X016680Y010670D01*
X017680Y010670D02*
X017680Y011190D01*
X018680Y011190D02*
X018680Y010670D01*
X018680Y005190D02*
X018680Y004670D01*
X017680Y004670D02*
X017680Y005190D01*
X016680Y005190D02*
X016680Y004670D01*
X015680Y004670D02*
X015680Y005190D01*
X014680Y005190D02*
X014680Y004670D01*
D15*
X015180Y004361D02*
X015188Y004341D01*
X015351Y004178D01*
X015565Y004090D01*
X015795Y004090D01*
X016009Y004178D01*
X016172Y004341D01*
X016180Y004361D01*
X016188Y004341D01*
X016351Y004178D01*
X016565Y004090D01*
X016795Y004090D01*
X017009Y004178D01*
X017172Y004341D01*
X017180Y004361D01*
X017188Y004341D01*
X017351Y004178D01*
X017565Y004090D01*
X017795Y004090D01*
X018009Y004178D01*
X018172Y004341D01*
X018257Y004548D01*
X018272Y004501D01*
X018304Y004439D01*
X018344Y004383D01*
X018393Y004334D01*
X018449Y004294D01*
X018511Y004262D01*
X018577Y004241D01*
X018645Y004230D01*
X018680Y004230D01*
X018715Y004230D01*
X018783Y004241D01*
X018849Y004262D01*
X018911Y004294D01*
X018967Y004334D01*
X019016Y004383D01*
X019056Y004439D01*
X019088Y004501D01*
X019109Y004567D01*
X019120Y004635D01*
X019120Y004930D01*
X019120Y005225D01*
X019109Y005293D01*
X019088Y005359D01*
X019056Y005421D01*
X019016Y005477D01*
X018967Y005526D01*
X018911Y005566D01*
X018903Y005570D01*
X019087Y005570D01*
X019360Y005297D01*
X019360Y003269D01*
X019329Y003256D01*
X019154Y003081D01*
X019103Y002957D01*
X019091Y002982D01*
X019046Y003043D01*
X018993Y003096D01*
X018932Y003141D01*
X018864Y003175D01*
X018792Y003198D01*
X018718Y003210D01*
X018700Y003210D01*
X018700Y002450D01*
X018660Y002450D01*
X018660Y003210D01*
X018642Y003210D01*
X018568Y003198D01*
X018496Y003175D01*
X018428Y003141D01*
X018367Y003096D01*
X018314Y003043D01*
X018269Y002982D01*
X018235Y002914D01*
X018212Y002842D01*
X018200Y002768D01*
X018200Y002450D01*
X018660Y002450D01*
X018660Y002410D01*
X018700Y002410D01*
X018700Y001650D01*
X018718Y001650D01*
X018792Y001662D01*
X018864Y001685D01*
X018932Y001719D01*
X018993Y001764D01*
X019046Y001817D01*
X019091Y001878D01*
X019103Y001903D01*
X019154Y001779D01*
X019329Y001604D01*
X019557Y001510D01*
X019803Y001510D01*
X020031Y001604D01*
X020206Y001779D01*
X020300Y002007D01*
X020300Y002853D01*
X020206Y003081D01*
X020031Y003256D01*
X020000Y003269D01*
X020000Y005494D01*
X019951Y005611D01*
X019861Y005701D01*
X019401Y006161D01*
X019284Y006210D01*
X013086Y006210D01*
X010000Y009070D01*
X010000Y010175D01*
X010009Y010178D01*
X010172Y010341D01*
X010180Y010361D01*
X010188Y010341D01*
X010351Y010178D01*
X010565Y010090D01*
X010795Y010090D01*
X011009Y010178D01*
X011172Y010341D01*
X011180Y010361D01*
X011188Y010341D01*
X011351Y010178D01*
X011565Y010090D01*
X011795Y010090D01*
X012009Y010178D01*
X012172Y010341D01*
X012180Y010361D01*
X012188Y010341D01*
X012351Y010178D01*
X012565Y010090D01*
X012795Y010090D01*
X013009Y010178D01*
X013172Y010341D01*
X013180Y010361D01*
X013188Y010341D01*
X013351Y010178D01*
X013565Y010090D01*
X013795Y010090D01*
X014009Y010178D01*
X014172Y010341D01*
X014180Y010361D01*
X014188Y010341D01*
X014351Y010178D01*
X014565Y010090D01*
X014795Y010090D01*
X015009Y010178D01*
X015172Y010341D01*
X015180Y010361D01*
X015188Y010341D01*
X015351Y010178D01*
X015565Y010090D01*
X015795Y010090D01*
X016009Y010178D01*
X016172Y010341D01*
X016180Y010361D01*
X016188Y010341D01*
X016351Y010178D01*
X016565Y010090D01*
X016795Y010090D01*
X017009Y010178D01*
X017172Y010341D01*
X017180Y010361D01*
X017188Y010341D01*
X017351Y010178D01*
X017565Y010090D01*
X017795Y010090D01*
X018009Y010178D01*
X018172Y010341D01*
X018180Y010361D01*
X018188Y010341D01*
X018351Y010178D01*
X018565Y010090D01*
X018795Y010090D01*
X019009Y010178D01*
X019172Y010341D01*
X019260Y010555D01*
X019260Y011305D01*
X019172Y011519D01*
X019009Y011682D01*
X018795Y011770D01*
X018565Y011770D01*
X018351Y011682D01*
X018188Y011519D01*
X018180Y011499D01*
X018172Y011519D01*
X018009Y011682D01*
X017795Y011770D01*
X017565Y011770D01*
X017351Y011682D01*
X017188Y011519D01*
X017180Y011499D01*
X017172Y011519D01*
X017009Y011682D01*
X016795Y011770D01*
X016565Y011770D01*
X016351Y011682D01*
X016188Y011519D01*
X016180Y011499D01*
X016172Y011519D01*
X016009Y011682D01*
X015795Y011770D01*
X015565Y011770D01*
X015351Y011682D01*
X015188Y011519D01*
X015180Y011499D01*
X015172Y011519D01*
X015009Y011682D01*
X014795Y011770D01*
X014565Y011770D01*
X014351Y011682D01*
X014188Y011519D01*
X014180Y011499D01*
X014172Y011519D01*
X014009Y011682D01*
X013795Y011770D01*
X013565Y011770D01*
X013351Y011682D01*
X013188Y011519D01*
X013180Y011499D01*
X013172Y011519D01*
X013009Y011682D01*
X012795Y011770D01*
X012565Y011770D01*
X012351Y011682D01*
X012188Y011519D01*
X012180Y011499D01*
X012172Y011519D01*
X012009Y011682D01*
X011795Y011770D01*
X011565Y011770D01*
X011351Y011682D01*
X011188Y011519D01*
X011180Y011499D01*
X011172Y011519D01*
X011009Y011682D01*
X010795Y011770D01*
X010565Y011770D01*
X010351Y011682D01*
X010188Y011519D01*
X010180Y011499D01*
X010172Y011519D01*
X010009Y011682D01*
X009795Y011770D01*
X009565Y011770D01*
X009351Y011682D01*
X009188Y011519D01*
X009180Y011499D01*
X009172Y011519D01*
X009009Y011682D01*
X008795Y011770D01*
X008565Y011770D01*
X008351Y011682D01*
X008188Y011519D01*
X008180Y011499D01*
X008172Y011519D01*
X008009Y011682D01*
X007795Y011770D01*
X007565Y011770D01*
X007351Y011682D01*
X007188Y011519D01*
X007180Y011499D01*
X007172Y011519D01*
X007009Y011682D01*
X006795Y011770D01*
X006565Y011770D01*
X006351Y011682D01*
X006188Y011519D01*
X006180Y011499D01*
X006172Y011519D01*
X006009Y011682D01*
X005795Y011770D01*
X005565Y011770D01*
X005351Y011682D01*
X005188Y011519D01*
X005100Y011305D01*
X005100Y010555D01*
X005188Y010341D01*
X005351Y010178D01*
X005565Y010090D01*
X005795Y010090D01*
X006009Y010178D01*
X006172Y010341D01*
X006180Y010361D01*
X006188Y010341D01*
X006351Y010178D01*
X006565Y010090D01*
X006795Y010090D01*
X007009Y010178D01*
X007172Y010341D01*
X007180Y010361D01*
X007188Y010341D01*
X007351Y010178D01*
X007565Y010090D01*
X007795Y010090D01*
X008009Y010178D01*
X008172Y010341D01*
X008180Y010361D01*
X008188Y010341D01*
X008351Y010178D01*
X008565Y010090D01*
X008795Y010090D01*
X009009Y010178D01*
X009172Y010341D01*
X009180Y010361D01*
X009188Y010341D01*
X009351Y010178D01*
X009360Y010175D01*
X009360Y008987D01*
X009358Y008981D01*
X009360Y008924D01*
X009360Y008866D01*
X009362Y008861D01*
X009363Y008854D01*
X009387Y008802D01*
X009409Y008749D01*
X009413Y008744D01*
X009416Y008739D01*
X009458Y008699D01*
X009499Y008659D01*
X009505Y008656D01*
X012619Y005770D01*
X012565Y005770D01*
X012351Y005682D01*
X012188Y005519D01*
X012180Y005499D01*
X012172Y005519D01*
X012009Y005682D01*
X012000Y005685D01*
X012000Y005994D01*
X011951Y006111D01*
X011861Y006201D01*
X010941Y007121D01*
X010824Y007170D01*
X003552Y007170D01*
X003506Y007281D01*
X003331Y007456D01*
X003207Y007507D01*
X003232Y007519D01*
X003293Y007564D01*
X003346Y007617D01*
X003391Y007678D01*
X003425Y007746D01*
X003448Y007818D01*
X003460Y007892D01*
X003460Y007910D01*
X002700Y007910D01*
X002700Y007950D01*
X003460Y007950D01*
X003460Y007968D01*
X003448Y008042D01*
X003425Y008114D01*
X003391Y008182D01*
X003346Y008243D01*
X003293Y008296D01*
X003232Y008341D01*
X003207Y008353D01*
X003331Y008404D01*
X003506Y008579D01*
X003600Y008807D01*
X003600Y009053D01*
X003506Y009281D01*
X003331Y009456D01*
X003103Y009550D01*
X002257Y009550D01*
X002029Y009456D01*
X001854Y009281D01*
X001760Y009053D01*
X001760Y008807D01*
X001854Y008579D01*
X002029Y008404D01*
X002153Y008353D01*
X002128Y008341D01*
X002067Y008296D01*
X002014Y008243D01*
X001969Y008182D01*
X001935Y008114D01*
X001912Y008042D01*
X001900Y007968D01*
X001900Y007950D01*
X002660Y007950D01*
X002660Y007910D01*
X001900Y007910D01*
X001900Y007892D01*
X001912Y007818D01*
X001935Y007746D01*
X001969Y007678D01*
X002014Y007617D01*
X002067Y007564D01*
X002128Y007519D01*
X002153Y007507D01*
X002029Y007456D01*
X001854Y007281D01*
X001760Y007053D01*
X001760Y006807D01*
X001854Y006579D01*
X002029Y006404D01*
X002257Y006310D01*
X003103Y006310D01*
X003331Y006404D01*
X003457Y006530D01*
X010627Y006530D01*
X011360Y005797D01*
X011360Y005685D01*
X011351Y005682D01*
X011188Y005519D01*
X011180Y005499D01*
X011172Y005519D01*
X011009Y005682D01*
X010795Y005770D01*
X010565Y005770D01*
X010351Y005682D01*
X010188Y005519D01*
X010180Y005499D01*
X010172Y005519D01*
X010009Y005682D01*
X009795Y005770D01*
X009565Y005770D01*
X009351Y005682D01*
X009188Y005519D01*
X009180Y005499D01*
X009172Y005519D01*
X009009Y005682D01*
X008795Y005770D01*
X008565Y005770D01*
X008351Y005682D01*
X008188Y005519D01*
X008180Y005499D01*
X008172Y005519D01*
X008009Y005682D01*
X007795Y005770D01*
X007565Y005770D01*
X007351Y005682D01*
X007188Y005519D01*
X007180Y005499D01*
X007172Y005519D01*
X007009Y005682D01*
X006795Y005770D01*
X006565Y005770D01*
X006351Y005682D01*
X006188Y005519D01*
X006180Y005499D01*
X006172Y005519D01*
X006009Y005682D01*
X005795Y005770D01*
X005565Y005770D01*
X005351Y005682D01*
X005188Y005519D01*
X005100Y005305D01*
X005100Y004555D01*
X005188Y004341D01*
X005351Y004178D01*
X005360Y004175D01*
X005360Y003891D01*
X005263Y003851D01*
X005172Y003761D01*
X005124Y003643D01*
X005124Y003356D01*
X005111Y003368D01*
X004749Y003368D01*
X004736Y003356D01*
X004736Y003643D01*
X004688Y003761D01*
X004597Y003851D01*
X004508Y003888D01*
X004618Y003999D01*
X004618Y004361D01*
X004361Y004618D01*
X003999Y004618D01*
X003742Y004361D01*
X003742Y003999D01*
X003852Y003888D01*
X003763Y003851D01*
X003672Y003761D01*
X003624Y003643D01*
X003624Y003044D01*
X003672Y002926D01*
X003763Y002836D01*
X003780Y002829D01*
X003776Y002822D01*
X003764Y002777D01*
X003764Y002555D01*
X004142Y002555D01*
X004142Y002479D01*
X003764Y002479D01*
X003764Y002257D01*
X003776Y002211D01*
X003800Y002170D01*
X003833Y002136D01*
X003874Y002113D01*
X003920Y002100D01*
X004142Y002100D01*
X004142Y002478D01*
X004218Y002478D01*
X004218Y002100D01*
X004440Y002100D01*
X004486Y002113D01*
X004527Y002136D01*
X004560Y002170D01*
X004584Y002211D01*
X004596Y002257D01*
X004596Y002479D01*
X004218Y002479D01*
X004218Y002555D01*
X004596Y002555D01*
X004596Y002644D01*
X004610Y002630D01*
X004610Y002616D01*
X004659Y002499D01*
X004749Y002409D01*
X004912Y002245D01*
X005030Y002197D01*
X005132Y002197D01*
X005172Y002099D01*
X005263Y002009D01*
X005380Y001960D01*
X005980Y001960D01*
X006097Y002009D01*
X006188Y002099D01*
X006236Y002217D01*
X006236Y002816D01*
X006189Y002930D01*
X006236Y003044D01*
X006236Y003643D01*
X006188Y003761D01*
X006097Y003851D01*
X006000Y003891D01*
X006000Y004175D01*
X006009Y004178D01*
X006172Y004341D01*
X006180Y004361D01*
X006188Y004341D01*
X006351Y004178D01*
X006565Y004090D01*
X006795Y004090D01*
X007009Y004178D01*
X007172Y004341D01*
X007180Y004361D01*
X007188Y004341D01*
X007351Y004178D01*
X007565Y004090D01*
X007795Y004090D01*
X008009Y004178D01*
X008172Y004341D01*
X008180Y004361D01*
X008188Y004341D01*
X008351Y004178D01*
X008565Y004090D01*
X008795Y004090D01*
X009009Y004178D01*
X009172Y004341D01*
X009180Y004361D01*
X009188Y004341D01*
X009351Y004178D01*
X009565Y004090D01*
X009795Y004090D01*
X010009Y004178D01*
X010172Y004341D01*
X010180Y004361D01*
X010188Y004341D01*
X010351Y004178D01*
X010565Y004090D01*
X010795Y004090D01*
X011009Y004178D01*
X011172Y004341D01*
X011180Y004361D01*
X011188Y004341D01*
X011351Y004178D01*
X011565Y004090D01*
X011795Y004090D01*
X012009Y004178D01*
X012172Y004341D01*
X012180Y004361D01*
X012188Y004341D01*
X012351Y004178D01*
X012565Y004090D01*
X012795Y004090D01*
X013009Y004178D01*
X013172Y004341D01*
X013180Y004361D01*
X013188Y004341D01*
X013351Y004178D01*
X013565Y004090D01*
X013795Y004090D01*
X014009Y004178D01*
X014172Y004341D01*
X014180Y004361D01*
X014188Y004341D01*
X014351Y004178D01*
X014565Y004090D01*
X014795Y004090D01*
X015009Y004178D01*
X015172Y004341D01*
X015180Y004361D01*
X015089Y004259D02*
X015271Y004259D01*
X015540Y004100D02*
X014820Y004100D01*
X014540Y004100D02*
X013820Y004100D01*
X014089Y004259D02*
X014271Y004259D01*
X013540Y004100D02*
X012820Y004100D01*
X012540Y004100D02*
X011820Y004100D01*
X011540Y004100D02*
X010820Y004100D01*
X010540Y004100D02*
X009820Y004100D01*
X010089Y004259D02*
X010271Y004259D01*
X009540Y004100D02*
X008820Y004100D01*
X008540Y004100D02*
X007820Y004100D01*
X007540Y004100D02*
X006820Y004100D01*
X007089Y004259D02*
X007271Y004259D01*
X008089Y004259D02*
X008271Y004259D01*
X009089Y004259D02*
X009271Y004259D01*
X009196Y005527D02*
X009164Y005527D01*
X009001Y005685D02*
X009359Y005685D01*
X010001Y005685D02*
X010359Y005685D01*
X010196Y005527D02*
X010164Y005527D01*
X011001Y005685D02*
X011359Y005685D01*
X011314Y005844D02*
X001160Y005844D01*
X001160Y006002D02*
X011155Y006002D01*
X010997Y006161D02*
X001160Y006161D01*
X001160Y006319D02*
X002235Y006319D01*
X001956Y006478D02*
X001160Y006478D01*
X001160Y006636D02*
X001831Y006636D01*
X001765Y006795D02*
X001160Y006795D01*
X001160Y006953D02*
X001760Y006953D01*
X001784Y007112D02*
X001160Y007112D01*
X001160Y007270D02*
X001850Y007270D01*
X002002Y007429D02*
X001160Y007429D01*
X001160Y007587D02*
X002044Y007587D01*
X001935Y007746D02*
X001160Y007746D01*
X001160Y007904D02*
X001900Y007904D01*
X001918Y008063D02*
X001160Y008063D01*
X001160Y008221D02*
X001998Y008221D01*
X002089Y008380D02*
X001160Y008380D01*
X001160Y008538D02*
X001895Y008538D01*
X001806Y008697D02*
X001160Y008697D01*
X001160Y008855D02*
X001760Y008855D01*
X001760Y009014D02*
X001160Y009014D01*
X001160Y009172D02*
X001809Y009172D01*
X001904Y009331D02*
X001160Y009331D01*
X001160Y009489D02*
X002109Y009489D01*
X003251Y009489D02*
X006619Y009489D01*
X006492Y009361D02*
X006749Y009618D01*
X007111Y009618D01*
X007368Y009361D01*
X007368Y008999D01*
X007111Y008742D01*
X006749Y008742D01*
X006492Y008999D01*
X006492Y009361D01*
X006492Y009331D02*
X003456Y009331D01*
X003551Y009172D02*
X006492Y009172D01*
X006492Y009014D02*
X003600Y009014D01*
X003600Y008855D02*
X006635Y008855D01*
X007225Y008855D02*
X009363Y008855D01*
X009360Y009014D02*
X007368Y009014D01*
X007368Y009172D02*
X009360Y009172D01*
X009360Y009331D02*
X007368Y009331D01*
X007241Y009489D02*
X009360Y009489D01*
X009360Y009648D02*
X001160Y009648D01*
X001160Y009806D02*
X009360Y009806D01*
X009360Y009965D02*
X001160Y009965D01*
X001160Y010123D02*
X005485Y010123D01*
X005248Y010282D02*
X001160Y010282D01*
X001160Y010440D02*
X005147Y010440D01*
X005100Y010599D02*
X001160Y010599D01*
X001160Y010757D02*
X005100Y010757D01*
X005100Y010916D02*
X001160Y010916D01*
X001160Y011074D02*
X005100Y011074D01*
X005100Y011233D02*
X001160Y011233D01*
X001160Y011391D02*
X005135Y011391D01*
X005219Y011550D02*
X001160Y011550D01*
X001160Y011708D02*
X005415Y011708D01*
X005945Y011708D02*
X006415Y011708D01*
X006219Y011550D02*
X006141Y011550D01*
X006945Y011708D02*
X007415Y011708D01*
X007219Y011550D02*
X007141Y011550D01*
X007945Y011708D02*
X008415Y011708D01*
X008219Y011550D02*
X008141Y011550D01*
X008945Y011708D02*
X009415Y011708D01*
X009219Y011550D02*
X009141Y011550D01*
X009945Y011708D02*
X010415Y011708D01*
X010219Y011550D02*
X010141Y011550D01*
X009680Y010930D02*
X009680Y008930D01*
X012960Y005890D01*
X019220Y005890D01*
X019680Y005430D01*
X019680Y002430D01*
X020300Y002357D02*
X020645Y002357D01*
X020646Y002358D02*
X020570Y002076D01*
X020570Y001784D01*
X020646Y001502D01*
X020699Y001410D01*
X002661Y001410D01*
X002714Y001502D01*
X002790Y001784D01*
X002790Y002076D01*
X002714Y002358D01*
X002568Y002612D01*
X002362Y002818D01*
X002108Y002964D01*
X001826Y003040D01*
X001534Y003040D01*
X001252Y002964D01*
X001160Y002911D01*
X001160Y016449D01*
X001252Y016396D01*
X001534Y016320D01*
X001826Y016320D01*
X002108Y016396D01*
X002362Y016542D01*
X002568Y016748D01*
X002714Y017002D01*
X002790Y017284D01*
X002790Y017576D01*
X002714Y017858D01*
X002664Y017946D01*
X020696Y017946D01*
X020646Y017858D01*
X020570Y017576D01*
X020570Y017284D01*
X020646Y017002D01*
X020792Y016748D01*
X020998Y016542D01*
X021252Y016396D01*
X021534Y016320D01*
X021826Y016320D01*
X022070Y016385D01*
X022070Y002975D01*
X021826Y003040D01*
X021534Y003040D01*
X021252Y002964D01*
X020998Y002818D01*
X020792Y002612D01*
X020646Y002358D01*
X020603Y002198D02*
X020300Y002198D01*
X020300Y002040D02*
X020570Y002040D01*
X020570Y001881D02*
X020248Y001881D01*
X020149Y001723D02*
X020587Y001723D01*
X020629Y001564D02*
X019934Y001564D01*
X019426Y001564D02*
X014934Y001564D01*
X015031Y001604D02*
X014803Y001510D01*
X014557Y001510D01*
X014329Y001604D01*
X014180Y001753D01*
X014031Y001604D01*
X013803Y001510D01*
X013557Y001510D01*
X013329Y001604D01*
X013154Y001779D01*
X013060Y002007D01*
X013060Y002853D01*
X013154Y003081D01*
X013329Y003256D01*
X013557Y003350D01*
X013803Y003350D01*
X014031Y003256D01*
X014180Y003107D01*
X014329Y003256D01*
X014557Y003350D01*
X014803Y003350D01*
X015031Y003256D01*
X015206Y003081D01*
X015300Y002853D01*
X015300Y002007D01*
X015206Y001779D01*
X015031Y001604D01*
X015149Y001723D02*
X018424Y001723D01*
X018428Y001719D02*
X018496Y001685D01*
X018568Y001662D01*
X018642Y001650D01*
X018660Y001650D01*
X018660Y002410D01*
X018200Y002410D01*
X018200Y002092D01*
X018212Y002018D01*
X018235Y001946D01*
X018269Y001878D01*
X018314Y001817D01*
X018367Y001764D01*
X018428Y001719D01*
X018268Y001881D02*
X015248Y001881D01*
X015300Y002040D02*
X018208Y002040D01*
X018200Y002198D02*
X015300Y002198D01*
X015300Y002357D02*
X018200Y002357D01*
X018200Y002515D02*
X015300Y002515D01*
X015300Y002674D02*
X018200Y002674D01*
X018210Y002832D02*
X015300Y002832D01*
X015243Y002991D02*
X018276Y002991D01*
X018445Y003149D02*
X015138Y003149D01*
X014906Y003308D02*
X019360Y003308D01*
X019360Y003466D02*
X006236Y003466D01*
X006236Y003308D02*
X013454Y003308D01*
X013222Y003149D02*
X006236Y003149D01*
X006214Y002991D02*
X013117Y002991D01*
X013060Y002832D02*
X006230Y002832D01*
X006236Y002674D02*
X013060Y002674D01*
X013060Y002515D02*
X006236Y002515D01*
X006236Y002357D02*
X013060Y002357D01*
X013060Y002198D02*
X006228Y002198D01*
X006128Y002040D02*
X013060Y002040D01*
X013112Y001881D02*
X002790Y001881D01*
X002790Y002040D02*
X005232Y002040D01*
X005026Y002198D02*
X004576Y002198D01*
X004596Y002357D02*
X004801Y002357D01*
X004652Y002515D02*
X004218Y002515D01*
X004180Y002517D02*
X004180Y002180D01*
X003830Y001830D01*
X003240Y001830D01*
X002773Y001723D02*
X013211Y001723D01*
X013426Y001564D02*
X002731Y001564D01*
X002757Y002198D02*
X003784Y002198D01*
X003764Y002357D02*
X002715Y002357D01*
X002624Y002515D02*
X004142Y002515D01*
X004180Y002517D02*
X004200Y002370D01*
X004218Y002357D02*
X004142Y002357D01*
X004142Y002198D02*
X004218Y002198D01*
X003764Y002674D02*
X002506Y002674D01*
X002338Y002832D02*
X003772Y002832D01*
X003646Y002991D02*
X002011Y002991D01*
X001349Y002991D02*
X001160Y002991D01*
X001160Y003149D02*
X003624Y003149D01*
X003624Y003308D02*
X001160Y003308D01*
X001160Y003466D02*
X003624Y003466D01*
X003624Y003625D02*
X001160Y003625D01*
X001160Y003783D02*
X003695Y003783D01*
X003799Y003942D02*
X001160Y003942D01*
X001160Y004100D02*
X003742Y004100D01*
X003742Y004259D02*
X001160Y004259D01*
X001160Y004417D02*
X003797Y004417D01*
X003956Y004576D02*
X001160Y004576D01*
X001160Y004734D02*
X005100Y004734D01*
X005100Y004576D02*
X004404Y004576D01*
X004563Y004417D02*
X005157Y004417D01*
X005271Y004259D02*
X004618Y004259D01*
X004618Y004100D02*
X005360Y004100D01*
X005360Y003942D02*
X004561Y003942D01*
X004665Y003783D02*
X005195Y003783D01*
X005124Y003625D02*
X004736Y003625D01*
X004736Y003466D02*
X005124Y003466D01*
X004930Y002930D02*
X004930Y002680D01*
X005093Y002517D01*
X005680Y002517D01*
X005680Y003343D02*
X005680Y004930D01*
X005100Y004893D02*
X001160Y004893D01*
X001160Y005051D02*
X005100Y005051D01*
X005100Y005210D02*
X001160Y005210D01*
X001160Y005368D02*
X005126Y005368D01*
X005196Y005527D02*
X001160Y005527D01*
X001160Y005685D02*
X005359Y005685D01*
X006001Y005685D02*
X006359Y005685D01*
X006196Y005527D02*
X006164Y005527D01*
X007001Y005685D02*
X007359Y005685D01*
X007196Y005527D02*
X007164Y005527D01*
X008001Y005685D02*
X008359Y005685D01*
X008196Y005527D02*
X008164Y005527D01*
X006540Y004100D02*
X006000Y004100D01*
X006000Y003942D02*
X019360Y003942D01*
X019360Y004100D02*
X017820Y004100D01*
X017540Y004100D02*
X016820Y004100D01*
X017089Y004259D02*
X017271Y004259D01*
X016540Y004100D02*
X015820Y004100D01*
X016089Y004259D02*
X016271Y004259D01*
X018089Y004259D02*
X018523Y004259D01*
X018680Y004259D02*
X018680Y004259D01*
X018680Y004230D02*
X018680Y004930D01*
X019120Y004930D01*
X018680Y004930D01*
X018680Y004930D01*
X018680Y004230D01*
X018837Y004259D02*
X019360Y004259D01*
X019360Y004417D02*
X019040Y004417D01*
X019111Y004576D02*
X019360Y004576D01*
X019360Y004734D02*
X019120Y004734D01*
X019120Y004893D02*
X019360Y004893D01*
X019360Y005051D02*
X019120Y005051D01*
X019120Y005210D02*
X019360Y005210D01*
X019289Y005368D02*
X019083Y005368D01*
X019131Y005527D02*
X018965Y005527D01*
X018680Y004930D02*
X018680Y004930D01*
X018680Y004893D02*
X018680Y004893D01*
X018680Y004734D02*
X018680Y004734D01*
X018680Y004576D02*
X018680Y004576D01*
X018680Y004417D02*
X018680Y004417D01*
X018320Y004417D02*
X018203Y004417D01*
X019360Y003783D02*
X006165Y003783D01*
X006236Y003625D02*
X019360Y003625D01*
X019222Y003149D02*
X018915Y003149D01*
X018700Y003149D02*
X018660Y003149D01*
X018660Y002991D02*
X018700Y002991D01*
X018700Y002832D02*
X018660Y002832D01*
X018660Y002674D02*
X018700Y002674D01*
X018700Y002515D02*
X018660Y002515D01*
X018660Y002357D02*
X018700Y002357D01*
X018700Y002198D02*
X018660Y002198D01*
X018660Y002040D02*
X018700Y002040D01*
X018700Y001881D02*
X018660Y001881D01*
X018660Y001723D02*
X018700Y001723D01*
X018936Y001723D02*
X019211Y001723D01*
X019112Y001881D02*
X019092Y001881D01*
X020300Y002515D02*
X020736Y002515D01*
X020854Y002674D02*
X020300Y002674D01*
X020300Y002832D02*
X021022Y002832D01*
X021349Y002991D02*
X020243Y002991D01*
X020138Y003149D02*
X022070Y003149D01*
X022070Y002991D02*
X022011Y002991D01*
X022070Y003308D02*
X020000Y003308D01*
X020000Y003466D02*
X022070Y003466D01*
X022070Y003625D02*
X020000Y003625D01*
X020000Y003783D02*
X022070Y003783D01*
X022070Y003942D02*
X020000Y003942D01*
X020000Y004100D02*
X022070Y004100D01*
X022070Y004259D02*
X020000Y004259D01*
X020000Y004417D02*
X022070Y004417D01*
X022070Y004576D02*
X020000Y004576D01*
X020000Y004734D02*
X022070Y004734D01*
X022070Y004893D02*
X020000Y004893D01*
X020000Y005051D02*
X022070Y005051D01*
X022070Y005210D02*
X020000Y005210D01*
X020000Y005368D02*
X022070Y005368D01*
X022070Y005527D02*
X019986Y005527D01*
X019878Y005685D02*
X022070Y005685D01*
X022070Y005844D02*
X019719Y005844D01*
X019561Y006002D02*
X022070Y006002D01*
X022070Y006161D02*
X019402Y006161D01*
X020196Y006985D02*
X020268Y006962D01*
X020342Y006950D01*
X020660Y006950D01*
X020660Y007410D01*
X020700Y007410D01*
X020700Y007450D01*
X021460Y007450D01*
X021460Y007468D01*
X021448Y007542D01*
X021425Y007614D01*
X021391Y007682D01*
X021346Y007743D01*
X021293Y007796D01*
X021232Y007841D01*
X021207Y007853D01*
X021331Y007904D01*
X021506Y008079D01*
X021600Y008307D01*
X021600Y008553D01*
X021506Y008781D01*
X021331Y008956D01*
X021103Y009050D01*
X020257Y009050D01*
X020029Y008956D01*
X019854Y008781D01*
X019760Y008553D01*
X019760Y008307D01*
X019854Y008079D01*
X020029Y007904D01*
X020153Y007853D01*
X020128Y007841D01*
X020067Y007796D01*
X020014Y007743D01*
X019969Y007682D01*
X019935Y007614D01*
X019912Y007542D01*
X019900Y007468D01*
X019900Y007450D01*
X020660Y007450D01*
X020660Y007410D01*
X019900Y007410D01*
X019900Y007392D01*
X019912Y007318D01*
X019935Y007246D01*
X019969Y007178D01*
X020014Y007117D01*
X020067Y007064D01*
X020128Y007019D01*
X020196Y006985D01*
X020323Y006953D02*
X012284Y006953D01*
X012455Y006795D02*
X022070Y006795D01*
X022070Y006953D02*
X021037Y006953D01*
X021018Y006950D02*
X021092Y006962D01*
X021164Y006985D01*
X021232Y007019D01*
X021293Y007064D01*
X021346Y007117D01*
X021391Y007178D01*
X021425Y007246D01*
X021448Y007318D01*
X021460Y007392D01*
X021460Y007410D01*
X020700Y007410D01*
X020700Y006950D01*
X021018Y006950D01*
X020700Y006953D02*
X020660Y006953D01*
X020660Y007112D02*
X020700Y007112D01*
X020700Y007270D02*
X020660Y007270D01*
X020660Y007429D02*
X011771Y007429D01*
X011600Y007587D02*
X019926Y007587D01*
X020017Y007746D02*
X011429Y007746D01*
X011258Y007904D02*
X020030Y007904D01*
X019871Y008063D02*
X011087Y008063D01*
X010916Y008221D02*
X019795Y008221D01*
X019760Y008380D02*
X010745Y008380D01*
X010574Y008538D02*
X019760Y008538D01*
X019819Y008697D02*
X010403Y008697D01*
X010232Y008855D02*
X019928Y008855D01*
X020169Y009014D02*
X010061Y009014D01*
X010000Y009172D02*
X022070Y009172D01*
X022070Y009014D02*
X021191Y009014D01*
X021432Y008855D02*
X022070Y008855D01*
X022070Y008697D02*
X021541Y008697D01*
X021600Y008538D02*
X022070Y008538D01*
X022070Y008380D02*
X021600Y008380D01*
X021565Y008221D02*
X022070Y008221D01*
X022070Y008063D02*
X021489Y008063D01*
X021330Y007904D02*
X022070Y007904D01*
X022070Y007746D02*
X021343Y007746D01*
X021434Y007587D02*
X022070Y007587D01*
X022070Y007429D02*
X020700Y007429D01*
X021340Y007112D02*
X022070Y007112D01*
X022070Y007270D02*
X021433Y007270D01*
X022070Y006636D02*
X012626Y006636D01*
X012797Y006478D02*
X022070Y006478D01*
X022070Y006319D02*
X012968Y006319D01*
X012539Y005844D02*
X012000Y005844D01*
X011997Y006002D02*
X012368Y006002D01*
X012197Y006161D02*
X011902Y006161D01*
X012026Y006319D02*
X011744Y006319D01*
X011855Y006478D02*
X011585Y006478D01*
X011684Y006636D02*
X011427Y006636D01*
X011513Y006795D02*
X011268Y006795D01*
X011342Y006953D02*
X011110Y006953D01*
X011171Y007112D02*
X010951Y007112D01*
X011000Y007270D02*
X003510Y007270D01*
X003358Y007429D02*
X010829Y007429D01*
X010658Y007587D02*
X003316Y007587D01*
X003425Y007746D02*
X010487Y007746D01*
X010316Y007904D02*
X003460Y007904D01*
X003442Y008063D02*
X010145Y008063D01*
X009974Y008221D02*
X003362Y008221D01*
X003271Y008380D02*
X009803Y008380D01*
X009632Y008538D02*
X003465Y008538D01*
X003554Y008697D02*
X009461Y008697D01*
X010000Y009331D02*
X022070Y009331D01*
X022070Y009489D02*
X010000Y009489D01*
X010000Y009648D02*
X022070Y009648D01*
X022070Y009806D02*
X010000Y009806D01*
X010000Y009965D02*
X022070Y009965D01*
X022070Y010123D02*
X018875Y010123D01*
X019112Y010282D02*
X022070Y010282D01*
X022070Y010440D02*
X019213Y010440D01*
X019260Y010599D02*
X022070Y010599D01*
X022070Y010757D02*
X019260Y010757D01*
X019260Y010916D02*
X022070Y010916D01*
X022070Y011074D02*
X019260Y011074D01*
X019260Y011233D02*
X022070Y011233D01*
X022070Y011391D02*
X019225Y011391D01*
X019141Y011550D02*
X022070Y011550D01*
X022070Y011708D02*
X018945Y011708D01*
X018415Y011708D02*
X017945Y011708D01*
X018141Y011550D02*
X018219Y011550D01*
X017415Y011708D02*
X016945Y011708D01*
X017141Y011550D02*
X017219Y011550D01*
X016415Y011708D02*
X015945Y011708D01*
X016141Y011550D02*
X016219Y011550D01*
X015415Y011708D02*
X014945Y011708D01*
X015141Y011550D02*
X015219Y011550D01*
X014415Y011708D02*
X013945Y011708D01*
X014141Y011550D02*
X014219Y011550D01*
X013415Y011708D02*
X012945Y011708D01*
X013141Y011550D02*
X013219Y011550D01*
X012415Y011708D02*
X011945Y011708D01*
X012141Y011550D02*
X012219Y011550D01*
X011415Y011708D02*
X010945Y011708D01*
X011141Y011550D02*
X011219Y011550D01*
X011248Y010282D02*
X011112Y010282D01*
X010875Y010123D02*
X011485Y010123D01*
X011875Y010123D02*
X012485Y010123D01*
X012248Y010282D02*
X012112Y010282D01*
X012875Y010123D02*
X013485Y010123D01*
X013248Y010282D02*
X013112Y010282D01*
X013875Y010123D02*
X014485Y010123D01*
X014875Y010123D02*
X015485Y010123D01*
X015248Y010282D02*
X015112Y010282D01*
X015875Y010123D02*
X016485Y010123D01*
X016248Y010282D02*
X016112Y010282D01*
X016875Y010123D02*
X017485Y010123D01*
X017248Y010282D02*
X017112Y010282D01*
X017875Y010123D02*
X018485Y010123D01*
X018248Y010282D02*
X018112Y010282D01*
X019927Y007270D02*
X011942Y007270D01*
X012113Y007112D02*
X020020Y007112D01*
X019117Y002991D02*
X019084Y002991D01*
X014454Y003308D02*
X013906Y003308D01*
X014138Y003149D02*
X014222Y003149D01*
X013271Y004259D02*
X013089Y004259D01*
X012271Y004259D02*
X012089Y004259D01*
X011271Y004259D02*
X011089Y004259D01*
X011680Y004930D02*
X011680Y005930D01*
X010760Y006850D01*
X002760Y006850D01*
X002680Y006930D01*
X003125Y006319D02*
X010838Y006319D01*
X010680Y006478D02*
X003404Y006478D01*
X003680Y007930D02*
X002680Y007930D01*
X002760Y007810D01*
X003680Y007930D02*
X003930Y008180D01*
X003930Y011930D01*
X005250Y013250D01*
X008700Y013250D01*
X008730Y013280D01*
X008610Y013250D01*
X007366Y013860D02*
X016358Y013860D01*
X016451Y013767D01*
X016612Y013700D01*
X016788Y013700D01*
X016949Y013767D01*
X017073Y013891D01*
X017140Y014052D01*
X017140Y014228D01*
X017073Y014389D01*
X016949Y014513D01*
X016788Y014580D01*
X016612Y014580D01*
X016451Y014513D01*
X016438Y014500D01*
X007563Y014500D01*
X006920Y015143D01*
X006920Y015558D01*
X007031Y015604D01*
X007180Y015753D01*
X007329Y015604D01*
X007557Y015510D01*
X007803Y015510D01*
X008031Y015604D01*
X008180Y015753D01*
X008329Y015604D01*
X008557Y015510D01*
X008803Y015510D01*
X009031Y015604D01*
X009180Y015753D01*
X009329Y015604D01*
X009557Y015510D01*
X009803Y015510D01*
X010031Y015604D01*
X010206Y015779D01*
X010300Y016007D01*
X010300Y016853D01*
X010206Y017081D01*
X010197Y017090D01*
X010224Y017090D01*
X010272Y017110D01*
X010547Y017110D01*
X010860Y016797D01*
X010860Y016366D01*
X010909Y016249D01*
X010999Y016159D01*
X012059Y015099D01*
X012176Y015050D01*
X015188Y015050D01*
X015241Y014997D01*
X015402Y014930D01*
X015578Y014930D01*
X015739Y014997D01*
X015863Y015121D01*
X015930Y015282D01*
X015930Y015458D01*
X015863Y015619D01*
X015739Y015743D01*
X015578Y015810D01*
X015402Y015810D01*
X015241Y015743D01*
X015188Y015690D01*
X015117Y015690D01*
X015206Y015779D01*
X015300Y016007D01*
X015300Y016853D01*
X015206Y017081D01*
X015031Y017256D01*
X014803Y017350D01*
X014557Y017350D01*
X014329Y017256D01*
X014180Y017107D01*
X014031Y017256D01*
X013803Y017350D01*
X013557Y017350D01*
X013329Y017256D01*
X013180Y017107D01*
X013031Y017256D01*
X012803Y017350D01*
X012557Y017350D01*
X012329Y017256D01*
X012154Y017081D01*
X012060Y016853D01*
X012060Y016007D01*
X012063Y016000D01*
X011500Y016563D01*
X011500Y016994D01*
X011451Y017111D01*
X010951Y017611D01*
X010861Y017701D01*
X010744Y017750D01*
X010116Y017750D01*
X010068Y017730D01*
X006376Y017730D01*
X006259Y017681D01*
X005891Y017314D01*
X005803Y017350D01*
X005557Y017350D01*
X005329Y017256D01*
X005154Y017081D01*
X005060Y016853D01*
X005060Y016007D01*
X005154Y015779D01*
X005329Y015604D01*
X005557Y015510D01*
X005803Y015510D01*
X006031Y015604D01*
X006180Y015753D01*
X006280Y015653D01*
X006280Y014946D01*
X006329Y014829D01*
X007159Y013999D01*
X007249Y013909D01*
X007366Y013860D01*
X007230Y013927D02*
X001160Y013927D01*
X001160Y013769D02*
X016449Y013769D01*
X016700Y014140D02*
X016660Y014180D01*
X007430Y014180D01*
X006600Y015010D01*
X006600Y016290D01*
X006680Y016430D01*
X007097Y015671D02*
X007263Y015671D01*
X007552Y015512D02*
X006920Y015512D01*
X006920Y015354D02*
X011804Y015354D01*
X011645Y015512D02*
X009808Y015512D01*
X009552Y015512D02*
X008808Y015512D01*
X008552Y015512D02*
X007808Y015512D01*
X008097Y015671D02*
X008263Y015671D01*
X009097Y015671D02*
X009263Y015671D01*
X010097Y015671D02*
X011487Y015671D01*
X011328Y015829D02*
X010226Y015829D01*
X010292Y015988D02*
X011170Y015988D01*
X011011Y016146D02*
X010300Y016146D01*
X010300Y016305D02*
X010886Y016305D01*
X010860Y016463D02*
X010300Y016463D01*
X010300Y016622D02*
X010860Y016622D01*
X010860Y016780D02*
X010300Y016780D01*
X010265Y016939D02*
X010719Y016939D01*
X010560Y017097D02*
X010241Y017097D01*
X010160Y017410D02*
X010180Y017430D01*
X010680Y017430D01*
X011180Y016930D01*
X011180Y016430D01*
X012240Y015370D01*
X015490Y015370D01*
X015812Y015671D02*
X022070Y015671D01*
X022070Y015829D02*
X015226Y015829D01*
X015292Y015988D02*
X022070Y015988D01*
X022070Y016146D02*
X015300Y016146D01*
X015300Y016305D02*
X022070Y016305D01*
X022070Y015512D02*
X015907Y015512D01*
X015930Y015354D02*
X022070Y015354D01*
X022070Y015195D02*
X015894Y015195D01*
X015779Y015037D02*
X022070Y015037D01*
X022070Y014878D02*
X007185Y014878D01*
X007343Y014720D02*
X022070Y014720D01*
X022070Y014561D02*
X016833Y014561D01*
X017060Y014403D02*
X022070Y014403D01*
X022070Y014244D02*
X017133Y014244D01*
X017140Y014086D02*
X022070Y014086D01*
X022070Y013927D02*
X017088Y013927D01*
X016951Y013769D02*
X022070Y013769D01*
X022070Y013610D02*
X001160Y013610D01*
X001160Y013452D02*
X022070Y013452D01*
X022070Y013293D02*
X001160Y013293D01*
X001160Y013135D02*
X022070Y013135D01*
X022070Y012976D02*
X001160Y012976D01*
X001160Y012818D02*
X022070Y012818D01*
X022070Y012659D02*
X001160Y012659D01*
X001160Y012501D02*
X022070Y012501D01*
X022070Y012342D02*
X001160Y012342D01*
X001160Y012184D02*
X022070Y012184D01*
X022070Y012025D02*
X001160Y012025D01*
X001160Y011867D02*
X022070Y011867D01*
X021135Y016463D02*
X015300Y016463D01*
X015300Y016622D02*
X020919Y016622D01*
X020774Y016780D02*
X015300Y016780D01*
X015265Y016939D02*
X020682Y016939D01*
X020620Y017097D02*
X015190Y017097D01*
X015031Y017256D02*
X020578Y017256D01*
X020570Y017414D02*
X011149Y017414D01*
X011307Y017256D02*
X012329Y017256D01*
X012170Y017097D02*
X011457Y017097D01*
X011500Y016939D02*
X012095Y016939D01*
X012060Y016780D02*
X011500Y016780D01*
X011500Y016622D02*
X012060Y016622D01*
X012060Y016463D02*
X011600Y016463D01*
X011758Y016305D02*
X012060Y016305D01*
X012060Y016146D02*
X011917Y016146D01*
X011962Y015195D02*
X006920Y015195D01*
X007026Y015037D02*
X015201Y015037D01*
X016567Y014561D02*
X007502Y014561D01*
X007072Y014086D02*
X002455Y014086D01*
X002450Y014083D02*
X002208Y014083D01*
X002198Y014059D01*
X002120Y013982D01*
X002019Y013940D01*
X001910Y013940D01*
X001809Y013982D01*
X001731Y014059D01*
X001690Y014160D01*
X001690Y014557D01*
X001718Y014625D01*
X001690Y014692D01*
X001690Y014945D01*
X001718Y015013D01*
X001690Y015081D01*
X001690Y015406D01*
X001731Y015507D01*
X001803Y015578D01*
X001881Y015656D01*
X001982Y015698D01*
X002235Y015698D01*
X002293Y015674D01*
X002336Y015656D01*
X002407Y015584D01*
X002411Y015580D01*
X002485Y015507D01*
X002485Y015507D01*
X002485Y015507D01*
X002492Y015488D01*
X002527Y015406D01*
X002527Y015379D01*
X002551Y015369D01*
X002628Y015292D01*
X002670Y015190D01*
X002670Y015081D01*
X002642Y015013D01*
X002670Y014945D01*
X002670Y014692D01*
X002628Y014591D01*
X002590Y014553D01*
X002628Y014514D01*
X002670Y014413D01*
X002670Y014304D01*
X002628Y014203D01*
X002551Y014125D01*
X002450Y014083D01*
X002645Y014244D02*
X006913Y014244D01*
X006755Y014403D02*
X002670Y014403D01*
X002598Y014561D02*
X006596Y014561D01*
X006438Y014720D02*
X002670Y014720D01*
X002670Y014878D02*
X006308Y014878D01*
X006280Y015037D02*
X002652Y015037D01*
X002668Y015195D02*
X006280Y015195D01*
X006280Y015354D02*
X002566Y015354D01*
X002479Y015512D02*
X005552Y015512D01*
X005808Y015512D02*
X006280Y015512D01*
X006263Y015671D02*
X006097Y015671D01*
X005800Y016450D02*
X005680Y016430D01*
X005800Y016450D02*
X005800Y016770D01*
X006440Y017410D01*
X010160Y017410D01*
X010071Y017731D02*
X002748Y017731D01*
X002790Y017573D02*
X006150Y017573D01*
X005991Y017414D02*
X002790Y017414D01*
X002782Y017256D02*
X005329Y017256D01*
X005170Y017097D02*
X002740Y017097D01*
X002678Y016939D02*
X005095Y016939D01*
X005060Y016780D02*
X002586Y016780D01*
X002441Y016622D02*
X005060Y016622D01*
X005060Y016463D02*
X002225Y016463D01*
X002300Y015671D02*
X005263Y015671D01*
X005134Y015829D02*
X001160Y015829D01*
X001160Y015671D02*
X001916Y015671D01*
X001737Y015512D02*
X001160Y015512D01*
X001160Y015354D02*
X001690Y015354D01*
X001690Y015195D02*
X001160Y015195D01*
X001160Y015037D02*
X001708Y015037D01*
X001690Y014878D02*
X001160Y014878D01*
X001160Y014720D02*
X001690Y014720D01*
X001691Y014561D02*
X001160Y014561D01*
X001160Y014403D02*
X001690Y014403D01*
X001690Y014244D02*
X001160Y014244D01*
X001160Y014086D02*
X001721Y014086D01*
X001160Y015988D02*
X005068Y015988D01*
X005060Y016146D02*
X001160Y016146D01*
X001160Y016305D02*
X005060Y016305D01*
X002696Y017890D02*
X020664Y017890D01*
X020612Y017731D02*
X010789Y017731D01*
X010990Y017573D02*
X020570Y017573D01*
X014329Y017256D02*
X014031Y017256D01*
X013329Y017256D02*
X013031Y017256D01*
X014112Y010282D02*
X014248Y010282D01*
X010485Y010123D02*
X010000Y010123D01*
X010112Y010282D02*
X010248Y010282D01*
X009360Y010123D02*
X008875Y010123D01*
X008485Y010123D02*
X007875Y010123D01*
X008112Y010282D02*
X008248Y010282D01*
X007485Y010123D02*
X006875Y010123D01*
X007112Y010282D02*
X007248Y010282D01*
X006485Y010123D02*
X005875Y010123D01*
X006112Y010282D02*
X006248Y010282D01*
X009112Y010282D02*
X009248Y010282D01*
X012001Y005685D02*
X012359Y005685D01*
X012196Y005527D02*
X012164Y005527D01*
X011196Y005527D02*
X011164Y005527D01*
X013934Y001564D02*
X014426Y001564D01*
X014211Y001723D02*
X014149Y001723D01*
X006271Y004259D02*
X006089Y004259D01*
X004180Y004180D02*
X004180Y003490D01*
X004200Y003490D01*
X004180Y003343D01*
D16*
X016700Y014140D03*
X015490Y015370D03*
D17*
X019180Y014430D03*
X020180Y006680D03*
X008730Y013280D03*
X004430Y014430D03*
X006930Y009180D03*
X001930Y006180D03*
X004180Y004180D03*
X004930Y002930D03*
D18*
X003240Y001830D03*
M02*
