G75*
%MOIN*%
%OFA0B0*%
%FSLAX24Y24*%
%IPPOS*%
%LPD*%
%AMOC8*
5,1,8,0,0,1.08239X$1,22.5*
%
%ADD10C,0.0090*%
%ADD11C,0.0070*%
%ADD12R,0.0591X0.0512*%
%ADD13C,0.0600*%
%ADD14C,0.0520*%
%ADD15R,0.0790X0.0590*%
%ADD16R,0.0790X0.1500*%
%ADD17R,0.0512X0.0591*%
%ADD18C,0.0160*%
%ADD19C,0.0400*%
%ADD20OC8,0.0396*%
%ADD21OC8,0.0400*%
D10*
X021875Y003601D02*
X021977Y003702D01*
X021875Y003804D01*
X021977Y003906D01*
X022282Y003906D01*
X022282Y004143D02*
X021977Y004143D01*
X021875Y004245D01*
X021977Y004347D01*
X021875Y004449D01*
X021977Y004550D01*
X022282Y004550D01*
X022282Y004788D02*
X021977Y004788D01*
X021875Y004890D01*
X021977Y004991D01*
X021875Y005093D01*
X021977Y005195D01*
X022282Y005195D01*
X021977Y005432D02*
X021875Y005432D01*
X021875Y005534D01*
X021977Y005534D01*
X021977Y005432D01*
X021977Y005755D02*
X022180Y005755D01*
X022282Y005857D01*
X022282Y006060D01*
X022180Y006162D01*
X022079Y006162D01*
X022079Y005755D01*
X021977Y005755D02*
X021875Y005857D01*
X021875Y006060D01*
X021875Y006399D02*
X021875Y006603D01*
X021875Y006501D02*
X022486Y006501D01*
X022486Y006399D01*
X022180Y006829D02*
X022282Y006931D01*
X022282Y007134D01*
X022180Y007236D01*
X022079Y007236D01*
X022079Y006829D01*
X022180Y006829D02*
X021977Y006829D01*
X021875Y006931D01*
X021875Y007134D01*
X021875Y007474D02*
X022282Y007474D01*
X022282Y007575D01*
X022180Y007677D01*
X022282Y007779D01*
X022180Y007881D01*
X021875Y007881D01*
X021875Y007677D02*
X022180Y007677D01*
X022180Y008118D02*
X022282Y008220D01*
X022282Y008423D01*
X022180Y008525D01*
X022079Y008525D01*
X022079Y008118D01*
X022180Y008118D02*
X021977Y008118D01*
X021875Y008220D01*
X021875Y008423D01*
X021875Y008763D02*
X022282Y008763D01*
X022282Y009068D01*
X022180Y009170D01*
X021875Y009170D01*
X021977Y009509D02*
X021875Y009611D01*
X021977Y009509D02*
X022384Y009509D01*
X022282Y009407D02*
X022282Y009611D01*
X022282Y009837D02*
X022282Y010244D01*
X021875Y009837D01*
X021875Y010244D01*
X021977Y010481D02*
X021875Y010583D01*
X021875Y010787D01*
X021977Y010888D01*
X022180Y010888D01*
X022282Y010787D01*
X022282Y010583D01*
X022180Y010481D01*
X021977Y010481D01*
X021875Y011126D02*
X022282Y011126D01*
X022282Y011431D01*
X022180Y011533D01*
X021875Y011533D01*
X021875Y011771D02*
X021875Y011974D01*
X021875Y011872D02*
X022486Y011872D01*
X022486Y011771D01*
X022282Y012200D02*
X022282Y012302D01*
X021875Y012302D01*
X021875Y012200D02*
X021875Y012404D01*
X021875Y012630D02*
X022282Y012630D01*
X022282Y012935D01*
X022180Y013037D01*
X021875Y013037D01*
X021977Y013275D02*
X022180Y013275D01*
X022282Y013376D01*
X022282Y013580D01*
X022180Y013682D01*
X022079Y013682D01*
X022079Y013275D01*
X021977Y013275D02*
X021875Y013376D01*
X021875Y013580D01*
X021875Y013919D02*
X021875Y014021D01*
X021977Y014021D01*
X021977Y013919D01*
X021875Y013919D01*
X021977Y014241D02*
X021875Y014343D01*
X021875Y014648D01*
X021977Y014886D02*
X021875Y014988D01*
X021875Y015191D01*
X021977Y015293D01*
X022180Y015293D01*
X022282Y015191D01*
X022282Y014988D01*
X022180Y014886D01*
X021977Y014886D01*
X022282Y014648D02*
X022282Y014343D01*
X022180Y014241D01*
X021977Y014241D01*
X021875Y015530D02*
X022282Y015530D01*
X022282Y015632D01*
X022180Y015734D01*
X022282Y015836D01*
X022180Y015937D01*
X021875Y015937D01*
X021875Y015734D02*
X022180Y015734D01*
X022486Y012302D02*
X022587Y012302D01*
X021875Y003601D02*
X021977Y003499D01*
X022282Y003499D01*
D11*
X020232Y017465D02*
X020068Y017628D01*
X020068Y017955D01*
X019879Y017792D02*
X019716Y017955D01*
X019716Y017465D01*
X019879Y017465D02*
X019552Y017465D01*
X019364Y017465D02*
X019282Y017465D01*
X019282Y017547D01*
X019364Y017547D01*
X019364Y017465D01*
X019106Y017547D02*
X018779Y017874D01*
X018779Y017547D01*
X018861Y017465D01*
X019024Y017465D01*
X019106Y017547D01*
X019106Y017874D01*
X019024Y017955D01*
X018861Y017955D01*
X018779Y017874D01*
X020232Y017465D02*
X020395Y017628D01*
X020395Y017955D01*
X002395Y015792D02*
X001965Y015792D01*
X001965Y015505D02*
X002395Y015505D01*
X002252Y015648D01*
X002395Y015792D01*
X002324Y015331D02*
X002037Y015331D01*
X001965Y015259D01*
X001965Y015116D01*
X002037Y015044D01*
X002324Y015044D01*
X002395Y015116D01*
X002395Y015259D01*
X002324Y015331D01*
X002395Y014871D02*
X002395Y014584D01*
X002395Y014727D02*
X001965Y014727D01*
X002395Y014410D02*
X002395Y014123D01*
X002395Y014267D02*
X001965Y014267D01*
X002037Y013950D02*
X002324Y013950D01*
X002395Y013878D01*
X002395Y013735D01*
X002324Y013663D01*
X002037Y013663D01*
X001965Y013735D01*
X001965Y013878D01*
X002037Y013950D01*
X002037Y013490D02*
X001965Y013418D01*
X001965Y013203D01*
X002395Y013203D01*
X002395Y013418D01*
X002324Y013490D01*
X002252Y013490D01*
X002180Y013418D01*
X002180Y013203D01*
X002180Y013418D02*
X002108Y013490D01*
X002037Y013490D01*
D12*
X005680Y013304D03*
X005680Y012556D03*
X007680Y012556D03*
X007680Y013304D03*
X010180Y013304D03*
X010180Y012556D03*
X012680Y012556D03*
X012680Y013304D03*
X013680Y013304D03*
X013680Y012556D03*
X014680Y012556D03*
X014680Y013304D03*
X015680Y013304D03*
X015680Y012556D03*
X016680Y012556D03*
X016680Y013304D03*
X017680Y013304D03*
X017680Y012556D03*
X018180Y007804D03*
X018180Y007056D03*
X003180Y003304D03*
X003180Y002556D03*
D13*
X002980Y006930D02*
X002380Y006930D01*
X002380Y007930D02*
X002980Y007930D01*
X002980Y008930D02*
X002380Y008930D01*
X005680Y016130D02*
X005680Y016730D01*
X006680Y016730D02*
X006680Y016130D01*
X007680Y016130D02*
X007680Y016730D01*
X008680Y016730D02*
X008680Y016130D01*
X009680Y016130D02*
X009680Y016730D01*
X012680Y016730D02*
X012680Y016130D01*
X013680Y016130D02*
X013680Y016730D01*
X014680Y016730D02*
X014680Y016130D01*
X020380Y008430D02*
X020980Y008430D01*
X020980Y007430D02*
X020380Y007430D01*
X019680Y002730D02*
X019680Y002130D01*
X018680Y002130D02*
X018680Y002730D01*
X014680Y002730D02*
X014680Y002130D01*
X013680Y002130D02*
X013680Y002730D01*
D14*
X013680Y004670D02*
X013680Y005190D01*
X012680Y005190D02*
X012680Y004670D01*
X011680Y004670D02*
X011680Y005190D01*
X010680Y005190D02*
X010680Y004670D01*
X009680Y004670D02*
X009680Y005190D01*
X008680Y005190D02*
X008680Y004670D01*
X007680Y004670D02*
X007680Y005190D01*
X006680Y005190D02*
X006680Y004670D01*
X005680Y004670D02*
X005680Y005190D01*
X005680Y010670D02*
X005680Y011190D01*
X006680Y011190D02*
X006680Y010670D01*
X007680Y010670D02*
X007680Y011190D01*
X008680Y011190D02*
X008680Y010670D01*
X009680Y010670D02*
X009680Y011190D01*
X010680Y011190D02*
X010680Y010670D01*
X011680Y010670D02*
X011680Y011190D01*
X012680Y011190D02*
X012680Y010670D01*
X013680Y010670D02*
X013680Y011190D01*
X014680Y011190D02*
X014680Y010670D01*
X015680Y010670D02*
X015680Y011190D01*
X016680Y011190D02*
X016680Y010670D01*
X017680Y010670D02*
X017680Y011190D01*
X018680Y011190D02*
X018680Y010670D01*
X018680Y005190D02*
X018680Y004670D01*
X017680Y004670D02*
X017680Y005190D01*
X016680Y005190D02*
X016680Y004670D01*
X015680Y004670D02*
X015680Y005190D01*
X014680Y005190D02*
X014680Y004670D01*
D15*
X015420Y007270D03*
X015420Y008170D03*
X015420Y009070D03*
D16*
X012940Y008180D03*
D17*
X004054Y004930D03*
X003306Y004930D03*
X003554Y010930D03*
X002806Y010930D03*
D18*
X002714Y001502D02*
X002661Y001410D01*
X020699Y001410D01*
X020646Y001502D01*
X020570Y001784D01*
X020570Y002076D01*
X020646Y002358D01*
X020792Y002612D01*
X020998Y002818D01*
X021252Y002964D01*
X021534Y003040D01*
X021826Y003040D01*
X022070Y002975D01*
X022070Y003214D01*
X021920Y003214D01*
X021815Y003257D01*
X021714Y003359D01*
X021633Y003439D01*
X021590Y003544D01*
X021590Y003657D01*
X021609Y003702D01*
X021608Y003703D01*
X021590Y003747D01*
X021590Y003861D01*
X021625Y003946D01*
X021633Y003966D01*
X021633Y003966D01*
X021633Y003966D01*
X021692Y004025D01*
X021633Y004084D01*
X021590Y004188D01*
X021590Y004302D01*
X021609Y004347D01*
X021608Y004347D01*
X021590Y004392D01*
X021590Y004505D01*
X021625Y004591D01*
X021633Y004610D01*
X021633Y004610D01*
X021633Y004610D01*
X021692Y004669D01*
X021633Y004728D01*
X021590Y004833D01*
X021590Y004946D01*
X021609Y004991D01*
X021608Y004992D01*
X021590Y005037D01*
X021590Y005150D01*
X021625Y005235D01*
X021633Y005255D01*
X021633Y005255D01*
X021633Y005255D01*
X021642Y005263D01*
X021633Y005271D01*
X021590Y005376D01*
X021590Y005591D01*
X021633Y005695D01*
X021590Y005800D01*
X021590Y006117D01*
X021633Y006221D01*
X021642Y006230D01*
X021633Y006238D01*
X021590Y006343D01*
X021590Y006660D01*
X021633Y006764D01*
X021636Y006767D01*
X021633Y006769D01*
X021590Y006874D01*
X021590Y007191D01*
X021633Y007296D01*
X021642Y007304D01*
X021633Y007312D01*
X021590Y007417D01*
X021590Y007530D01*
X021609Y007575D01*
X021590Y007620D01*
X021590Y007734D01*
X021609Y007779D01*
X021590Y007824D01*
X021590Y007937D01*
X021633Y008042D01*
X021642Y008050D01*
X021633Y008058D01*
X021590Y008163D01*
X021590Y008283D01*
X021506Y008079D01*
X021331Y007904D01*
X021207Y007853D01*
X021232Y007841D01*
X021293Y007796D01*
X021346Y007743D01*
X021391Y007682D01*
X021425Y007614D01*
X021448Y007542D01*
X021460Y007468D01*
X021460Y007450D01*
X020700Y007450D01*
X020700Y007410D01*
X021460Y007410D01*
X021460Y007392D01*
X021448Y007318D01*
X021425Y007246D01*
X021391Y007178D01*
X021346Y007117D01*
X021293Y007064D01*
X021232Y007019D01*
X021164Y006985D01*
X021092Y006962D01*
X021018Y006950D01*
X020700Y006950D01*
X020700Y007410D01*
X020660Y007410D01*
X020660Y006950D01*
X020342Y006950D01*
X020268Y006962D01*
X020196Y006985D01*
X020128Y007019D01*
X020067Y007064D01*
X020014Y007117D01*
X019969Y007178D01*
X019935Y007246D01*
X019912Y007318D01*
X019900Y007392D01*
X019900Y007410D01*
X020660Y007410D01*
X020660Y007450D01*
X020660Y007810D01*
X020700Y007810D01*
X020700Y007450D01*
X020660Y007450D01*
X019900Y007450D01*
X019900Y007468D01*
X019912Y007542D01*
X019935Y007614D01*
X019969Y007682D01*
X020014Y007743D01*
X020067Y007796D01*
X020128Y007841D01*
X020153Y007853D01*
X020029Y007904D01*
X019963Y007970D01*
X018893Y007970D01*
X018795Y007873D01*
X018795Y007484D01*
X018773Y007430D01*
X018795Y007376D01*
X018795Y006736D01*
X018747Y006619D01*
X018657Y006529D01*
X018539Y006480D01*
X018043Y006480D01*
X017241Y005679D01*
X017124Y005630D01*
X017060Y005630D01*
X017172Y005519D01*
X017180Y005499D01*
X017188Y005519D01*
X017351Y005682D01*
X017565Y005770D01*
X017795Y005770D01*
X018009Y005682D01*
X018172Y005519D01*
X018257Y005312D01*
X018272Y005359D01*
X018304Y005421D01*
X018344Y005477D01*
X018393Y005526D01*
X018449Y005566D01*
X018511Y005598D01*
X018577Y005619D01*
X018645Y005630D01*
X018680Y005630D01*
X018680Y004930D01*
X019430Y004930D01*
X020680Y006180D01*
X020680Y007430D01*
X021180Y007430D01*
X021580Y007930D01*
X021580Y008930D01*
X021180Y009430D01*
X019430Y009430D01*
X018930Y008930D01*
X015560Y008930D01*
X015420Y009070D01*
X015488Y009014D02*
X020169Y009014D01*
X020257Y009050D02*
X020029Y008956D01*
X019854Y008781D01*
X019783Y008610D01*
X018696Y008610D01*
X018579Y008561D01*
X018397Y008380D01*
X017821Y008380D01*
X017703Y008331D01*
X017613Y008241D01*
X017567Y008130D01*
X017313Y008130D01*
X017001Y008441D01*
X016884Y008490D01*
X016135Y008490D01*
X016135Y008529D01*
X016086Y008646D01*
X015996Y008736D01*
X015992Y008738D01*
X015995Y008751D01*
X015995Y009002D01*
X015488Y009002D01*
X015488Y009138D01*
X015352Y009138D01*
X015352Y009545D01*
X015001Y009545D01*
X014956Y009533D01*
X014914Y009509D01*
X014881Y009476D01*
X014857Y009434D01*
X014845Y009389D01*
X014845Y009138D01*
X015352Y009138D01*
X015352Y009002D01*
X014845Y009002D01*
X014845Y008751D01*
X014848Y008738D01*
X014844Y008736D01*
X014835Y008728D01*
X013407Y010155D01*
X013565Y010090D01*
X013795Y010090D01*
X014009Y010178D01*
X014172Y010341D01*
X014180Y010361D01*
X014188Y010341D01*
X014351Y010178D01*
X014565Y010090D01*
X014795Y010090D01*
X015009Y010178D01*
X015172Y010341D01*
X015180Y010361D01*
X015188Y010341D01*
X015351Y010178D01*
X015565Y010090D01*
X015795Y010090D01*
X016009Y010178D01*
X016172Y010341D01*
X016180Y010361D01*
X016188Y010341D01*
X016351Y010178D01*
X016565Y010090D01*
X016795Y010090D01*
X017009Y010178D01*
X017172Y010341D01*
X017180Y010361D01*
X017188Y010341D01*
X017351Y010178D01*
X017565Y010090D01*
X017795Y010090D01*
X018009Y010178D01*
X018172Y010341D01*
X018180Y010361D01*
X018188Y010341D01*
X018351Y010178D01*
X018565Y010090D01*
X018795Y010090D01*
X019009Y010178D01*
X019172Y010341D01*
X019260Y010555D01*
X019260Y011305D01*
X019172Y011519D01*
X019009Y011682D01*
X018795Y011770D01*
X018565Y011770D01*
X018351Y011682D01*
X018188Y011519D01*
X018180Y011499D01*
X018172Y011519D01*
X018009Y011682D01*
X018000Y011685D01*
X018000Y011980D01*
X018039Y011980D01*
X018157Y012029D01*
X018247Y012119D01*
X018295Y012236D01*
X018295Y012876D01*
X018273Y012930D01*
X018295Y012984D01*
X018295Y013624D01*
X018247Y013741D01*
X018157Y013831D01*
X018039Y013880D01*
X017960Y013880D01*
X017960Y014754D01*
X017911Y014871D01*
X015191Y017591D01*
X015101Y017681D01*
X014984Y017730D01*
X008296Y017730D01*
X008179Y017681D01*
X007835Y017337D01*
X007803Y017350D01*
X007557Y017350D01*
X007329Y017256D01*
X007180Y017107D01*
X007031Y017256D01*
X006803Y017350D01*
X006557Y017350D01*
X006329Y017256D01*
X006180Y017107D01*
X006031Y017256D01*
X005803Y017350D01*
X005557Y017350D01*
X005329Y017256D01*
X005154Y017081D01*
X005060Y016853D01*
X005060Y016007D01*
X005154Y015779D01*
X005329Y015604D01*
X005557Y015510D01*
X005803Y015510D01*
X006031Y015604D01*
X006180Y015753D01*
X006329Y015604D01*
X006557Y015510D01*
X006803Y015510D01*
X007031Y015604D01*
X007180Y015753D01*
X007329Y015604D01*
X007557Y015510D01*
X007803Y015510D01*
X008031Y015604D01*
X008180Y015753D01*
X008329Y015604D01*
X008360Y015591D01*
X008360Y015563D01*
X007797Y015000D01*
X006116Y015000D01*
X005999Y014951D01*
X005909Y014861D01*
X005409Y014361D01*
X005360Y014244D01*
X002670Y014244D01*
X002670Y014086D02*
X005360Y014086D01*
X005360Y014244D02*
X005360Y013880D01*
X005321Y013880D01*
X005203Y013831D01*
X005113Y013741D01*
X005065Y013624D01*
X005065Y012984D01*
X005087Y012930D01*
X005065Y012876D01*
X005065Y012236D01*
X005113Y012119D01*
X005203Y012029D01*
X005321Y011980D01*
X005360Y011980D01*
X005360Y011685D01*
X005351Y011682D01*
X005188Y011519D01*
X005100Y011305D01*
X005100Y010555D01*
X005188Y010341D01*
X005351Y010178D01*
X005565Y010090D01*
X005795Y010090D01*
X006009Y010178D01*
X006172Y010341D01*
X006180Y010361D01*
X006188Y010341D01*
X006351Y010178D01*
X006565Y010090D01*
X006795Y010090D01*
X007009Y010178D01*
X007172Y010341D01*
X007180Y010361D01*
X007188Y010341D01*
X007351Y010178D01*
X007565Y010090D01*
X007795Y010090D01*
X008009Y010178D01*
X008172Y010341D01*
X008180Y010361D01*
X008188Y010341D01*
X008351Y010178D01*
X008565Y010090D01*
X008795Y010090D01*
X009009Y010178D01*
X009172Y010341D01*
X009180Y010361D01*
X009188Y010341D01*
X009351Y010178D01*
X009565Y010090D01*
X009795Y010090D01*
X010009Y010178D01*
X010172Y010341D01*
X010180Y010361D01*
X010188Y010341D01*
X010351Y010178D01*
X010565Y010090D01*
X010795Y010090D01*
X011009Y010178D01*
X011172Y010341D01*
X011180Y010361D01*
X011188Y010341D01*
X011351Y010178D01*
X011565Y010090D01*
X011567Y010090D01*
X011909Y009749D01*
X011999Y009659D01*
X012116Y009610D01*
X013047Y009610D01*
X013414Y009244D01*
X013399Y009250D01*
X012481Y009250D01*
X012364Y009201D01*
X012274Y009111D01*
X012225Y008994D01*
X012225Y007366D01*
X012274Y007249D01*
X012352Y007170D01*
X005133Y007170D01*
X003570Y008733D01*
X003600Y008807D01*
X003600Y009053D01*
X003506Y009281D01*
X003331Y009456D01*
X003103Y009550D01*
X003080Y009550D01*
X003080Y010315D01*
X003126Y010315D01*
X003243Y010363D01*
X003333Y010453D01*
X003334Y010455D01*
X003506Y010455D01*
X003506Y010882D01*
X003602Y010882D01*
X003602Y010455D01*
X003834Y010455D01*
X003879Y010467D01*
X003920Y010491D01*
X003954Y010524D01*
X003978Y010565D01*
X003990Y010611D01*
X003990Y010882D01*
X003602Y010882D01*
X003602Y010978D01*
X003506Y010978D01*
X003506Y011405D01*
X003334Y011405D01*
X003333Y011407D01*
X003243Y011497D01*
X003126Y011545D01*
X002486Y011545D01*
X002369Y011497D01*
X002279Y011407D01*
X002230Y011289D01*
X002230Y010571D01*
X002279Y010453D01*
X002369Y010363D01*
X002440Y010334D01*
X002440Y009550D01*
X002257Y009550D01*
X002029Y009456D01*
X001854Y009281D01*
X001760Y009053D01*
X001760Y008807D01*
X001854Y008579D01*
X002029Y008404D01*
X002153Y008353D01*
X002128Y008341D01*
X002067Y008296D01*
X002014Y008243D01*
X001969Y008182D01*
X001935Y008114D01*
X001912Y008042D01*
X001900Y007968D01*
X001900Y007950D01*
X002660Y007950D01*
X002660Y007910D01*
X001900Y007910D01*
X001900Y007892D01*
X001912Y007818D01*
X001935Y007746D01*
X001969Y007678D01*
X002014Y007617D01*
X002067Y007564D01*
X002128Y007519D01*
X002153Y007507D01*
X002029Y007456D01*
X001854Y007281D01*
X001760Y007053D01*
X001760Y006807D01*
X001854Y006579D01*
X002029Y006404D01*
X002257Y006310D01*
X003103Y006310D01*
X003331Y006404D01*
X003506Y006579D01*
X003600Y006807D01*
X003600Y007053D01*
X003506Y007281D01*
X003331Y007456D01*
X003207Y007507D01*
X003232Y007519D01*
X003293Y007564D01*
X003346Y007617D01*
X003391Y007678D01*
X003425Y007746D01*
X003448Y007818D01*
X003460Y007892D01*
X003460Y007910D01*
X002700Y007910D01*
X002700Y007950D01*
X003447Y007950D01*
X004707Y006690D01*
X004296Y006690D01*
X004179Y006641D01*
X004089Y006551D01*
X003129Y005591D01*
X003110Y005545D01*
X002986Y005545D01*
X002869Y005497D01*
X002779Y005407D01*
X002730Y005289D01*
X002730Y004571D01*
X002779Y004453D01*
X002869Y004363D01*
X002920Y004342D01*
X002920Y003880D01*
X002821Y003880D01*
X002703Y003831D01*
X002613Y003741D01*
X002565Y003624D01*
X002565Y002984D01*
X002613Y002867D01*
X002703Y002777D01*
X002705Y002776D01*
X002705Y002604D01*
X003132Y002604D01*
X003132Y002508D01*
X002705Y002508D01*
X002705Y002375D01*
X002568Y002612D01*
X002362Y002818D01*
X002108Y002964D01*
X001826Y003040D01*
X001534Y003040D01*
X001252Y002964D01*
X001160Y002911D01*
X001160Y016449D01*
X001252Y016396D01*
X001534Y016320D01*
X001826Y016320D01*
X002108Y016396D01*
X002362Y016542D01*
X002568Y016748D01*
X002714Y017002D01*
X002790Y017284D01*
X002790Y017576D01*
X002714Y017858D01*
X002664Y017946D01*
X018511Y017946D01*
X018504Y017928D01*
X018504Y017492D01*
X018546Y017391D01*
X018623Y017314D01*
X018623Y017314D01*
X018628Y017309D01*
X018705Y017232D01*
X018806Y017190D01*
X019079Y017190D01*
X019153Y017221D01*
X019227Y017190D01*
X019418Y017190D01*
X019458Y017206D01*
X019498Y017190D01*
X019934Y017190D01*
X020035Y017232D01*
X020055Y017252D01*
X020076Y017232D01*
X020148Y017202D01*
X020177Y017190D01*
X020286Y017190D01*
X020387Y017232D01*
X020465Y017309D01*
X020465Y017309D01*
X020570Y017415D01*
X020570Y017284D01*
X020646Y017002D01*
X020792Y016748D01*
X020998Y016542D01*
X021252Y016396D01*
X021534Y016320D01*
X021826Y016320D01*
X022070Y016385D01*
X022070Y016222D01*
X021818Y016222D01*
X021714Y016179D01*
X021633Y016099D01*
X021590Y015994D01*
X021590Y015881D01*
X021609Y015836D01*
X021590Y015791D01*
X021590Y015677D01*
X021609Y015632D01*
X021590Y015587D01*
X021590Y015474D01*
X021633Y015369D01*
X021642Y015361D01*
X021633Y015353D01*
X021590Y015248D01*
X021590Y014931D01*
X021633Y014826D01*
X021642Y014818D01*
X021633Y014810D01*
X021590Y014705D01*
X021590Y014286D01*
X021633Y014182D01*
X021590Y014077D01*
X021590Y013862D01*
X021633Y013758D01*
X021642Y013749D01*
X021633Y013741D01*
X021590Y013636D01*
X021590Y013320D01*
X021633Y013215D01*
X021642Y013207D01*
X021633Y013198D01*
X021590Y013094D01*
X021590Y012980D01*
X021633Y012876D01*
X021675Y012833D01*
X021633Y012791D01*
X021590Y012687D01*
X021590Y012573D01*
X021613Y012517D01*
X021590Y012460D01*
X021590Y012144D01*
X021613Y012087D01*
X021590Y012031D01*
X021590Y011714D01*
X021616Y011652D01*
X021590Y011590D01*
X021590Y011476D01*
X021633Y011372D01*
X021675Y011330D01*
X021633Y011287D01*
X021590Y011183D01*
X021590Y011069D01*
X021633Y010965D01*
X021642Y010956D01*
X021633Y010948D01*
X021590Y010843D01*
X021590Y010527D01*
X021633Y010422D01*
X021642Y010414D01*
X021633Y010405D01*
X021590Y010301D01*
X021590Y009780D01*
X021613Y009724D01*
X021590Y009667D01*
X021590Y009554D01*
X021633Y009449D01*
X021692Y009390D01*
X021633Y009331D01*
X021590Y009226D01*
X021590Y009113D01*
X021633Y009008D01*
X021675Y008966D01*
X021633Y008924D01*
X021590Y008819D01*
X021590Y008706D01*
X021633Y008601D01*
X021642Y008593D01*
X021633Y008585D01*
X021600Y008504D01*
X021600Y008553D01*
X021506Y008781D01*
X021331Y008956D01*
X021103Y009050D01*
X020257Y009050D01*
X019928Y008855D02*
X015995Y008855D01*
X016036Y008697D02*
X019819Y008697D01*
X020030Y007904D02*
X018827Y007904D01*
X018795Y007746D02*
X020017Y007746D01*
X019926Y007587D02*
X018795Y007587D01*
X018773Y007429D02*
X020660Y007429D01*
X020680Y007430D02*
X020680Y007490D01*
X021000Y007490D01*
X020700Y007429D02*
X021590Y007429D01*
X021604Y007587D02*
X021434Y007587D01*
X021343Y007746D02*
X021595Y007746D01*
X021590Y007904D02*
X021330Y007904D01*
X021489Y008063D02*
X021632Y008063D01*
X021590Y008221D02*
X021565Y008221D01*
X021600Y008538D02*
X021614Y008538D01*
X021594Y008697D02*
X021541Y008697D01*
X021605Y008855D02*
X021432Y008855D01*
X021631Y009014D02*
X021191Y009014D01*
X021590Y009172D02*
X015995Y009172D01*
X015995Y009138D02*
X015995Y009389D01*
X015983Y009434D01*
X015959Y009476D01*
X015926Y009509D01*
X015884Y009533D01*
X015839Y009545D01*
X015488Y009545D01*
X015488Y009138D01*
X015995Y009138D01*
X015995Y009331D02*
X021633Y009331D01*
X021617Y009489D02*
X015946Y009489D01*
X015488Y009489D02*
X015352Y009489D01*
X015352Y009331D02*
X015488Y009331D01*
X015488Y009172D02*
X015352Y009172D01*
X015352Y009014D02*
X014549Y009014D01*
X014391Y009172D02*
X014845Y009172D01*
X014845Y009331D02*
X014232Y009331D01*
X014074Y009489D02*
X014894Y009489D01*
X014875Y010123D02*
X015485Y010123D01*
X015248Y010282D02*
X015112Y010282D01*
X014485Y010123D02*
X013875Y010123D01*
X014112Y010282D02*
X014248Y010282D01*
X013598Y009965D02*
X021590Y009965D01*
X021590Y010123D02*
X018875Y010123D01*
X019112Y010282D02*
X021590Y010282D01*
X021626Y010440D02*
X019213Y010440D01*
X019260Y010599D02*
X021590Y010599D01*
X021590Y010757D02*
X019260Y010757D01*
X019260Y010916D02*
X021620Y010916D01*
X021590Y011074D02*
X019260Y011074D01*
X019260Y011233D02*
X021611Y011233D01*
X021625Y011391D02*
X019225Y011391D01*
X019141Y011550D02*
X021590Y011550D01*
X021592Y011708D02*
X018945Y011708D01*
X018415Y011708D02*
X018000Y011708D01*
X018000Y011867D02*
X021590Y011867D01*
X021590Y012025D02*
X018147Y012025D01*
X018273Y012184D02*
X021590Y012184D01*
X021590Y012342D02*
X018295Y012342D01*
X018295Y012501D02*
X021607Y012501D01*
X021590Y012659D02*
X018295Y012659D01*
X018295Y012818D02*
X021660Y012818D01*
X021592Y012976D02*
X018292Y012976D01*
X018295Y013135D02*
X021607Y013135D01*
X021601Y013293D02*
X018295Y013293D01*
X018295Y013452D02*
X021590Y013452D01*
X021590Y013610D02*
X018295Y013610D01*
X018219Y013769D02*
X021629Y013769D01*
X021590Y013927D02*
X017960Y013927D01*
X017960Y014086D02*
X021593Y014086D01*
X021608Y014244D02*
X017960Y014244D01*
X017960Y014403D02*
X021590Y014403D01*
X021590Y014561D02*
X017960Y014561D01*
X017960Y014720D02*
X021596Y014720D01*
X021612Y014878D02*
X017905Y014878D01*
X017746Y015037D02*
X021590Y015037D01*
X021590Y015195D02*
X017588Y015195D01*
X017429Y015354D02*
X021634Y015354D01*
X021590Y015512D02*
X017271Y015512D01*
X017112Y015671D02*
X021593Y015671D01*
X021606Y015829D02*
X016954Y015829D01*
X016795Y015988D02*
X021590Y015988D01*
X021681Y016146D02*
X016637Y016146D01*
X016478Y016305D02*
X022070Y016305D01*
X021135Y016463D02*
X016320Y016463D01*
X016161Y016622D02*
X020919Y016622D01*
X020774Y016780D02*
X016003Y016780D01*
X015844Y016939D02*
X020682Y016939D01*
X020620Y017097D02*
X015686Y017097D01*
X015527Y017256D02*
X018681Y017256D01*
X018628Y017309D02*
X018628Y017309D01*
X018536Y017414D02*
X015369Y017414D01*
X015210Y017573D02*
X018504Y017573D01*
X018504Y017731D02*
X002748Y017731D01*
X002790Y017573D02*
X008070Y017573D01*
X007911Y017414D02*
X002790Y017414D01*
X002782Y017256D02*
X005329Y017256D01*
X005170Y017097D02*
X002740Y017097D01*
X002678Y016939D02*
X005095Y016939D01*
X005060Y016780D02*
X002586Y016780D01*
X002441Y016622D02*
X005060Y016622D01*
X005060Y016463D02*
X002225Y016463D01*
X002450Y016067D02*
X001910Y016067D01*
X001809Y016025D01*
X001732Y015947D01*
X001690Y015846D01*
X001690Y015737D01*
X001727Y015648D01*
X001690Y015559D01*
X001690Y015450D01*
X001718Y015382D01*
X001690Y015314D01*
X001690Y015061D01*
X001732Y014960D01*
X001770Y014922D01*
X001732Y014883D01*
X001690Y014782D01*
X001690Y014673D01*
X001732Y014571D01*
X001806Y014497D01*
X001732Y014423D01*
X001690Y014322D01*
X001690Y014212D01*
X001732Y014111D01*
X001770Y014073D01*
X001732Y014034D01*
X001690Y013933D01*
X001690Y013680D01*
X001732Y013579D01*
X001735Y013576D01*
X001732Y013574D01*
X001690Y013473D01*
X001690Y013148D01*
X001732Y013047D01*
X001809Y012970D01*
X001910Y012928D01*
X002235Y012928D01*
X002341Y012928D01*
X002450Y012928D01*
X002551Y012970D01*
X002628Y013047D01*
X002670Y013148D01*
X002670Y013473D01*
X002628Y013574D01*
X002626Y013576D01*
X002628Y013579D01*
X002670Y013680D01*
X002670Y013933D01*
X002642Y014001D01*
X002670Y014069D01*
X002670Y014465D01*
X002657Y014497D01*
X002670Y014529D01*
X002670Y014925D01*
X002642Y014993D01*
X002670Y015061D01*
X002670Y015314D01*
X002642Y015382D01*
X002658Y015421D01*
X002670Y015450D01*
X002670Y015559D01*
X002634Y015648D01*
X002670Y015737D01*
X002670Y015846D01*
X002628Y015947D01*
X002551Y016025D01*
X002450Y016067D01*
X002588Y015988D02*
X005068Y015988D01*
X005060Y016146D02*
X001160Y016146D01*
X001160Y015988D02*
X001772Y015988D01*
X001690Y015829D02*
X001160Y015829D01*
X001160Y015671D02*
X001717Y015671D01*
X001690Y015512D02*
X001160Y015512D01*
X001160Y015354D02*
X001706Y015354D01*
X001690Y015195D02*
X001160Y015195D01*
X001160Y015037D02*
X001700Y015037D01*
X001730Y014878D02*
X001160Y014878D01*
X001160Y014720D02*
X001690Y014720D01*
X001742Y014561D02*
X001160Y014561D01*
X001160Y014403D02*
X001724Y014403D01*
X001690Y014244D02*
X001160Y014244D01*
X001160Y014086D02*
X001757Y014086D01*
X001690Y013927D02*
X001160Y013927D01*
X001160Y013769D02*
X001690Y013769D01*
X001719Y013610D02*
X001160Y013610D01*
X001160Y013452D02*
X001690Y013452D01*
X001690Y013293D02*
X001160Y013293D01*
X001160Y013135D02*
X001696Y013135D01*
X001803Y012976D02*
X001160Y012976D01*
X001160Y012818D02*
X005065Y012818D01*
X005068Y012976D02*
X002558Y012976D01*
X002665Y013135D02*
X005065Y013135D01*
X005065Y013293D02*
X002670Y013293D01*
X002670Y013452D02*
X005065Y013452D01*
X005065Y013610D02*
X002641Y013610D01*
X002670Y013769D02*
X005141Y013769D01*
X005360Y013927D02*
X002670Y013927D01*
X002670Y014403D02*
X005450Y014403D01*
X005608Y014561D02*
X002670Y014561D01*
X002670Y014720D02*
X005767Y014720D01*
X005925Y014878D02*
X002670Y014878D01*
X002660Y015037D02*
X007834Y015037D01*
X007992Y015195D02*
X002670Y015195D01*
X002654Y015354D02*
X008151Y015354D01*
X008309Y015512D02*
X007808Y015512D01*
X007552Y015512D02*
X006808Y015512D01*
X006552Y015512D02*
X005808Y015512D01*
X005552Y015512D02*
X002670Y015512D01*
X002643Y015671D02*
X005263Y015671D01*
X005134Y015829D02*
X002670Y015829D01*
X001160Y016305D02*
X005060Y016305D01*
X006097Y015671D02*
X006263Y015671D01*
X007097Y015671D02*
X007263Y015671D01*
X008097Y015671D02*
X008263Y015671D01*
X008680Y015430D02*
X008680Y016430D01*
X007720Y016450D02*
X007680Y016430D01*
X007720Y016450D02*
X007720Y016770D01*
X008360Y017410D01*
X014920Y017410D01*
X017640Y014690D01*
X017640Y013410D01*
X017680Y013304D01*
X017680Y012556D02*
X017680Y010930D01*
X018141Y011550D02*
X018219Y011550D01*
X018248Y010282D02*
X018112Y010282D01*
X017875Y010123D02*
X018485Y010123D01*
X017485Y010123D02*
X016875Y010123D01*
X017112Y010282D02*
X017248Y010282D01*
X016485Y010123D02*
X015875Y010123D01*
X016112Y010282D02*
X016248Y010282D01*
X016680Y010930D02*
X016680Y012556D01*
X016680Y013304D02*
X016680Y014120D01*
X016700Y014140D01*
X015680Y013304D02*
X015560Y013410D01*
X015560Y015300D01*
X015490Y015370D01*
X014760Y016290D02*
X014680Y016430D01*
X014760Y016290D02*
X014760Y013410D01*
X014680Y013304D01*
X014680Y012556D02*
X014680Y010930D01*
X013680Y010930D02*
X013680Y012556D01*
X013680Y013304D02*
X013680Y016430D01*
X012680Y016430D02*
X012680Y013304D01*
X012065Y013293D02*
X010228Y013293D01*
X010228Y013256D02*
X010228Y013352D01*
X010655Y013352D01*
X010655Y013584D01*
X010643Y013629D01*
X010619Y013670D01*
X010586Y013704D01*
X010545Y013728D01*
X010499Y013740D01*
X010228Y013740D01*
X010228Y013352D01*
X010132Y013352D01*
X010132Y013256D01*
X009705Y013256D01*
X009705Y013084D01*
X009703Y013083D01*
X009613Y012993D01*
X009565Y012876D01*
X009565Y012236D01*
X009613Y012119D01*
X009703Y012029D01*
X009821Y011980D01*
X010539Y011980D01*
X010657Y012029D01*
X010738Y012110D01*
X011047Y012110D01*
X011360Y011797D01*
X011360Y011685D01*
X011351Y011682D01*
X011188Y011519D01*
X011180Y011499D01*
X011172Y011519D01*
X011009Y011682D01*
X010795Y011770D01*
X010565Y011770D01*
X010351Y011682D01*
X010188Y011519D01*
X010180Y011499D01*
X010172Y011519D01*
X010009Y011682D01*
X009795Y011770D01*
X009565Y011770D01*
X009351Y011682D01*
X009188Y011519D01*
X009180Y011499D01*
X009172Y011519D01*
X009009Y011682D01*
X008795Y011770D01*
X008565Y011770D01*
X008351Y011682D01*
X008188Y011519D01*
X008180Y011499D01*
X008172Y011519D01*
X008009Y011682D01*
X007795Y011770D01*
X007723Y011770D01*
X007933Y011980D01*
X008039Y011980D01*
X008157Y012029D01*
X008247Y012119D01*
X008295Y012236D01*
X008295Y012876D01*
X008273Y012930D01*
X008295Y012984D01*
X008295Y013624D01*
X008247Y013741D01*
X008157Y013831D01*
X008147Y013835D01*
X008203Y013890D01*
X008774Y013890D01*
X008891Y013939D01*
X009861Y014909D01*
X009951Y014999D01*
X010000Y015116D01*
X010000Y015591D01*
X010031Y015604D01*
X010206Y015779D01*
X010300Y016007D01*
X010300Y016853D01*
X010206Y017081D01*
X010197Y017090D01*
X012163Y017090D01*
X012154Y017081D01*
X012060Y016853D01*
X012060Y016007D01*
X012154Y015779D01*
X012329Y015604D01*
X012360Y015591D01*
X012360Y013880D01*
X012321Y013880D01*
X012203Y013831D01*
X012113Y013741D01*
X012065Y013624D01*
X012065Y012984D01*
X012087Y012930D01*
X012065Y012876D01*
X012065Y012236D01*
X012113Y012119D01*
X012203Y012029D01*
X012321Y011980D01*
X012360Y011980D01*
X012360Y011685D01*
X012351Y011682D01*
X012188Y011519D01*
X012180Y011499D01*
X012172Y011519D01*
X012009Y011682D01*
X012000Y011685D01*
X012000Y011994D01*
X011951Y012111D01*
X011451Y012611D01*
X011361Y012701D01*
X011244Y012750D01*
X010795Y012750D01*
X010795Y012876D01*
X010747Y012993D01*
X010657Y013083D01*
X010655Y013084D01*
X010655Y013256D01*
X010228Y013256D01*
X010180Y013304D02*
X010156Y013280D01*
X008730Y013280D01*
X008295Y013293D02*
X010132Y013293D01*
X010120Y013250D02*
X010180Y013304D01*
X010132Y013352D02*
X009705Y013352D01*
X009705Y013584D01*
X009717Y013629D01*
X009741Y013670D01*
X009774Y013704D01*
X009815Y013728D01*
X009861Y013740D01*
X010132Y013740D01*
X010132Y013352D01*
X010132Y013452D02*
X010228Y013452D01*
X010228Y013610D02*
X010132Y013610D01*
X009712Y013610D02*
X008295Y013610D01*
X008295Y013452D02*
X009705Y013452D01*
X009705Y013135D02*
X008295Y013135D01*
X008292Y012976D02*
X009606Y012976D01*
X009565Y012818D02*
X008295Y012818D01*
X008295Y012659D02*
X009565Y012659D01*
X009565Y012501D02*
X008295Y012501D01*
X008295Y012342D02*
X009565Y012342D01*
X009587Y012184D02*
X008273Y012184D01*
X008147Y012025D02*
X009713Y012025D01*
X009945Y011708D02*
X010415Y011708D01*
X010219Y011550D02*
X010141Y011550D01*
X010647Y012025D02*
X011132Y012025D01*
X011291Y011867D02*
X007819Y011867D01*
X007945Y011708D02*
X008415Y011708D01*
X008219Y011550D02*
X008141Y011550D01*
X007680Y012180D02*
X007430Y011930D01*
X007180Y011930D01*
X006680Y011430D01*
X006680Y010930D01*
X006248Y010282D02*
X006112Y010282D01*
X005875Y010123D02*
X006485Y010123D01*
X006875Y010123D02*
X007485Y010123D01*
X007248Y010282D02*
X007112Y010282D01*
X007875Y010123D02*
X008485Y010123D01*
X008248Y010282D02*
X008112Y010282D01*
X008875Y010123D02*
X009485Y010123D01*
X009248Y010282D02*
X009112Y010282D01*
X009875Y010123D02*
X010485Y010123D01*
X010248Y010282D02*
X010112Y010282D01*
X010875Y010123D02*
X011485Y010123D01*
X011693Y009965D02*
X003080Y009965D01*
X003080Y010123D02*
X005485Y010123D01*
X005248Y010282D02*
X003080Y010282D01*
X003320Y010440D02*
X005147Y010440D01*
X005100Y010599D02*
X003987Y010599D01*
X003990Y010757D02*
X005100Y010757D01*
X005100Y010916D02*
X003602Y010916D01*
X003554Y010930D02*
X003554Y011336D01*
X003240Y011650D01*
X002440Y011650D01*
X001640Y010850D01*
X001640Y008470D01*
X002180Y007930D01*
X002680Y007930D01*
X002440Y007970D01*
X002600Y007810D01*
X002680Y007930D01*
X002180Y007930D02*
X001640Y007390D01*
X001640Y003810D01*
X002760Y002690D01*
X003080Y002690D01*
X003180Y002556D01*
X003240Y002530D01*
X003240Y001830D01*
X003660Y001410D01*
X014920Y001410D01*
X015880Y002370D01*
X018600Y002370D01*
X018680Y002430D01*
X018680Y004930D01*
X018680Y004930D01*
X019120Y004930D01*
X019120Y005225D01*
X019109Y005293D01*
X019088Y005359D01*
X019056Y005421D01*
X019016Y005477D01*
X018967Y005526D01*
X018911Y005566D01*
X018849Y005598D01*
X018783Y005619D01*
X018715Y005630D01*
X018680Y005630D01*
X018680Y004930D01*
X018680Y004930D01*
X019120Y004930D01*
X019120Y004635D01*
X019109Y004567D01*
X019088Y004501D01*
X019056Y004439D01*
X019016Y004383D01*
X018967Y004334D01*
X018911Y004294D01*
X018849Y004262D01*
X018783Y004241D01*
X018715Y004230D01*
X018680Y004230D01*
X018680Y004930D01*
X018680Y004930D01*
X018680Y004230D01*
X018645Y004230D01*
X018577Y004241D01*
X018511Y004262D01*
X018449Y004294D01*
X018393Y004334D01*
X018344Y004383D01*
X018304Y004439D01*
X018272Y004501D01*
X018257Y004548D01*
X018172Y004341D01*
X018009Y004178D01*
X017795Y004090D01*
X017565Y004090D01*
X017351Y004178D01*
X017188Y004341D01*
X017180Y004361D01*
X017172Y004341D01*
X017009Y004178D01*
X016795Y004090D01*
X016565Y004090D01*
X016351Y004178D01*
X016188Y004341D01*
X016180Y004361D01*
X016172Y004341D01*
X016009Y004178D01*
X015795Y004090D01*
X015565Y004090D01*
X015351Y004178D01*
X015188Y004341D01*
X015180Y004361D01*
X015172Y004341D01*
X015009Y004178D01*
X015000Y004175D01*
X015000Y003269D01*
X015031Y003256D01*
X015206Y003081D01*
X015300Y002853D01*
X015300Y002007D01*
X015206Y001779D01*
X015031Y001604D01*
X014803Y001510D01*
X014557Y001510D01*
X014329Y001604D01*
X014180Y001753D01*
X014031Y001604D01*
X013803Y001510D01*
X013557Y001510D01*
X013329Y001604D01*
X013154Y001779D01*
X013060Y002007D01*
X013060Y002853D01*
X013154Y003081D01*
X013329Y003256D01*
X013360Y003269D01*
X013360Y004175D01*
X013351Y004178D01*
X013188Y004341D01*
X013180Y004361D01*
X013172Y004341D01*
X013009Y004178D01*
X012795Y004090D01*
X012565Y004090D01*
X012351Y004178D01*
X012188Y004341D01*
X012180Y004361D01*
X012172Y004341D01*
X012009Y004178D01*
X011795Y004090D01*
X011565Y004090D01*
X011351Y004178D01*
X011188Y004341D01*
X011180Y004361D01*
X011172Y004341D01*
X011009Y004178D01*
X010795Y004090D01*
X010565Y004090D01*
X010351Y004178D01*
X010188Y004341D01*
X010180Y004361D01*
X010172Y004341D01*
X010009Y004178D01*
X009795Y004090D01*
X009565Y004090D01*
X009351Y004178D01*
X009188Y004341D01*
X009180Y004361D01*
X009172Y004341D01*
X009009Y004178D01*
X008795Y004090D01*
X008565Y004090D01*
X008351Y004178D01*
X008188Y004341D01*
X008180Y004361D01*
X008172Y004341D01*
X008009Y004178D01*
X007795Y004090D01*
X007565Y004090D01*
X007351Y004178D01*
X007188Y004341D01*
X007180Y004361D01*
X007172Y004341D01*
X007009Y004178D01*
X006795Y004090D01*
X006565Y004090D01*
X006351Y004178D01*
X006188Y004341D01*
X006180Y004361D01*
X006172Y004341D01*
X006009Y004178D01*
X005795Y004090D01*
X005565Y004090D01*
X005351Y004178D01*
X005250Y004280D01*
X005250Y003230D01*
X005368Y003111D01*
X005368Y002749D01*
X005111Y002492D01*
X004749Y002492D01*
X004492Y002749D01*
X004492Y003111D01*
X004610Y003230D01*
X004610Y003990D01*
X004361Y003742D01*
X003999Y003742D01*
X003742Y003999D01*
X003742Y004315D01*
X003734Y004315D01*
X003680Y004337D01*
X003626Y004315D01*
X003560Y004315D01*
X003560Y003871D01*
X003657Y003831D01*
X003747Y003741D01*
X003795Y003624D01*
X003795Y002984D01*
X003747Y002867D01*
X003657Y002777D01*
X003655Y002776D01*
X003655Y002604D01*
X003228Y002604D01*
X003228Y002508D01*
X003655Y002508D01*
X003655Y002276D01*
X003643Y002231D01*
X003619Y002190D01*
X003586Y002156D01*
X003545Y002132D01*
X003499Y002120D01*
X003228Y002120D01*
X003228Y002508D01*
X003132Y002508D01*
X003132Y002120D01*
X002861Y002120D01*
X002815Y002132D01*
X002774Y002156D01*
X002766Y002164D01*
X002790Y002076D01*
X002790Y001784D01*
X002714Y001502D01*
X002731Y001564D02*
X013426Y001564D01*
X013211Y001723D02*
X002773Y001723D01*
X002790Y001881D02*
X013112Y001881D01*
X013060Y002040D02*
X002790Y002040D01*
X003132Y002198D02*
X003228Y002198D01*
X003228Y002357D02*
X003132Y002357D01*
X003132Y002515D02*
X002624Y002515D01*
X002705Y002674D02*
X002506Y002674D01*
X002648Y002832D02*
X002338Y002832D01*
X002565Y002991D02*
X002011Y002991D01*
X002565Y003149D02*
X001160Y003149D01*
X001160Y002991D02*
X001349Y002991D01*
X001160Y003308D02*
X002565Y003308D01*
X002565Y003466D02*
X001160Y003466D01*
X001160Y003625D02*
X002565Y003625D01*
X002655Y003783D02*
X001160Y003783D01*
X001160Y003942D02*
X002920Y003942D01*
X002920Y004100D02*
X001160Y004100D01*
X001160Y004259D02*
X002920Y004259D01*
X002815Y004417D02*
X001160Y004417D01*
X001160Y004576D02*
X002730Y004576D01*
X002730Y004734D02*
X001160Y004734D01*
X001160Y004893D02*
X002730Y004893D01*
X002730Y005051D02*
X001160Y005051D01*
X001160Y005210D02*
X002730Y005210D01*
X002763Y005368D02*
X001160Y005368D01*
X001160Y005527D02*
X002941Y005527D01*
X003222Y005685D02*
X001160Y005685D01*
X001160Y005844D02*
X003381Y005844D01*
X003539Y006002D02*
X001160Y006002D01*
X001160Y006161D02*
X003698Y006161D01*
X003856Y006319D02*
X003125Y006319D01*
X003404Y006478D02*
X004015Y006478D01*
X004173Y006636D02*
X003529Y006636D01*
X003595Y006795D02*
X004603Y006795D01*
X004444Y006953D02*
X003600Y006953D01*
X003576Y007112D02*
X004286Y007112D01*
X004127Y007270D02*
X003510Y007270D01*
X003358Y007429D02*
X003969Y007429D01*
X003810Y007587D02*
X003316Y007587D01*
X003425Y007746D02*
X003652Y007746D01*
X003493Y007904D02*
X003460Y007904D01*
X003923Y008380D02*
X012225Y008380D01*
X012225Y008538D02*
X003765Y008538D01*
X003606Y008697D02*
X012225Y008697D01*
X012225Y008855D02*
X007225Y008855D01*
X007111Y008742D02*
X007368Y008999D01*
X007368Y009361D01*
X007111Y009618D01*
X006749Y009618D01*
X006492Y009361D01*
X006492Y008999D01*
X006749Y008742D01*
X007111Y008742D01*
X007368Y009014D02*
X012233Y009014D01*
X012334Y009172D02*
X007368Y009172D01*
X007368Y009331D02*
X013327Y009331D01*
X013168Y009489D02*
X007241Y009489D01*
X006619Y009489D02*
X003251Y009489D01*
X003080Y009648D02*
X012026Y009648D01*
X011851Y009806D02*
X003080Y009806D01*
X003456Y009331D02*
X006492Y009331D01*
X006492Y009172D02*
X003551Y009172D01*
X003600Y009014D02*
X006492Y009014D01*
X006635Y008855D02*
X003600Y008855D01*
X004082Y008221D02*
X012225Y008221D01*
X012225Y008063D02*
X004240Y008063D01*
X004399Y007904D02*
X012225Y007904D01*
X012225Y007746D02*
X004557Y007746D01*
X004716Y007587D02*
X012225Y007587D01*
X012225Y007429D02*
X004874Y007429D01*
X005033Y007270D02*
X012265Y007270D01*
X014680Y006850D02*
X014850Y007020D01*
X015420Y007270D01*
X015400Y007010D01*
X014680Y006850D02*
X005000Y006850D01*
X002760Y009090D01*
X002680Y008930D01*
X002760Y008930D01*
X002760Y009090D01*
X002760Y010850D01*
X002806Y010930D01*
X002230Y010916D02*
X001160Y010916D01*
X001160Y011074D02*
X002230Y011074D01*
X002230Y011233D02*
X001160Y011233D01*
X001160Y011391D02*
X002272Y011391D01*
X002230Y010757D02*
X001160Y010757D01*
X001160Y010599D02*
X002230Y010599D01*
X002292Y010440D02*
X001160Y010440D01*
X001160Y010282D02*
X002440Y010282D01*
X002440Y010123D02*
X001160Y010123D01*
X001160Y009965D02*
X002440Y009965D01*
X002440Y009806D02*
X001160Y009806D01*
X001160Y009648D02*
X002440Y009648D01*
X002109Y009489D02*
X001160Y009489D01*
X001160Y009331D02*
X001904Y009331D01*
X001809Y009172D02*
X001160Y009172D01*
X001160Y009014D02*
X001760Y009014D01*
X001760Y008855D02*
X001160Y008855D01*
X001160Y008697D02*
X001806Y008697D01*
X001895Y008538D02*
X001160Y008538D01*
X001160Y008380D02*
X002089Y008380D01*
X001998Y008221D02*
X001160Y008221D01*
X001160Y008063D02*
X001918Y008063D01*
X001900Y007904D02*
X001160Y007904D01*
X001160Y007746D02*
X001935Y007746D01*
X002044Y007587D02*
X001160Y007587D01*
X001160Y007429D02*
X002002Y007429D01*
X001850Y007270D02*
X001160Y007270D01*
X001160Y007112D02*
X001784Y007112D01*
X001760Y006953D02*
X001160Y006953D01*
X001160Y006795D02*
X001765Y006795D01*
X001831Y006636D02*
X001160Y006636D01*
X001160Y006478D02*
X001956Y006478D01*
X002235Y006319D02*
X001160Y006319D01*
X003240Y004930D02*
X003306Y004930D01*
X003400Y004930D01*
X003400Y005410D01*
X004360Y006370D01*
X016620Y006370D01*
X017180Y006930D01*
X017180Y007810D01*
X016820Y008170D01*
X015420Y008170D01*
X014940Y008170D01*
X013180Y009930D01*
X012180Y009930D01*
X011680Y010430D01*
X011680Y010930D01*
X011680Y011930D01*
X011180Y012430D01*
X010306Y012430D01*
X010180Y012556D01*
X010280Y012450D01*
X010795Y012818D02*
X012065Y012818D01*
X012068Y012976D02*
X010754Y012976D01*
X010655Y013135D02*
X012065Y013135D01*
X012065Y013452D02*
X010655Y013452D01*
X010648Y013610D02*
X012065Y013610D01*
X012141Y013769D02*
X008219Y013769D01*
X008070Y014210D02*
X008710Y014210D01*
X009680Y015180D01*
X009680Y016430D01*
X009800Y016290D01*
X010300Y016305D02*
X012060Y016305D01*
X012060Y016463D02*
X010300Y016463D01*
X010300Y016622D02*
X012060Y016622D01*
X012060Y016780D02*
X010300Y016780D01*
X010265Y016939D02*
X012095Y016939D01*
X012060Y016146D02*
X010300Y016146D01*
X010292Y015988D02*
X012068Y015988D01*
X012134Y015829D02*
X010226Y015829D01*
X010097Y015671D02*
X012263Y015671D01*
X012360Y015512D02*
X010000Y015512D01*
X010000Y015354D02*
X012360Y015354D01*
X012360Y015195D02*
X010000Y015195D01*
X009967Y015037D02*
X012360Y015037D01*
X012360Y014878D02*
X009831Y014878D01*
X009672Y014720D02*
X012360Y014720D01*
X012360Y014561D02*
X009514Y014561D01*
X009355Y014403D02*
X012360Y014403D01*
X012360Y014244D02*
X009197Y014244D01*
X009038Y014086D02*
X012360Y014086D01*
X012360Y013927D02*
X008863Y013927D01*
X008070Y014210D02*
X007720Y013860D01*
X007720Y013410D01*
X007680Y013304D01*
X007680Y012556D02*
X007680Y012180D01*
X008945Y011708D02*
X009415Y011708D01*
X009219Y011550D02*
X009141Y011550D01*
X010945Y011708D02*
X011360Y011708D01*
X011219Y011550D02*
X011141Y011550D01*
X011879Y012184D02*
X012087Y012184D01*
X012065Y012342D02*
X011721Y012342D01*
X011562Y012501D02*
X012065Y012501D01*
X012065Y012659D02*
X011404Y012659D01*
X011987Y012025D02*
X012213Y012025D01*
X012360Y011867D02*
X012000Y011867D01*
X012000Y011708D02*
X012360Y011708D01*
X012219Y011550D02*
X012141Y011550D01*
X012680Y010930D02*
X012680Y012556D01*
X011248Y010282D02*
X011112Y010282D01*
X013440Y010123D02*
X013485Y010123D01*
X013757Y009806D02*
X021590Y009806D01*
X021590Y009648D02*
X013915Y009648D01*
X014708Y008855D02*
X014845Y008855D01*
X016131Y008538D02*
X018555Y008538D01*
X018760Y008290D02*
X018280Y007810D01*
X018180Y007804D01*
X018120Y007810D01*
X017180Y007810D01*
X017222Y008221D02*
X017605Y008221D01*
X017820Y008380D02*
X017063Y008380D01*
X018760Y008290D02*
X020680Y008290D01*
X020680Y008430D01*
X020660Y007746D02*
X020700Y007746D01*
X020700Y007587D02*
X020660Y007587D01*
X020660Y007270D02*
X020700Y007270D01*
X020700Y007112D02*
X020660Y007112D01*
X020660Y006953D02*
X020700Y006953D01*
X020323Y006953D02*
X018795Y006953D01*
X018795Y006795D02*
X021623Y006795D01*
X021590Y006953D02*
X021037Y006953D01*
X021340Y007112D02*
X021590Y007112D01*
X021623Y007270D02*
X021433Y007270D01*
X021590Y006636D02*
X018754Y006636D01*
X018795Y007112D02*
X020020Y007112D01*
X019927Y007270D02*
X018795Y007270D01*
X018180Y007056D02*
X018120Y007010D01*
X017060Y005950D01*
X005540Y005950D01*
X004930Y005340D01*
X004930Y002930D01*
X005368Y002991D02*
X013117Y002991D01*
X013060Y002832D02*
X005368Y002832D01*
X005293Y002674D02*
X013060Y002674D01*
X013060Y002515D02*
X005135Y002515D01*
X004725Y002515D02*
X003228Y002515D01*
X003655Y002357D02*
X013060Y002357D01*
X013060Y002198D02*
X003624Y002198D01*
X003655Y002674D02*
X004567Y002674D01*
X004492Y002832D02*
X003712Y002832D01*
X003795Y002991D02*
X004492Y002991D01*
X004529Y003149D02*
X003795Y003149D01*
X003795Y003308D02*
X004610Y003308D01*
X004610Y003466D02*
X003795Y003466D01*
X003795Y003625D02*
X004610Y003625D01*
X004610Y003783D02*
X004403Y003783D01*
X004561Y003942D02*
X004610Y003942D01*
X004180Y004180D02*
X004180Y004430D01*
X004054Y004556D01*
X004054Y004930D01*
X004200Y004930D01*
X003742Y004259D02*
X003560Y004259D01*
X003560Y004100D02*
X003742Y004100D01*
X003799Y003942D02*
X003560Y003942D01*
X003705Y003783D02*
X003957Y003783D01*
X003240Y003330D02*
X003180Y003304D01*
X003240Y003330D02*
X003240Y004930D01*
X005250Y004259D02*
X005271Y004259D01*
X005250Y004100D02*
X005540Y004100D01*
X005820Y004100D02*
X006540Y004100D01*
X006271Y004259D02*
X006089Y004259D01*
X006820Y004100D02*
X007540Y004100D01*
X007820Y004100D02*
X008540Y004100D01*
X008820Y004100D02*
X009540Y004100D01*
X009271Y004259D02*
X009089Y004259D01*
X008271Y004259D02*
X008089Y004259D01*
X007271Y004259D02*
X007089Y004259D01*
X005250Y003942D02*
X013360Y003942D01*
X013360Y004100D02*
X012820Y004100D01*
X012540Y004100D02*
X011820Y004100D01*
X011540Y004100D02*
X010820Y004100D01*
X010540Y004100D02*
X009820Y004100D01*
X010089Y004259D02*
X010271Y004259D01*
X011089Y004259D02*
X011271Y004259D01*
X012089Y004259D02*
X012271Y004259D01*
X013089Y004259D02*
X013271Y004259D01*
X013360Y003783D02*
X005250Y003783D01*
X005250Y003625D02*
X013360Y003625D01*
X013360Y003466D02*
X005250Y003466D01*
X005250Y003308D02*
X013360Y003308D01*
X013222Y003149D02*
X005331Y003149D01*
X013680Y002430D02*
X013680Y004930D01*
X014680Y004930D02*
X014680Y002430D01*
X015300Y002357D02*
X018200Y002357D01*
X018200Y002410D02*
X018200Y002092D01*
X018212Y002018D01*
X018235Y001946D01*
X018269Y001878D01*
X018314Y001817D01*
X018367Y001764D01*
X018428Y001719D01*
X018496Y001685D01*
X018568Y001662D01*
X018642Y001650D01*
X018660Y001650D01*
X018660Y002410D01*
X018200Y002410D01*
X018200Y002450D02*
X018660Y002450D01*
X018660Y003210D01*
X018642Y003210D01*
X018568Y003198D01*
X018496Y003175D01*
X018428Y003141D01*
X018367Y003096D01*
X018314Y003043D01*
X018269Y002982D01*
X018235Y002914D01*
X018212Y002842D01*
X018200Y002768D01*
X018200Y002450D01*
X018200Y002515D02*
X015300Y002515D01*
X015300Y002674D02*
X018200Y002674D01*
X018210Y002832D02*
X015300Y002832D01*
X015243Y002991D02*
X018276Y002991D01*
X018445Y003149D02*
X015138Y003149D01*
X015000Y003308D02*
X019454Y003308D01*
X019557Y003350D02*
X019329Y003256D01*
X019154Y003081D01*
X019103Y002957D01*
X019091Y002982D01*
X019046Y003043D01*
X018993Y003096D01*
X018932Y003141D01*
X018864Y003175D01*
X018792Y003198D01*
X018718Y003210D01*
X018700Y003210D01*
X018700Y002450D01*
X018660Y002450D01*
X018660Y002410D01*
X018700Y002410D01*
X018700Y001650D01*
X018718Y001650D01*
X018792Y001662D01*
X018864Y001685D01*
X018932Y001719D01*
X018993Y001764D01*
X019046Y001817D01*
X019091Y001878D01*
X019103Y001903D01*
X019154Y001779D01*
X019329Y001604D01*
X019557Y001510D01*
X019803Y001510D01*
X020031Y001604D01*
X020206Y001779D01*
X020300Y002007D01*
X020300Y002853D01*
X020206Y003081D01*
X020031Y003256D01*
X019803Y003350D01*
X019557Y003350D01*
X019222Y003149D02*
X018915Y003149D01*
X018700Y003149D02*
X018660Y003149D01*
X018660Y002991D02*
X018700Y002991D01*
X018700Y002832D02*
X018660Y002832D01*
X018660Y002674D02*
X018700Y002674D01*
X018700Y002515D02*
X018660Y002515D01*
X018660Y002357D02*
X018700Y002357D01*
X018700Y002198D02*
X018660Y002198D01*
X018660Y002040D02*
X018700Y002040D01*
X018700Y001881D02*
X018660Y001881D01*
X018660Y001723D02*
X018700Y001723D01*
X018936Y001723D02*
X019211Y001723D01*
X019112Y001881D02*
X019092Y001881D01*
X019426Y001564D02*
X014934Y001564D01*
X015149Y001723D02*
X018424Y001723D01*
X018268Y001881D02*
X015248Y001881D01*
X015300Y002040D02*
X018208Y002040D01*
X018200Y002198D02*
X015300Y002198D01*
X014426Y001564D02*
X013934Y001564D01*
X014149Y001723D02*
X014211Y001723D01*
X015000Y003466D02*
X021622Y003466D01*
X021590Y003625D02*
X015000Y003625D01*
X015000Y003783D02*
X021590Y003783D01*
X021623Y003942D02*
X015000Y003942D01*
X015000Y004100D02*
X015540Y004100D01*
X015820Y004100D02*
X016540Y004100D01*
X016271Y004259D02*
X016089Y004259D01*
X015271Y004259D02*
X015089Y004259D01*
X016820Y004100D02*
X017540Y004100D01*
X017820Y004100D02*
X021627Y004100D01*
X021590Y004259D02*
X018837Y004259D01*
X018680Y004259D02*
X018680Y004259D01*
X018523Y004259D02*
X018089Y004259D01*
X018203Y004417D02*
X018320Y004417D01*
X018680Y004417D02*
X018680Y004417D01*
X018680Y004576D02*
X018680Y004576D01*
X018680Y004734D02*
X018680Y004734D01*
X018680Y004893D02*
X018680Y004893D01*
X018680Y005051D02*
X018680Y005051D01*
X018680Y005210D02*
X018680Y005210D01*
X018680Y005368D02*
X018680Y005368D01*
X018680Y005527D02*
X018680Y005527D01*
X018395Y005527D02*
X018164Y005527D01*
X018234Y005368D02*
X018277Y005368D01*
X018001Y005685D02*
X021629Y005685D01*
X021590Y005527D02*
X018965Y005527D01*
X019083Y005368D02*
X021593Y005368D01*
X021615Y005210D02*
X019120Y005210D01*
X019120Y005051D02*
X021590Y005051D01*
X021590Y004893D02*
X019120Y004893D01*
X019120Y004734D02*
X021631Y004734D01*
X021619Y004576D02*
X019111Y004576D01*
X019040Y004417D02*
X021590Y004417D01*
X021765Y003308D02*
X019906Y003308D01*
X020138Y003149D02*
X022070Y003149D01*
X022070Y002991D02*
X022011Y002991D01*
X021349Y002991D02*
X020243Y002991D01*
X020300Y002832D02*
X021022Y002832D01*
X020854Y002674D02*
X020300Y002674D01*
X020300Y002515D02*
X020736Y002515D01*
X020645Y002357D02*
X020300Y002357D01*
X020300Y002198D02*
X020603Y002198D01*
X020570Y002040D02*
X020300Y002040D01*
X020248Y001881D02*
X020570Y001881D01*
X020587Y001723D02*
X020149Y001723D01*
X019934Y001564D02*
X020629Y001564D01*
X019117Y002991D02*
X019084Y002991D01*
X017271Y004259D02*
X017089Y004259D01*
X017164Y005527D02*
X017196Y005527D01*
X017248Y005685D02*
X017359Y005685D01*
X017406Y005844D02*
X021590Y005844D01*
X021590Y006002D02*
X017565Y006002D01*
X017723Y006161D02*
X021608Y006161D01*
X021600Y006319D02*
X017882Y006319D01*
X018040Y006478D02*
X021590Y006478D01*
X015680Y010930D02*
X015680Y012556D01*
X020411Y017256D02*
X020578Y017256D01*
X020569Y017414D02*
X020570Y017414D01*
X018504Y017890D02*
X002696Y017890D01*
X006031Y017256D02*
X006329Y017256D01*
X007031Y017256D02*
X007329Y017256D01*
X008680Y015430D02*
X007930Y014680D01*
X006180Y014680D01*
X005680Y014180D01*
X005680Y013304D01*
X005065Y012659D02*
X001160Y012659D01*
X001160Y012501D02*
X005065Y012501D01*
X005065Y012342D02*
X001160Y012342D01*
X001160Y012184D02*
X005087Y012184D01*
X005213Y012025D02*
X001160Y012025D01*
X001160Y011867D02*
X005360Y011867D01*
X005360Y011708D02*
X001160Y011708D01*
X001160Y011550D02*
X005219Y011550D01*
X005135Y011391D02*
X003883Y011391D01*
X003879Y011393D02*
X003834Y011405D01*
X003602Y011405D01*
X003602Y010978D01*
X003990Y010978D01*
X003990Y011249D01*
X003978Y011295D01*
X003954Y011336D01*
X003920Y011369D01*
X003879Y011393D01*
X003990Y011233D02*
X005100Y011233D01*
X005100Y011074D02*
X003990Y011074D01*
X003602Y011074D02*
X003506Y011074D01*
X003506Y011233D02*
X003602Y011233D01*
X003602Y011391D02*
X003506Y011391D01*
X003506Y010757D02*
X003602Y010757D01*
X003602Y010599D02*
X003506Y010599D01*
X005680Y010930D02*
X005680Y012556D01*
D19*
X015490Y015370D03*
X016700Y014140D03*
D20*
X019180Y014430D03*
X020180Y006680D03*
X008730Y013280D03*
X004430Y014430D03*
X006930Y009180D03*
X001930Y006180D03*
X004180Y004180D03*
X004930Y002930D03*
D21*
X003240Y001830D03*
M02*
