G75*
%MOIN*%
%OFA0B0*%
%FSLAX24Y24*%
%IPPOS*%
%LPD*%
%AMOC8*
5,1,8,0,0,1.08239X$1,22.5*
%
%ADD10C,0.0040*%
%ADD11C,0.0070*%
%ADD12C,0.0098*%
%ADD13C,0.0060*%
%ADD14C,0.0050*%
D10*
X013500Y001530D02*
X013807Y001530D01*
X013653Y001684D02*
X013653Y001377D01*
X014550Y001580D02*
X014857Y001580D01*
X018500Y001580D02*
X018807Y001580D01*
X019550Y001580D02*
X019857Y001580D01*
X019703Y001734D02*
X019703Y001427D01*
D11*
X019420Y003265D02*
X019256Y003265D01*
X019174Y003347D01*
X019174Y003674D01*
X019256Y003755D01*
X019420Y003755D01*
X019501Y003674D01*
X019501Y003347D02*
X019420Y003265D01*
X018994Y003265D02*
X018831Y003265D01*
X018912Y003265D02*
X018912Y003755D01*
X018831Y003755D02*
X018994Y003755D01*
X018642Y003755D02*
X018478Y003592D01*
X018315Y003755D01*
X018315Y003265D01*
X018642Y003265D02*
X018642Y003755D01*
X020537Y006215D02*
X020680Y006215D01*
X020752Y006287D01*
X020752Y006430D01*
X020608Y006430D01*
X020465Y006287D02*
X020537Y006215D01*
X020465Y006287D02*
X020465Y006574D01*
X020537Y006645D01*
X020680Y006645D01*
X020752Y006574D01*
X020925Y006645D02*
X020925Y006215D01*
X021212Y006215D02*
X021212Y006645D01*
X021386Y006645D02*
X021601Y006645D01*
X021673Y006574D01*
X021673Y006287D01*
X021601Y006215D01*
X021386Y006215D01*
X021386Y006645D01*
X020925Y006645D02*
X021212Y006215D01*
X021320Y009215D02*
X021238Y009297D01*
X021320Y009215D02*
X021484Y009215D01*
X021565Y009297D01*
X021565Y009378D01*
X021484Y009460D01*
X021402Y009460D01*
X021484Y009460D02*
X021565Y009542D01*
X021565Y009624D01*
X021484Y009705D01*
X021320Y009705D01*
X021238Y009624D01*
X021062Y009297D02*
X020981Y009297D01*
X020981Y009215D01*
X021062Y009215D01*
X021062Y009297D01*
X020792Y009297D02*
X020710Y009215D01*
X020547Y009215D01*
X020465Y009297D01*
X020628Y009460D02*
X020710Y009460D01*
X020792Y009378D01*
X020792Y009297D01*
X020710Y009460D02*
X020792Y009542D01*
X020792Y009624D01*
X020710Y009705D01*
X020547Y009705D01*
X020465Y009624D01*
X021754Y009705D02*
X021754Y009378D01*
X021918Y009215D01*
X022081Y009378D01*
X022081Y009705D01*
X014823Y003705D02*
X014496Y003378D01*
X014578Y003460D02*
X014823Y003215D01*
X014496Y003215D02*
X014496Y003705D01*
X014308Y003624D02*
X014308Y003460D01*
X014226Y003378D01*
X013981Y003378D01*
X013981Y003215D02*
X013981Y003705D01*
X014226Y003705D01*
X014308Y003624D01*
X013792Y003624D02*
X013710Y003705D01*
X013547Y003705D01*
X013465Y003624D01*
X013465Y003542D01*
X013547Y003460D01*
X013710Y003460D01*
X013792Y003378D01*
X013792Y003297D01*
X013710Y003215D01*
X013547Y003215D01*
X013465Y003297D01*
X012414Y001705D02*
X012168Y001705D01*
X012168Y001215D01*
X012168Y001378D02*
X012414Y001378D01*
X012495Y001460D01*
X012495Y001624D01*
X012414Y001705D01*
X012332Y001378D02*
X012495Y001215D01*
X011980Y001215D02*
X011653Y001215D01*
X011653Y001705D01*
X011980Y001705D01*
X011816Y001460D02*
X011653Y001460D01*
X011464Y001460D02*
X011382Y001378D01*
X011137Y001378D01*
X011137Y001215D02*
X011137Y001705D01*
X011382Y001705D01*
X011464Y001624D01*
X011464Y001460D01*
X010948Y001705D02*
X010621Y001705D01*
X010785Y001705D02*
X010785Y001215D01*
X010433Y001215D02*
X010433Y001542D01*
X010269Y001705D01*
X010106Y001542D01*
X010106Y001215D01*
X009917Y001297D02*
X009917Y001624D01*
X009835Y001705D01*
X009590Y001705D01*
X009590Y001215D01*
X009835Y001215D01*
X009917Y001297D01*
X010106Y001460D02*
X010433Y001460D01*
X009401Y001460D02*
X009074Y001460D01*
X009074Y001542D02*
X009238Y001705D01*
X009401Y001542D01*
X009401Y001215D01*
X009074Y001215D02*
X009074Y001542D01*
X008370Y001624D02*
X008370Y001460D01*
X008288Y001378D01*
X008043Y001378D01*
X008043Y001215D02*
X008043Y001705D01*
X008288Y001705D01*
X008370Y001624D01*
X008207Y001378D02*
X008370Y001215D01*
X007855Y001297D02*
X007773Y001215D01*
X007609Y001215D01*
X007528Y001297D01*
X007609Y001460D02*
X007773Y001460D01*
X007855Y001378D01*
X007855Y001297D01*
X007609Y001460D02*
X007528Y001542D01*
X007528Y001624D01*
X007609Y001705D01*
X007773Y001705D01*
X007855Y001624D01*
X007339Y001460D02*
X007012Y001460D01*
X006823Y001378D02*
X006823Y001705D01*
X006823Y001378D02*
X006660Y001215D01*
X006496Y001378D01*
X006496Y001705D01*
X006308Y001705D02*
X005981Y001705D01*
X006144Y001705D02*
X006144Y001215D01*
X005792Y001215D02*
X005792Y001705D01*
X005465Y001705D02*
X005465Y001215D01*
X005628Y001378D01*
X005792Y001215D01*
X006108Y002114D02*
X006108Y002329D01*
X006180Y002401D01*
X006252Y002401D01*
X006324Y002329D01*
X006324Y002114D01*
X006539Y002114D02*
X006539Y002329D01*
X006467Y002401D01*
X006395Y002401D01*
X006324Y002329D01*
X006467Y002574D02*
X006108Y002574D01*
X006108Y002861D02*
X006467Y002861D01*
X006539Y002790D01*
X006539Y002646D01*
X006467Y002574D01*
X006467Y003035D02*
X006539Y003035D01*
X006539Y003322D01*
X006467Y003035D02*
X006180Y003322D01*
X006108Y003322D01*
X006108Y003035D01*
X006108Y003495D02*
X006180Y003495D01*
X006324Y003639D01*
X006539Y003639D01*
X006324Y003639D02*
X006180Y003782D01*
X006108Y003782D01*
X005001Y003582D02*
X004858Y003439D01*
X004858Y003510D02*
X004858Y003295D01*
X005001Y003295D02*
X004571Y003295D01*
X004571Y003510D01*
X004643Y003582D01*
X004786Y003582D01*
X004858Y003510D01*
X005001Y003122D02*
X004571Y003122D01*
X004858Y002978D02*
X005001Y003122D01*
X004858Y002978D02*
X005001Y002835D01*
X004571Y002835D01*
X004643Y002661D02*
X004786Y002661D01*
X004858Y002590D01*
X004858Y002374D01*
X005001Y002374D02*
X004571Y002374D01*
X004571Y002590D01*
X004643Y002661D01*
X006108Y002114D02*
X006539Y002114D01*
X001929Y006715D02*
X001929Y007145D01*
X001786Y007145D02*
X002073Y007145D01*
X001612Y007074D02*
X001541Y007145D01*
X001397Y007145D01*
X001325Y007074D01*
X001325Y007002D01*
X001397Y006930D01*
X001541Y006930D01*
X001612Y006858D01*
X001612Y006787D01*
X001541Y006715D01*
X001397Y006715D01*
X001325Y006787D01*
X001152Y006715D02*
X001008Y006858D01*
X001080Y006858D02*
X000865Y006858D01*
X000865Y006715D02*
X000865Y007145D01*
X001080Y007145D01*
X001152Y007074D01*
X001152Y006930D01*
X001080Y006858D01*
X001080Y007715D02*
X001152Y007787D01*
X001152Y007930D01*
X001008Y007930D01*
X000865Y008074D02*
X000865Y007787D01*
X000937Y007715D01*
X001080Y007715D01*
X001325Y007715D02*
X001325Y008145D01*
X001612Y007715D01*
X001612Y008145D01*
X001786Y008145D02*
X002001Y008145D01*
X002073Y008074D01*
X002073Y007787D01*
X002001Y007715D01*
X001786Y007715D01*
X001786Y008145D01*
X001569Y008715D02*
X001712Y008858D01*
X001712Y009145D01*
X001425Y009145D02*
X001425Y008858D01*
X001569Y008715D01*
X001252Y008787D02*
X001252Y008930D01*
X001180Y009002D01*
X001108Y009002D01*
X000965Y008930D01*
X000965Y009145D01*
X001252Y009145D01*
X001252Y008787D02*
X001180Y008715D01*
X001037Y008715D01*
X000965Y008787D01*
X000937Y008145D02*
X000865Y008074D01*
X000937Y008145D02*
X001080Y008145D01*
X001152Y008074D01*
X001155Y011965D02*
X001645Y011965D01*
X001645Y012292D01*
X001645Y012481D02*
X001645Y012808D01*
X001645Y012996D02*
X001645Y013323D01*
X001645Y013512D02*
X001155Y013512D01*
X001318Y013675D01*
X001155Y013839D01*
X001645Y013839D01*
X001645Y014028D02*
X001645Y014355D01*
X001645Y014543D02*
X001155Y014543D01*
X001645Y014870D01*
X001155Y014870D01*
X001155Y015059D02*
X001155Y015386D01*
X001155Y015222D02*
X001645Y015222D01*
X001645Y015574D02*
X001563Y015574D01*
X001236Y015901D01*
X001155Y015901D01*
X001155Y015574D01*
X001645Y015574D02*
X001645Y015901D01*
X001155Y014355D02*
X001155Y014028D01*
X001645Y014028D01*
X001400Y014028D02*
X001400Y014191D01*
X001155Y013323D02*
X001155Y012996D01*
X001645Y012996D01*
X001400Y012996D02*
X001400Y013160D01*
X001155Y012481D02*
X001645Y012481D01*
X001400Y012128D02*
X001400Y011965D01*
X001155Y011965D02*
X001155Y012292D01*
X005848Y008396D02*
X005848Y007765D01*
X006058Y007975D01*
X006268Y007765D01*
X006268Y008396D01*
X006492Y008396D02*
X006913Y008396D01*
X006702Y008396D02*
X006702Y007765D01*
X007137Y007975D02*
X007347Y007765D01*
X007557Y007975D01*
X007557Y008396D01*
X007781Y008290D02*
X007886Y008396D01*
X008097Y008396D01*
X008202Y008290D01*
X007781Y007870D01*
X007886Y007765D01*
X008097Y007765D01*
X008202Y007870D01*
X008202Y008290D01*
X008426Y008080D02*
X008846Y008080D01*
X009070Y007870D02*
X009491Y008290D01*
X009491Y007870D01*
X009386Y007765D01*
X009176Y007765D01*
X009070Y007870D01*
X009070Y008290D01*
X009176Y008396D01*
X009386Y008396D01*
X009491Y008290D01*
X008741Y008396D02*
X008741Y007765D01*
X008426Y008080D02*
X008741Y008396D01*
X007781Y008290D02*
X007781Y007870D01*
X007137Y007975D02*
X007137Y008396D01*
X011465Y015465D02*
X011465Y015680D01*
X011536Y015752D01*
X011680Y015752D01*
X011752Y015680D01*
X011752Y015465D01*
X011895Y015465D02*
X011465Y015465D01*
X011752Y015608D02*
X011895Y015752D01*
X011895Y015925D02*
X011465Y015925D01*
X011465Y016212D01*
X011536Y016386D02*
X011823Y016386D01*
X011895Y016458D01*
X011895Y016601D01*
X011823Y016673D01*
X011823Y016846D02*
X011536Y016846D01*
X011465Y016918D01*
X011465Y017061D01*
X011536Y017133D01*
X011823Y017133D01*
X011895Y017061D01*
X011895Y016918D01*
X011823Y016846D01*
X011536Y016673D02*
X011465Y016601D01*
X011465Y016458D01*
X011536Y016386D01*
X011680Y016069D02*
X011680Y015925D01*
X011895Y015925D02*
X011895Y016212D01*
X012965Y017215D02*
X012965Y017645D01*
X013180Y017645D01*
X013252Y017574D01*
X013252Y017430D01*
X013180Y017358D01*
X012965Y017358D01*
X013425Y017215D02*
X013425Y017645D01*
X013886Y017502D02*
X014029Y017645D01*
X014173Y017502D01*
X014173Y017215D01*
X013886Y017215D02*
X013886Y017502D01*
X013886Y017430D02*
X014173Y017430D01*
X014346Y017574D02*
X014346Y017645D01*
X014346Y017574D02*
X014490Y017430D01*
X014490Y017215D01*
X014490Y017430D02*
X014633Y017574D01*
X014633Y017645D01*
X015215Y017561D02*
X015215Y017418D01*
X015286Y017346D01*
X015358Y017346D01*
X015430Y017418D01*
X015430Y017561D01*
X015502Y017633D01*
X015573Y017633D01*
X015645Y017561D01*
X015645Y017418D01*
X015573Y017346D01*
X015645Y017173D02*
X015358Y017173D01*
X015215Y017029D01*
X015358Y016886D01*
X015645Y016886D01*
X015645Y016712D02*
X015502Y016569D01*
X015502Y016641D02*
X015502Y016425D01*
X015645Y016425D02*
X015215Y016425D01*
X015215Y016641D01*
X015286Y016712D01*
X015430Y016712D01*
X015502Y016641D01*
X015430Y016886D02*
X015430Y017173D01*
X015215Y017561D02*
X015286Y017633D01*
X015215Y017807D02*
X015645Y017807D01*
X015645Y018093D01*
X015430Y017950D02*
X015430Y017807D01*
X015215Y017807D02*
X015215Y018093D01*
X013712Y017215D02*
X013425Y017215D01*
X011895Y017307D02*
X011465Y017307D01*
X011465Y017522D01*
X011536Y017593D01*
X011680Y017593D01*
X011752Y017522D01*
X011752Y017307D01*
X011752Y017450D02*
X011895Y017593D01*
X011895Y017767D02*
X011465Y017767D01*
X011465Y017982D01*
X011536Y018054D01*
X011823Y018054D01*
X011895Y017982D01*
X011895Y017767D01*
X009895Y017891D02*
X009465Y017891D01*
X009680Y017675D01*
X009680Y017962D01*
X009680Y017502D02*
X009680Y017215D01*
X009608Y017215D02*
X009465Y017358D01*
X009608Y017502D01*
X009895Y017502D01*
X009895Y017215D02*
X009608Y017215D01*
X008895Y017215D02*
X008608Y017215D01*
X008465Y017358D01*
X008608Y017502D01*
X008895Y017502D01*
X008823Y017675D02*
X008895Y017747D01*
X008895Y017891D01*
X008823Y017962D01*
X008752Y017962D01*
X008680Y017891D01*
X008680Y017819D01*
X008680Y017891D02*
X008608Y017962D01*
X008536Y017962D01*
X008465Y017891D01*
X008465Y017747D01*
X008536Y017675D01*
X008680Y017502D02*
X008680Y017215D01*
X007895Y017215D02*
X007608Y017215D01*
X007465Y017358D01*
X007608Y017502D01*
X007895Y017502D01*
X007895Y017675D02*
X007608Y017962D01*
X007536Y017962D01*
X007465Y017891D01*
X007465Y017747D01*
X007536Y017675D01*
X007680Y017502D02*
X007680Y017215D01*
X007895Y017675D02*
X007895Y017962D01*
X006895Y017962D02*
X006895Y017675D01*
X006895Y017819D02*
X006465Y017819D01*
X006608Y017675D01*
X006608Y017502D02*
X006895Y017502D01*
X006680Y017502D02*
X006680Y017215D01*
X006608Y017215D02*
X006465Y017358D01*
X006608Y017502D01*
X006608Y017215D02*
X006895Y017215D01*
X005895Y017215D02*
X005608Y017215D01*
X005465Y017358D01*
X005608Y017502D01*
X005895Y017502D01*
X005823Y017675D02*
X005536Y017962D01*
X005823Y017962D01*
X005895Y017891D01*
X005895Y017747D01*
X005823Y017675D01*
X005536Y017675D01*
X005465Y017747D01*
X005465Y017891D01*
X005536Y017962D01*
X005680Y017502D02*
X005680Y017215D01*
X015215Y016252D02*
X015215Y015965D01*
X015645Y015965D01*
X015645Y016252D01*
X015430Y016108D02*
X015430Y015965D01*
D12*
X004023Y002822D03*
X005837Y003038D03*
D13*
X005430Y004230D02*
X004830Y004230D01*
X004630Y004430D01*
X004630Y007330D01*
X004630Y007530D01*
X004880Y007530D01*
X004880Y008330D01*
X004630Y008330D01*
X004630Y008530D01*
X004630Y011630D01*
X005430Y011630D01*
X018930Y011630D01*
X019530Y011630D01*
X019730Y011430D01*
X019730Y004230D01*
X018930Y004230D01*
X005430Y004230D01*
X003180Y006680D02*
X002930Y006430D01*
X002430Y006430D01*
X002180Y006680D01*
X002180Y007180D01*
X002430Y007430D01*
X002180Y007680D01*
X002180Y008180D01*
X002430Y008430D01*
X002180Y008680D01*
X002180Y009180D01*
X002430Y009430D01*
X002930Y009430D01*
X003180Y009180D01*
X003180Y008680D01*
X002930Y008430D01*
X003180Y008180D01*
X003180Y007680D01*
X002930Y007430D01*
X003180Y007180D01*
X003180Y006680D01*
X002930Y007430D02*
X002430Y007430D01*
X002430Y008430D02*
X002930Y008430D01*
X004630Y008530D02*
X005130Y008530D01*
X005130Y007330D01*
X004630Y007330D01*
X013180Y002680D02*
X013180Y002180D01*
X013430Y001930D01*
X013930Y001930D01*
X014180Y002180D01*
X014430Y001930D01*
X014930Y001930D01*
X015180Y002180D01*
X015180Y002680D01*
X014930Y002930D01*
X014430Y002930D01*
X014180Y002680D01*
X014180Y002180D01*
X014180Y002680D02*
X013930Y002930D01*
X013430Y002930D01*
X013180Y002680D01*
X018180Y002680D02*
X018180Y002180D01*
X018430Y001930D01*
X018930Y001930D01*
X019180Y002180D01*
X019180Y002680D01*
X018930Y002930D01*
X018430Y002930D01*
X018180Y002680D01*
X019180Y002680D02*
X019430Y002930D01*
X019930Y002930D01*
X020180Y002680D01*
X020180Y002180D01*
X019930Y001930D01*
X019430Y001930D01*
X019180Y002180D01*
X020430Y006930D02*
X020180Y007180D01*
X020180Y007680D01*
X020430Y007930D01*
X020180Y008180D01*
X020180Y008680D01*
X020430Y008930D01*
X020930Y008930D01*
X021180Y008680D01*
X021180Y008180D01*
X020930Y007930D01*
X021180Y007680D01*
X021180Y007180D01*
X020930Y006930D01*
X020430Y006930D01*
X020430Y007930D02*
X020930Y007930D01*
X014930Y015930D02*
X014430Y015930D01*
X014180Y016180D01*
X013930Y015930D01*
X013430Y015930D01*
X013180Y016180D01*
X012930Y015930D01*
X012430Y015930D01*
X012180Y016180D01*
X012180Y016680D01*
X012430Y016930D01*
X012930Y016930D01*
X013180Y016680D01*
X013430Y016930D01*
X013930Y016930D01*
X014180Y016680D01*
X014430Y016930D01*
X014930Y016930D01*
X015180Y016680D01*
X015180Y016180D01*
X014930Y015930D01*
X014180Y016180D02*
X014180Y016680D01*
X013180Y016680D02*
X013180Y016180D01*
X010180Y016180D02*
X009930Y015930D01*
X009430Y015930D01*
X009180Y016180D01*
X008930Y015930D01*
X008430Y015930D01*
X008180Y016180D01*
X007930Y015930D01*
X007430Y015930D01*
X007180Y016180D01*
X006930Y015930D01*
X006430Y015930D01*
X006180Y016180D01*
X005930Y015930D01*
X005430Y015930D01*
X005180Y016180D01*
X005180Y016680D01*
X005430Y016930D01*
X005930Y016930D01*
X006180Y016680D01*
X006430Y016930D01*
X006930Y016930D01*
X007180Y016680D01*
X007180Y016180D01*
X007180Y016680D02*
X007430Y016930D01*
X007930Y016930D01*
X008180Y016680D01*
X008430Y016930D01*
X008930Y016930D01*
X009180Y016680D01*
X009430Y016930D01*
X009930Y016930D01*
X010180Y016680D01*
X010180Y016180D01*
X009180Y016180D02*
X009180Y016680D01*
X008180Y016680D02*
X008180Y016180D01*
X006180Y016180D02*
X006180Y016680D01*
D14*
X005105Y004905D02*
X005105Y004455D01*
X004955Y004455D02*
X005255Y004455D01*
X004955Y004755D02*
X005105Y004905D01*
M02*
