%
M48
M72
T01C0.0236
T02C0.0240
T03C0.0320
T04C0.0400
T05C0.1260
%
T01
X3240Y1830
X4930Y2930
X4180Y4180
X1930Y6180
X6930Y9180
X8730Y13280
X4430Y14430
X19180Y14430
X20180Y6680
T02
X16700Y14140
X15490Y15370
T03
X15680Y10930
X16680Y10930
X17680Y10930
X18680Y10930
X14680Y10930
X13680Y10930
X12680Y10930
X11680Y10930
X10680Y10930
X9680Y10930
X8680Y10930
X7680Y10930
X6680Y10930
X5680Y10930
X5680Y4930
X6680Y4930
X7680Y4930
X8680Y4930
X9680Y4930
X10680Y4930
X11680Y4930
X12680Y4930
X13680Y4930
X14680Y4930
X15680Y4930
X16680Y4930
X17680Y4930
X18680Y4930
T04
X18680Y2430
X19680Y2430
X14680Y2430
X13680Y2430
X20680Y7430
X20680Y8430
X14680Y16430
X13680Y16430
X12680Y16430
X9680Y16430
X8680Y16430
X7680Y16430
X6680Y16430
X5680Y16430
X2680Y8930
X2680Y7930
X2680Y6930
T05
X1680Y1930
X1680Y17430
X21680Y17430
X21680Y1930
M30
